<mxfile host="app.diagrams.net" agent="Mozilla/5.0 (Windows NT 10.0; Win64; x64) AppleWebKit/537.36 (KHTML, like Gecko) Chrome/130.0.0.0 Safari/537.36" version="24.8.2" pages="6">
  <diagram name="ReactDOM.createRoot(main#root).render(&lt;App /&gt;)" id="jG9bOFiAjcmtgisxvAR7">
    <mxGraphModel dx="2012" dy="632" grid="1" gridSize="10" guides="1" tooltips="1" connect="1" arrows="1" fold="1" page="1" pageScale="1" pageWidth="827" pageHeight="1169" math="0" shadow="0">
      <root>
        <mxCell id="0" />
        <mxCell id="1" parent="0" />
        <mxCell id="AIUWS9n4T7zDBxzmba74-3" value="ReactDOM.createRoot(main#root).render(&amp;lt;App /&amp;gt;)&lt;div&gt;&lt;br&gt;&lt;/div&gt;&lt;div&gt;1. tạo FiberRootNode và HostRoot&lt;/div&gt;&lt;div&gt;2. schedule&lt;/div&gt;&lt;div&gt;3. render&lt;/div&gt;&lt;div&gt;4. commit&lt;/div&gt;" style="rounded=0;whiteSpace=wrap;html=1;" vertex="1" parent="1">
          <mxGeometry x="40" width="320" height="120" as="geometry" />
        </mxCell>
        <mxCell id="f6zjzgeKIcA1bJwIyQVp-1" style="edgeStyle=orthogonalEdgeStyle;rounded=0;orthogonalLoop=1;jettySize=auto;html=1;exitX=0.5;exitY=1;exitDx=0;exitDy=0;entryX=0.5;entryY=0;entryDx=0;entryDy=0;" edge="1" parent="1" source="f6zjzgeKIcA1bJwIyQVp-2" target="f6zjzgeKIcA1bJwIyQVp-4">
          <mxGeometry relative="1" as="geometry">
            <mxPoint x="830" as="targetPoint" />
          </mxGeometry>
        </mxCell>
        <mxCell id="f6zjzgeKIcA1bJwIyQVp-2" value="App({ })" style="whiteSpace=wrap;html=1;" vertex="1" parent="1">
          <mxGeometry x="770" width="120" height="40" as="geometry" />
        </mxCell>
        <mxCell id="f6zjzgeKIcA1bJwIyQVp-3" style="edgeStyle=orthogonalEdgeStyle;rounded=0;orthogonalLoop=1;jettySize=auto;html=1;exitX=0.5;exitY=1;exitDx=0;exitDy=0;entryX=0.5;entryY=0;entryDx=0;entryDy=0;" edge="1" parent="1" source="f6zjzgeKIcA1bJwIyQVp-4" target="f6zjzgeKIcA1bJwIyQVp-6">
          <mxGeometry relative="1" as="geometry" />
        </mxCell>
        <mxCell id="f6zjzgeKIcA1bJwIyQVp-4" value="useState(0) return [0, dispatch]" style="whiteSpace=wrap;html=1;" vertex="1" parent="1">
          <mxGeometry x="730" y="80" width="200" height="40" as="geometry" />
        </mxCell>
        <mxCell id="f6zjzgeKIcA1bJwIyQVp-5" style="edgeStyle=orthogonalEdgeStyle;rounded=0;orthogonalLoop=1;jettySize=auto;html=1;exitX=0.5;exitY=1;exitDx=0;exitDy=0;entryX=0.5;entryY=0;entryDx=0;entryDy=0;" edge="1" parent="1" source="f6zjzgeKIcA1bJwIyQVp-6" target="f6zjzgeKIcA1bJwIyQVp-8">
          <mxGeometry relative="1" as="geometry" />
        </mxCell>
        <mxCell id="f6zjzgeKIcA1bJwIyQVp-6" value="useState(true) return [true, dispatch]" style="whiteSpace=wrap;html=1;" vertex="1" parent="1">
          <mxGeometry x="730" y="160" width="200" height="40" as="geometry" />
        </mxCell>
        <mxCell id="f6zjzgeKIcA1bJwIyQVp-7" style="edgeStyle=orthogonalEdgeStyle;rounded=0;orthogonalLoop=1;jettySize=auto;html=1;exitX=0.5;exitY=1;exitDx=0;exitDy=0;entryX=0.5;entryY=0;entryDx=0;entryDy=0;" edge="1" parent="1" source="f6zjzgeKIcA1bJwIyQVp-8" target="f6zjzgeKIcA1bJwIyQVp-10">
          <mxGeometry relative="1" as="geometry" />
        </mxCell>
        <mxCell id="f6zjzgeKIcA1bJwIyQVp-8" value="React.createElememt(&quot;button&quot;, { onClick }, &quot;Click me&quot;)" style="whiteSpace=wrap;html=1;" vertex="1" parent="1">
          <mxGeometry x="670" y="240" width="320" height="40" as="geometry" />
        </mxCell>
        <mxCell id="f6zjzgeKIcA1bJwIyQVp-9" style="edgeStyle=orthogonalEdgeStyle;rounded=0;orthogonalLoop=1;jettySize=auto;html=1;exitX=0.5;exitY=1;exitDx=0;exitDy=0;entryX=0.5;entryY=0;entryDx=0;entryDy=0;" edge="1" parent="1" source="f6zjzgeKIcA1bJwIyQVp-10" target="f6zjzgeKIcA1bJwIyQVp-12">
          <mxGeometry relative="1" as="geometry" />
        </mxCell>
        <mxCell id="f6zjzgeKIcA1bJwIyQVp-10" value="React.createElememt(InDependState, { }, null)" style="whiteSpace=wrap;html=1;" vertex="1" parent="1">
          <mxGeometry x="670" y="320" width="320" height="40" as="geometry" />
        </mxCell>
        <mxCell id="f6zjzgeKIcA1bJwIyQVp-11" style="edgeStyle=orthogonalEdgeStyle;rounded=0;orthogonalLoop=1;jettySize=auto;html=1;exitX=0.5;exitY=1;exitDx=0;exitDy=0;entryX=0.5;entryY=0;entryDx=0;entryDy=0;" edge="1" parent="1" source="f6zjzgeKIcA1bJwIyQVp-12" target="f6zjzgeKIcA1bJwIyQVp-14">
          <mxGeometry relative="1" as="geometry" />
        </mxCell>
        <mxCell id="f6zjzgeKIcA1bJwIyQVp-12" value="React.createElememt(DependState, { count: 0 }, null)" style="whiteSpace=wrap;html=1;" vertex="1" parent="1">
          <mxGeometry x="670" y="400" width="320" height="40" as="geometry" />
        </mxCell>
        <mxCell id="f6zjzgeKIcA1bJwIyQVp-13" style="edgeStyle=orthogonalEdgeStyle;rounded=0;orthogonalLoop=1;jettySize=auto;html=1;exitX=0.5;exitY=1;exitDx=0;exitDy=0;entryX=0.5;entryY=0;entryDx=0;entryDy=0;" edge="1" parent="1" source="f6zjzgeKIcA1bJwIyQVp-14" target="f6zjzgeKIcA1bJwIyQVp-16">
          <mxGeometry relative="1" as="geometry" />
        </mxCell>
        <mxCell id="f6zjzgeKIcA1bJwIyQVp-14" value="React.createElememt(&quot;div&quot;, {&amp;nbsp; }, Array(3))" style="whiteSpace=wrap;html=1;" vertex="1" parent="1">
          <mxGeometry x="710" y="480" width="240" height="40" as="geometry" />
        </mxCell>
        <mxCell id="f6zjzgeKIcA1bJwIyQVp-15" style="edgeStyle=orthogonalEdgeStyle;rounded=0;orthogonalLoop=1;jettySize=auto;html=1;exitX=0.5;exitY=1;exitDx=0;exitDy=0;entryX=0.5;entryY=0;entryDx=0;entryDy=0;" edge="1" parent="1" source="f6zjzgeKIcA1bJwIyQVp-16" target="f6zjzgeKIcA1bJwIyQVp-18">
          <mxGeometry relative="1" as="geometry" />
        </mxCell>
        <mxCell id="f6zjzgeKIcA1bJwIyQVp-16" value="InDependState({ })" style="whiteSpace=wrap;html=1;" vertex="1" parent="1">
          <mxGeometry x="770" y="560" width="120" height="40" as="geometry" />
        </mxCell>
        <mxCell id="f6zjzgeKIcA1bJwIyQVp-17" style="edgeStyle=orthogonalEdgeStyle;rounded=0;orthogonalLoop=1;jettySize=auto;html=1;exitX=0.5;exitY=1;exitDx=0;exitDy=0;entryX=0.5;entryY=0;entryDx=0;entryDy=0;" edge="1" parent="1" source="f6zjzgeKIcA1bJwIyQVp-18" target="f6zjzgeKIcA1bJwIyQVp-20">
          <mxGeometry relative="1" as="geometry" />
        </mxCell>
        <mxCell id="f6zjzgeKIcA1bJwIyQVp-18" value="React.createElememt(&quot;p&quot;, {&amp;nbsp; }, &quot;render something ...&quot;)" style="whiteSpace=wrap;html=1;" vertex="1" parent="1">
          <mxGeometry x="670" y="640" width="320" height="40" as="geometry" />
        </mxCell>
        <mxCell id="f6zjzgeKIcA1bJwIyQVp-19" style="edgeStyle=orthogonalEdgeStyle;rounded=0;orthogonalLoop=1;jettySize=auto;html=1;exitX=0.5;exitY=1;exitDx=0;exitDy=0;entryX=0.5;entryY=0;entryDx=0;entryDy=0;" edge="1" parent="1" source="f6zjzgeKIcA1bJwIyQVp-20" target="f6zjzgeKIcA1bJwIyQVp-21">
          <mxGeometry relative="1" as="geometry" />
        </mxCell>
        <mxCell id="f6zjzgeKIcA1bJwIyQVp-20" value="DependState({ count: 0 })" style="whiteSpace=wrap;html=1;" vertex="1" parent="1">
          <mxGeometry x="750" y="720" width="160" height="40" as="geometry" />
        </mxCell>
        <mxCell id="f6zjzgeKIcA1bJwIyQVp-21" value="React.createElememt(&quot;span&quot;, {&amp;nbsp; }, [0, &quot; - even&quot;])" style="whiteSpace=wrap;html=1;" vertex="1" parent="1">
          <mxGeometry x="670" y="800" width="320" height="40" as="geometry" />
        </mxCell>
        <mxCell id="aKcbsCWvxwMWKEv1L4h--1" value="" style="endArrow=none;dashed=1;html=1;dashPattern=1 3;strokeWidth=2;rounded=0;" edge="1" parent="1">
          <mxGeometry width="50" height="50" relative="1" as="geometry">
            <mxPoint x="40" y="880" as="sourcePoint" />
            <mxPoint x="1200" y="880" as="targetPoint" />
          </mxGeometry>
        </mxCell>
      </root>
    </mxGraphModel>
  </diagram>
  <diagram id="PPUbvb1CdgppsN8YTWVR" name="1. tạo FiberRootNode và HostRoot + 2. Schedule">
    <mxGraphModel dx="1107" dy="1590" grid="1" gridSize="10" guides="1" tooltips="1" connect="1" arrows="1" fold="1" page="1" pageScale="1" pageWidth="827" pageHeight="1169" math="0" shadow="0">
      <root>
        <mxCell id="0" />
        <mxCell id="1" parent="0" />
        <mxCell id="ZqtJMpGbPCC37an2Vq13-5" style="edgeStyle=orthogonalEdgeStyle;rounded=0;orthogonalLoop=1;jettySize=auto;html=1;exitX=0.5;exitY=1;exitDx=0;exitDy=0;entryX=0.5;entryY=0;entryDx=0;entryDy=0;" edge="1" parent="1" source="aQecm-D7x7bHGK9XEeG6-1" target="ZqtJMpGbPCC37an2Vq13-4">
          <mxGeometry relative="1" as="geometry" />
        </mxCell>
        <mxCell id="ZqtJMpGbPCC37an2Vq13-8" value="updateQueue" style="edgeLabel;html=1;align=center;verticalAlign=middle;resizable=0;points=[];" vertex="1" connectable="0" parent="ZqtJMpGbPCC37an2Vq13-5">
          <mxGeometry x="-0.0908" y="-1" relative="1" as="geometry">
            <mxPoint as="offset" />
          </mxGeometry>
        </mxCell>
        <mxCell id="ZqtJMpGbPCC37an2Vq13-6" style="edgeStyle=orthogonalEdgeStyle;rounded=0;orthogonalLoop=1;jettySize=auto;html=1;exitX=1;exitY=0.5;exitDx=0;exitDy=0;entryX=0;entryY=0.5;entryDx=0;entryDy=0;" edge="1" parent="1" source="aQecm-D7x7bHGK9XEeG6-1" target="ZqtJMpGbPCC37an2Vq13-2">
          <mxGeometry relative="1" as="geometry" />
        </mxCell>
        <mxCell id="ZqtJMpGbPCC37an2Vq13-7" value="memoizedState" style="edgeLabel;html=1;align=center;verticalAlign=middle;resizable=0;points=[];" vertex="1" connectable="0" parent="ZqtJMpGbPCC37an2Vq13-6">
          <mxGeometry x="-0.0566" relative="1" as="geometry">
            <mxPoint as="offset" />
          </mxGeometry>
        </mxCell>
        <mxCell id="PmDOpu8ETGhx8bCeG-4k-2" style="edgeStyle=orthogonalEdgeStyle;rounded=0;orthogonalLoop=1;jettySize=auto;html=1;exitX=0.5;exitY=0;exitDx=0;exitDy=0;entryX=0.5;entryY=1;entryDx=0;entryDy=0;" edge="1" parent="1" source="aQecm-D7x7bHGK9XEeG6-1" target="PmDOpu8ETGhx8bCeG-4k-1">
          <mxGeometry relative="1" as="geometry" />
        </mxCell>
        <mxCell id="PmDOpu8ETGhx8bCeG-4k-3" value="callbackNode" style="edgeLabel;html=1;align=center;verticalAlign=middle;resizable=0;points=[];" vertex="1" connectable="0" parent="PmDOpu8ETGhx8bCeG-4k-2">
          <mxGeometry x="0.0433" y="1" relative="1" as="geometry">
            <mxPoint x="1" y="7" as="offset" />
          </mxGeometry>
        </mxCell>
        <mxCell id="aQecm-D7x7bHGK9XEeG6-1" value="HostRoot&lt;br&gt;&lt;div&gt;&lt;br&gt;&lt;/div&gt;&lt;div&gt;pendingProps = null&lt;/div&gt;&lt;div&gt;stateNode = FiberRoot&lt;/div&gt;" style="whiteSpace=wrap;html=1;" vertex="1" parent="1">
          <mxGeometry x="198" y="90" width="200" height="120" as="geometry" />
        </mxCell>
        <mxCell id="ZqtJMpGbPCC37an2Vq13-2" value="&lt;div&gt;element = null&lt;/div&gt;" style="whiteSpace=wrap;html=1;" vertex="1" parent="1">
          <mxGeometry x="534" y="120" width="140" height="65" as="geometry" />
        </mxCell>
        <mxCell id="ZqtJMpGbPCC37an2Vq13-9" style="edgeStyle=orthogonalEdgeStyle;rounded=0;orthogonalLoop=1;jettySize=auto;html=1;exitX=1.004;exitY=0.173;exitDx=0;exitDy=0;entryX=0.5;entryY=1;entryDx=0;entryDy=0;exitPerimeter=0;" edge="1" parent="1" source="ZqtJMpGbPCC37an2Vq13-4" target="ZqtJMpGbPCC37an2Vq13-2">
          <mxGeometry relative="1" as="geometry" />
        </mxCell>
        <mxCell id="ZqtJMpGbPCC37an2Vq13-10" value="&lt;span style=&quot;font-size: 12px; text-wrap-mode: wrap; background-color: rgb(251, 251, 251);&quot;&gt;baseState&lt;/span&gt;" style="edgeLabel;html=1;align=center;verticalAlign=middle;resizable=0;points=[];" vertex="1" connectable="0" parent="ZqtJMpGbPCC37an2Vq13-9">
          <mxGeometry x="-0.4006" y="1" relative="1" as="geometry">
            <mxPoint as="offset" />
          </mxGeometry>
        </mxCell>
        <mxCell id="ZqtJMpGbPCC37an2Vq13-12" style="edgeStyle=orthogonalEdgeStyle;rounded=0;orthogonalLoop=1;jettySize=auto;html=1;exitX=1;exitY=0.5;exitDx=0;exitDy=0;entryX=0;entryY=0.5;entryDx=0;entryDy=0;" edge="1" parent="1" source="ZqtJMpGbPCC37an2Vq13-4" target="ZqtJMpGbPCC37an2Vq13-11">
          <mxGeometry relative="1" as="geometry" />
        </mxCell>
        <mxCell id="ZqtJMpGbPCC37an2Vq13-13" value="shared" style="edgeLabel;html=1;align=center;verticalAlign=middle;resizable=0;points=[];" vertex="1" connectable="0" parent="ZqtJMpGbPCC37an2Vq13-12">
          <mxGeometry x="-0.0845" relative="1" as="geometry">
            <mxPoint as="offset" />
          </mxGeometry>
        </mxCell>
        <mxCell id="ZqtJMpGbPCC37an2Vq13-4" value="&lt;div&gt;&lt;span style=&quot;background-color: initial;&quot;&gt;firstBaseUpdate = null&lt;/span&gt;&lt;/div&gt;&lt;div&gt;lastBaseUpdate = nulll&lt;/div&gt;" style="whiteSpace=wrap;html=1;" vertex="1" parent="1">
          <mxGeometry x="180" y="270" width="236" height="110" as="geometry" />
        </mxCell>
        <mxCell id="Yyvj0HbkjZxuHcRaaDpe-6" style="edgeStyle=orthogonalEdgeStyle;rounded=0;orthogonalLoop=1;jettySize=auto;html=1;exitX=1;exitY=0.25;exitDx=0;exitDy=0;entryX=0;entryY=0.5;entryDx=0;entryDy=0;" edge="1" parent="1" source="ZqtJMpGbPCC37an2Vq13-11" target="ODZ5TrtC73_-lPwpMEUA-1">
          <mxGeometry relative="1" as="geometry" />
        </mxCell>
        <mxCell id="Yyvj0HbkjZxuHcRaaDpe-7" value="interleaved" style="edgeLabel;html=1;align=center;verticalAlign=middle;resizable=0;points=[];" vertex="1" connectable="0" parent="Yyvj0HbkjZxuHcRaaDpe-6">
          <mxGeometry x="-0.1657" y="1" relative="1" as="geometry">
            <mxPoint as="offset" />
          </mxGeometry>
        </mxCell>
        <mxCell id="ZqtJMpGbPCC37an2Vq13-11" value="&lt;div&gt;queue&lt;/div&gt;&lt;div&gt;&lt;br&gt;&lt;/div&gt;pendding = null&lt;span style=&quot;background-color: initial;&quot;&gt;l&lt;/span&gt;" style="whiteSpace=wrap;html=1;" vertex="1" parent="1">
          <mxGeometry x="534" y="330" width="120" height="60" as="geometry" />
        </mxCell>
        <mxCell id="8NHlF0cl0Q5PCEyITqkk-1" value="FiberRootNode&lt;div&gt;&lt;span style=&quot;background-color: initial;&quot;&gt;&amp;nbsp;&lt;/span&gt;&lt;/div&gt;&lt;div&gt;containerInfo = main#root&lt;/div&gt;&lt;div&gt;finishedWork = null&lt;/div&gt;" style="whiteSpace=wrap;html=1;" vertex="1" parent="1">
          <mxGeometry x="200" y="-320" width="200" height="120" as="geometry" />
        </mxCell>
        <mxCell id="umBdkaWvCWHdhqFFcdRI-1" style="edgeStyle=orthogonalEdgeStyle;rounded=0;orthogonalLoop=1;jettySize=auto;html=1;exitX=1;exitY=0.5;exitDx=0;exitDy=0;entryX=0;entryY=0.5;entryDx=0;entryDy=0;" edge="1" parent="1" source="ODZ5TrtC73_-lPwpMEUA-1" target="ODZ5TrtC73_-lPwpMEUA-2">
          <mxGeometry relative="1" as="geometry" />
        </mxCell>
        <mxCell id="umBdkaWvCWHdhqFFcdRI-2" value="payload" style="edgeLabel;html=1;align=center;verticalAlign=middle;resizable=0;points=[];" vertex="1" connectable="0" parent="umBdkaWvCWHdhqFFcdRI-1">
          <mxGeometry x="-0.0947" y="1" relative="1" as="geometry">
            <mxPoint as="offset" />
          </mxGeometry>
        </mxCell>
        <mxCell id="ODZ5TrtC73_-lPwpMEUA-1" value="update&lt;div&gt;&lt;br&gt;&lt;/div&gt;&lt;div&gt;tag: UpdateState = 0&lt;/div&gt;&lt;div&gt;callback&lt;/div&gt;&lt;div&gt;next&lt;/div&gt;" style="whiteSpace=wrap;html=1;" vertex="1" parent="1">
          <mxGeometry x="754" y="290" width="180" height="110" as="geometry" />
        </mxCell>
        <mxCell id="ODZ5TrtC73_-lPwpMEUA-2" value="element = App ReactNodeList" style="whiteSpace=wrap;html=1;" vertex="1" parent="1">
          <mxGeometry x="1014" y="315" width="200" height="60" as="geometry" />
        </mxCell>
        <mxCell id="Yyvj0HbkjZxuHcRaaDpe-1" style="edgeStyle=orthogonalEdgeStyle;rounded=0;orthogonalLoop=1;jettySize=auto;html=1;exitX=0.5;exitY=1;exitDx=0;exitDy=0;entryX=1;entryY=0.75;entryDx=0;entryDy=0;" edge="1" parent="1" source="ODZ5TrtC73_-lPwpMEUA-1" target="ODZ5TrtC73_-lPwpMEUA-1">
          <mxGeometry relative="1" as="geometry" />
        </mxCell>
        <mxCell id="Yyvj0HbkjZxuHcRaaDpe-2" value="next" style="edgeLabel;html=1;align=center;verticalAlign=middle;resizable=0;points=[];" vertex="1" connectable="0" parent="Yyvj0HbkjZxuHcRaaDpe-1">
          <mxGeometry x="-0.3145" y="2" relative="1" as="geometry">
            <mxPoint as="offset" />
          </mxGeometry>
        </mxCell>
        <mxCell id="Yyvj0HbkjZxuHcRaaDpe-3" value="concurrentQueues" style="whiteSpace=wrap;html=1;" vertex="1" parent="1">
          <mxGeometry x="180" y="420" width="170" height="60" as="geometry" />
        </mxCell>
        <mxCell id="Yyvj0HbkjZxuHcRaaDpe-4" style="edgeStyle=orthogonalEdgeStyle;rounded=0;orthogonalLoop=1;jettySize=auto;html=1;exitX=1;exitY=0.5;exitDx=0;exitDy=0;entryX=0.182;entryY=1.019;entryDx=0;entryDy=0;entryPerimeter=0;" edge="1" parent="1" source="Yyvj0HbkjZxuHcRaaDpe-3" target="ZqtJMpGbPCC37an2Vq13-11">
          <mxGeometry relative="1" as="geometry" />
        </mxCell>
        <mxCell id="Yyvj0HbkjZxuHcRaaDpe-5" value="[0]" style="edgeLabel;html=1;align=center;verticalAlign=middle;resizable=0;points=[];" vertex="1" connectable="0" parent="Yyvj0HbkjZxuHcRaaDpe-4">
          <mxGeometry x="-0.1925" y="4" relative="1" as="geometry">
            <mxPoint as="offset" />
          </mxGeometry>
        </mxCell>
        <mxCell id="PmDOpu8ETGhx8bCeG-4k-1" value="callback = f performConcurrentWorkOnRoot.bind(null, FiberRootNode)" style="whiteSpace=wrap;html=1;" vertex="1" parent="1">
          <mxGeometry x="90" y="-40" width="416" height="60" as="geometry" />
        </mxCell>
        <mxCell id="PmDOpu8ETGhx8bCeG-4k-4" value="" style="endArrow=none;dashed=1;html=1;rounded=0;" edge="1" parent="1">
          <mxGeometry width="50" height="50" relative="1" as="geometry">
            <mxPoint x="80" y="-120" as="sourcePoint" />
            <mxPoint x="1620" y="-120" as="targetPoint" />
          </mxGeometry>
        </mxCell>
        <mxCell id="HkwnViW5sYfuuA7mVzwt-1" style="edgeStyle=orthogonalEdgeStyle;rounded=0;orthogonalLoop=1;jettySize=auto;html=1;exitX=0.5;exitY=1;exitDx=0;exitDy=0;entryX=0.5;entryY=0;entryDx=0;entryDy=0;" edge="1" parent="1" source="HkwnViW5sYfuuA7mVzwt-3" target="HkwnViW5sYfuuA7mVzwt-4">
          <mxGeometry relative="1" as="geometry" />
        </mxCell>
        <mxCell id="HkwnViW5sYfuuA7mVzwt-2" value="current" style="edgeLabel;html=1;align=center;verticalAlign=middle;resizable=0;points=[];" vertex="1" connectable="0" parent="HkwnViW5sYfuuA7mVzwt-1">
          <mxGeometry x="0.0342" y="-1" relative="1" as="geometry">
            <mxPoint as="offset" />
          </mxGeometry>
        </mxCell>
        <mxCell id="HkwnViW5sYfuuA7mVzwt-3" value="FiberRootNode" style="whiteSpace=wrap;html=1;" vertex="1" parent="1">
          <mxGeometry x="120" y="720" width="160" height="80" as="geometry" />
        </mxCell>
        <mxCell id="HkwnViW5sYfuuA7mVzwt-4" value="HostRoot&lt;div&gt;&lt;br&gt;&lt;div&gt;stateNode = FiberRoot&lt;/div&gt;&lt;/div&gt;" style="whiteSpace=wrap;html=1;" vertex="1" parent="1">
          <mxGeometry x="120" y="840" width="160" height="80" as="geometry" />
        </mxCell>
        <mxCell id="HkwnViW5sYfuuA7mVzwt-5" value="" style="endArrow=none;dashed=1;html=1;dashPattern=1 3;strokeWidth=2;rounded=0;" edge="1" parent="1">
          <mxGeometry width="50" height="50" relative="1" as="geometry">
            <mxPoint x="30" y="560" as="sourcePoint" />
            <mxPoint x="1640" y="560" as="targetPoint" />
          </mxGeometry>
        </mxCell>
        <mxCell id="HkwnViW5sYfuuA7mVzwt-9" value="Fiber tree" style="rounded=0;whiteSpace=wrap;html=1;" vertex="1" parent="1">
          <mxGeometry x="80" y="620" width="120" height="60" as="geometry" />
        </mxCell>
      </root>
    </mxGraphModel>
  </diagram>
  <diagram name="3. render" id="tCcJShXvDSYVlZG7jPYB">
    <mxGraphModel dx="2416" dy="1927" grid="1" gridSize="10" guides="1" tooltips="1" connect="1" arrows="1" fold="1" page="1" pageScale="1" pageWidth="827" pageHeight="1169" math="0" shadow="0">
      <root>
        <mxCell id="_WAYt0JG0GX0LKAkZ0ER-0" />
        <mxCell id="_WAYt0JG0GX0LKAkZ0ER-1" parent="_WAYt0JG0GX0LKAkZ0ER-0" />
        <mxCell id="_WAYt0JG0GX0LKAkZ0ER-2" style="edgeStyle=orthogonalEdgeStyle;rounded=0;orthogonalLoop=1;jettySize=auto;html=1;exitX=0.5;exitY=1;exitDx=0;exitDy=0;entryX=0.5;entryY=0;entryDx=0;entryDy=0;" edge="1" parent="_WAYt0JG0GX0LKAkZ0ER-1" source="_WAYt0JG0GX0LKAkZ0ER-8" target="_WAYt0JG0GX0LKAkZ0ER-14">
          <mxGeometry relative="1" as="geometry" />
        </mxCell>
        <mxCell id="_WAYt0JG0GX0LKAkZ0ER-3" value="updateQueue" style="edgeLabel;html=1;align=center;verticalAlign=middle;resizable=0;points=[];" vertex="1" connectable="0" parent="_WAYt0JG0GX0LKAkZ0ER-2">
          <mxGeometry x="-0.0908" y="-1" relative="1" as="geometry">
            <mxPoint as="offset" />
          </mxGeometry>
        </mxCell>
        <mxCell id="_WAYt0JG0GX0LKAkZ0ER-4" style="edgeStyle=orthogonalEdgeStyle;rounded=0;orthogonalLoop=1;jettySize=auto;html=1;exitX=1;exitY=0.5;exitDx=0;exitDy=0;entryX=0;entryY=0.5;entryDx=0;entryDy=0;" edge="1" parent="_WAYt0JG0GX0LKAkZ0ER-1" source="_WAYt0JG0GX0LKAkZ0ER-8" target="_WAYt0JG0GX0LKAkZ0ER-9">
          <mxGeometry relative="1" as="geometry" />
        </mxCell>
        <mxCell id="_WAYt0JG0GX0LKAkZ0ER-5" value="memoizedState" style="edgeLabel;html=1;align=center;verticalAlign=middle;resizable=0;points=[];" vertex="1" connectable="0" parent="_WAYt0JG0GX0LKAkZ0ER-4">
          <mxGeometry x="-0.0566" relative="1" as="geometry">
            <mxPoint as="offset" />
          </mxGeometry>
        </mxCell>
        <mxCell id="_WAYt0JG0GX0LKAkZ0ER-6" style="edgeStyle=orthogonalEdgeStyle;rounded=0;orthogonalLoop=1;jettySize=auto;html=1;exitX=0.5;exitY=0;exitDx=0;exitDy=0;entryX=0.5;entryY=1;entryDx=0;entryDy=0;" edge="1" parent="_WAYt0JG0GX0LKAkZ0ER-1" source="_WAYt0JG0GX0LKAkZ0ER-8" target="_WAYt0JG0GX0LKAkZ0ER-28">
          <mxGeometry relative="1" as="geometry" />
        </mxCell>
        <mxCell id="_WAYt0JG0GX0LKAkZ0ER-7" value="callbackNode" style="edgeLabel;html=1;align=center;verticalAlign=middle;resizable=0;points=[];" vertex="1" connectable="0" parent="_WAYt0JG0GX0LKAkZ0ER-6">
          <mxGeometry x="0.0433" y="1" relative="1" as="geometry">
            <mxPoint x="1" y="7" as="offset" />
          </mxGeometry>
        </mxCell>
        <mxCell id="_WAYt0JG0GX0LKAkZ0ER-8" value="HostRoot&lt;br&gt;&lt;div&gt;&lt;br&gt;&lt;/div&gt;&lt;div&gt;memoizedProps = null&lt;/div&gt;&lt;div&gt;pendingProps = null&lt;/div&gt;&lt;div&gt;stateNode = FiberRoot&lt;/div&gt;" style="whiteSpace=wrap;html=1;" vertex="1" parent="_WAYt0JG0GX0LKAkZ0ER-1">
          <mxGeometry x="198" y="90" width="200" height="120" as="geometry" />
        </mxCell>
        <mxCell id="_WAYt0JG0GX0LKAkZ0ER-9" value="&lt;div&gt;element = null&lt;/div&gt;" style="whiteSpace=wrap;html=1;" vertex="1" parent="_WAYt0JG0GX0LKAkZ0ER-1">
          <mxGeometry x="534" y="120" width="140" height="65" as="geometry" />
        </mxCell>
        <mxCell id="_WAYt0JG0GX0LKAkZ0ER-10" style="edgeStyle=orthogonalEdgeStyle;rounded=0;orthogonalLoop=1;jettySize=auto;html=1;exitX=1.004;exitY=0.173;exitDx=0;exitDy=0;entryX=0.5;entryY=1;entryDx=0;entryDy=0;exitPerimeter=0;" edge="1" parent="_WAYt0JG0GX0LKAkZ0ER-1" source="_WAYt0JG0GX0LKAkZ0ER-14" target="_WAYt0JG0GX0LKAkZ0ER-9">
          <mxGeometry relative="1" as="geometry" />
        </mxCell>
        <mxCell id="_WAYt0JG0GX0LKAkZ0ER-11" value="&lt;span style=&quot;font-size: 12px; text-wrap-mode: wrap; background-color: rgb(251, 251, 251);&quot;&gt;baseState&lt;/span&gt;" style="edgeLabel;html=1;align=center;verticalAlign=middle;resizable=0;points=[];" vertex="1" connectable="0" parent="_WAYt0JG0GX0LKAkZ0ER-10">
          <mxGeometry x="-0.4006" y="1" relative="1" as="geometry">
            <mxPoint as="offset" />
          </mxGeometry>
        </mxCell>
        <mxCell id="_WAYt0JG0GX0LKAkZ0ER-12" style="edgeStyle=orthogonalEdgeStyle;rounded=0;orthogonalLoop=1;jettySize=auto;html=1;exitX=1;exitY=0.5;exitDx=0;exitDy=0;entryX=0;entryY=0.5;entryDx=0;entryDy=0;" edge="1" parent="_WAYt0JG0GX0LKAkZ0ER-1" source="_WAYt0JG0GX0LKAkZ0ER-14" target="_WAYt0JG0GX0LKAkZ0ER-17">
          <mxGeometry relative="1" as="geometry" />
        </mxCell>
        <mxCell id="_WAYt0JG0GX0LKAkZ0ER-13" value="shared" style="edgeLabel;html=1;align=center;verticalAlign=middle;resizable=0;points=[];" vertex="1" connectable="0" parent="_WAYt0JG0GX0LKAkZ0ER-12">
          <mxGeometry x="-0.0845" relative="1" as="geometry">
            <mxPoint as="offset" />
          </mxGeometry>
        </mxCell>
        <mxCell id="_WAYt0JG0GX0LKAkZ0ER-14" value="&lt;div&gt;&lt;span style=&quot;background-color: initial;&quot;&gt;firstBaseUpdate = null&lt;/span&gt;&lt;/div&gt;&lt;div&gt;lastBaseUpdate = nulll&lt;/div&gt;" style="whiteSpace=wrap;html=1;" vertex="1" parent="_WAYt0JG0GX0LKAkZ0ER-1">
          <mxGeometry x="180" y="270" width="236" height="110" as="geometry" />
        </mxCell>
        <mxCell id="_WAYt0JG0GX0LKAkZ0ER-15" style="edgeStyle=orthogonalEdgeStyle;rounded=0;orthogonalLoop=1;jettySize=auto;html=1;exitX=1;exitY=0.25;exitDx=0;exitDy=0;entryX=0;entryY=0.5;entryDx=0;entryDy=0;" edge="1" parent="_WAYt0JG0GX0LKAkZ0ER-1" source="_WAYt0JG0GX0LKAkZ0ER-17" target="_WAYt0JG0GX0LKAkZ0ER-21">
          <mxGeometry relative="1" as="geometry" />
        </mxCell>
        <mxCell id="_WAYt0JG0GX0LKAkZ0ER-16" value="pendding" style="edgeLabel;html=1;align=center;verticalAlign=middle;resizable=0;points=[];" vertex="1" connectable="0" parent="_WAYt0JG0GX0LKAkZ0ER-15">
          <mxGeometry x="-0.1657" y="1" relative="1" as="geometry">
            <mxPoint as="offset" />
          </mxGeometry>
        </mxCell>
        <mxCell id="_WAYt0JG0GX0LKAkZ0ER-17" value="&lt;div&gt;queue&lt;/div&gt;&lt;div&gt;&lt;br&gt;&lt;/div&gt;interleaved = null&lt;span style=&quot;background-color: initial;&quot;&gt;l&lt;/span&gt;" style="whiteSpace=wrap;html=1;" vertex="1" parent="_WAYt0JG0GX0LKAkZ0ER-1">
          <mxGeometry x="534" y="330" width="120" height="60" as="geometry" />
        </mxCell>
        <mxCell id="_WAYt0JG0GX0LKAkZ0ER-18" value="FiberRootNode&lt;div&gt;&lt;span style=&quot;background-color: initial;&quot;&gt;&amp;nbsp;&lt;/span&gt;&lt;/div&gt;&lt;div&gt;containerInfo = main#root&lt;/div&gt;&lt;div&gt;finishedWork = HostRoot current&lt;/div&gt;" style="whiteSpace=wrap;html=1;" vertex="1" parent="_WAYt0JG0GX0LKAkZ0ER-1">
          <mxGeometry x="200" y="-320" width="200" height="120" as="geometry" />
        </mxCell>
        <mxCell id="_WAYt0JG0GX0LKAkZ0ER-19" style="edgeStyle=orthogonalEdgeStyle;rounded=0;orthogonalLoop=1;jettySize=auto;html=1;exitX=1;exitY=0.5;exitDx=0;exitDy=0;entryX=0;entryY=0.5;entryDx=0;entryDy=0;" edge="1" parent="_WAYt0JG0GX0LKAkZ0ER-1" source="_WAYt0JG0GX0LKAkZ0ER-21" target="_WAYt0JG0GX0LKAkZ0ER-22">
          <mxGeometry relative="1" as="geometry" />
        </mxCell>
        <mxCell id="_WAYt0JG0GX0LKAkZ0ER-20" value="payload" style="edgeLabel;html=1;align=center;verticalAlign=middle;resizable=0;points=[];" vertex="1" connectable="0" parent="_WAYt0JG0GX0LKAkZ0ER-19">
          <mxGeometry x="-0.0947" y="1" relative="1" as="geometry">
            <mxPoint as="offset" />
          </mxGeometry>
        </mxCell>
        <mxCell id="_WAYt0JG0GX0LKAkZ0ER-21" value="update&lt;div&gt;&lt;br&gt;&lt;/div&gt;&lt;div&gt;tag: UpdateState = 0&lt;/div&gt;&lt;div&gt;callback&lt;/div&gt;" style="whiteSpace=wrap;html=1;" vertex="1" parent="_WAYt0JG0GX0LKAkZ0ER-1">
          <mxGeometry x="754" y="290" width="180" height="110" as="geometry" />
        </mxCell>
        <mxCell id="_WAYt0JG0GX0LKAkZ0ER-22" value="element = App ReactNodeList" style="whiteSpace=wrap;html=1;" vertex="1" parent="_WAYt0JG0GX0LKAkZ0ER-1">
          <mxGeometry x="1014" y="315" width="200" height="60" as="geometry" />
        </mxCell>
        <mxCell id="_WAYt0JG0GX0LKAkZ0ER-25" value="concurrentQueues = null" style="whiteSpace=wrap;html=1;" vertex="1" parent="_WAYt0JG0GX0LKAkZ0ER-1">
          <mxGeometry x="180" y="420" width="170" height="60" as="geometry" />
        </mxCell>
        <mxCell id="_WAYt0JG0GX0LKAkZ0ER-28" value="callback = null" style="whiteSpace=wrap;html=1;" vertex="1" parent="_WAYt0JG0GX0LKAkZ0ER-1">
          <mxGeometry x="90" y="-40" width="416" height="60" as="geometry" />
        </mxCell>
        <mxCell id="_WAYt0JG0GX0LKAkZ0ER-29" value="" style="endArrow=none;dashed=1;html=1;rounded=0;" edge="1" parent="_WAYt0JG0GX0LKAkZ0ER-1">
          <mxGeometry width="50" height="50" relative="1" as="geometry">
            <mxPoint x="70" y="-160" as="sourcePoint" />
            <mxPoint x="1620" y="-160" as="targetPoint" />
          </mxGeometry>
        </mxCell>
        <mxCell id="_WAYt0JG0GX0LKAkZ0ER-30" style="edgeStyle=orthogonalEdgeStyle;rounded=0;orthogonalLoop=1;jettySize=auto;html=1;exitX=0.5;exitY=1;exitDx=0;exitDy=0;entryX=0.5;entryY=0;entryDx=0;entryDy=0;" edge="1" parent="_WAYt0JG0GX0LKAkZ0ER-1" source="_WAYt0JG0GX0LKAkZ0ER-32" target="_WAYt0JG0GX0LKAkZ0ER-33">
          <mxGeometry relative="1" as="geometry" />
        </mxCell>
        <mxCell id="_WAYt0JG0GX0LKAkZ0ER-31" value="current" style="edgeLabel;html=1;align=center;verticalAlign=middle;resizable=0;points=[];" vertex="1" connectable="0" parent="_WAYt0JG0GX0LKAkZ0ER-30">
          <mxGeometry x="0.0342" y="-1" relative="1" as="geometry">
            <mxPoint as="offset" />
          </mxGeometry>
        </mxCell>
        <mxCell id="73TRKlbqNp6dbFnlmx_S-2" style="edgeStyle=orthogonalEdgeStyle;rounded=0;orthogonalLoop=1;jettySize=auto;html=1;exitX=1;exitY=0.5;exitDx=0;exitDy=0;entryX=0.5;entryY=0;entryDx=0;entryDy=0;" edge="1" parent="_WAYt0JG0GX0LKAkZ0ER-1" source="_WAYt0JG0GX0LKAkZ0ER-32" target="VoN4car32EPrlCBhFRL0-5">
          <mxGeometry relative="1" as="geometry" />
        </mxCell>
        <mxCell id="73TRKlbqNp6dbFnlmx_S-3" value="finishedWork" style="edgeLabel;html=1;align=center;verticalAlign=middle;resizable=0;points=[];" vertex="1" connectable="0" parent="73TRKlbqNp6dbFnlmx_S-2">
          <mxGeometry x="-0.3058" y="1" relative="1" as="geometry">
            <mxPoint as="offset" />
          </mxGeometry>
        </mxCell>
        <mxCell id="_WAYt0JG0GX0LKAkZ0ER-32" value="FiberRootNode" style="whiteSpace=wrap;html=1;" vertex="1" parent="_WAYt0JG0GX0LKAkZ0ER-1">
          <mxGeometry x="120" y="720" width="160" height="80" as="geometry" />
        </mxCell>
        <mxCell id="VoN4car32EPrlCBhFRL0-6" style="edgeStyle=orthogonalEdgeStyle;rounded=0;orthogonalLoop=1;jettySize=auto;html=1;exitX=1;exitY=0.5;exitDx=0;exitDy=0;entryX=0;entryY=0.5;entryDx=0;entryDy=0;" edge="1" parent="_WAYt0JG0GX0LKAkZ0ER-1" source="_WAYt0JG0GX0LKAkZ0ER-33" target="VoN4car32EPrlCBhFRL0-5">
          <mxGeometry relative="1" as="geometry" />
        </mxCell>
        <mxCell id="_WAYt0JG0GX0LKAkZ0ER-33" value="HostRoot&lt;div&gt;&lt;br&gt;&lt;div&gt;stateNode = FiberRoot&lt;/div&gt;&lt;/div&gt;" style="whiteSpace=wrap;html=1;" vertex="1" parent="_WAYt0JG0GX0LKAkZ0ER-1">
          <mxGeometry x="120" y="840" width="160" height="120" as="geometry" />
        </mxCell>
        <mxCell id="_WAYt0JG0GX0LKAkZ0ER-34" value="" style="endArrow=none;dashed=1;html=1;dashPattern=1 3;strokeWidth=2;rounded=0;" edge="1" parent="_WAYt0JG0GX0LKAkZ0ER-1">
          <mxGeometry width="50" height="50" relative="1" as="geometry">
            <mxPoint x="30" y="560" as="sourcePoint" />
            <mxPoint x="1640" y="560" as="targetPoint" />
          </mxGeometry>
        </mxCell>
        <mxCell id="_WAYt0JG0GX0LKAkZ0ER-35" value="Fiber tree" style="rounded=0;whiteSpace=wrap;html=1;" vertex="1" parent="_WAYt0JG0GX0LKAkZ0ER-1">
          <mxGeometry x="40" y="560" width="120" height="60" as="geometry" />
        </mxCell>
        <mxCell id="VoN4car32EPrlCBhFRL0-4" style="edgeStyle=orthogonalEdgeStyle;rounded=0;orthogonalLoop=1;jettySize=auto;html=1;exitX=0;exitY=0.5;exitDx=0;exitDy=0;" edge="1" parent="_WAYt0JG0GX0LKAkZ0ER-1" source="VoN4car32EPrlCBhFRL0-3">
          <mxGeometry relative="1" as="geometry">
            <mxPoint x="360" y="670" as="targetPoint" />
          </mxGeometry>
        </mxCell>
        <mxCell id="VoN4car32EPrlCBhFRL0-3" value="workInProgressRoot" style="whiteSpace=wrap;html=1;" vertex="1" parent="_WAYt0JG0GX0LKAkZ0ER-1">
          <mxGeometry x="414" y="640" width="120" height="60" as="geometry" />
        </mxCell>
        <mxCell id="VoN4car32EPrlCBhFRL0-7" style="edgeStyle=orthogonalEdgeStyle;rounded=0;orthogonalLoop=1;jettySize=auto;html=1;exitX=0;exitY=0.5;exitDx=0;exitDy=0;entryX=1;entryY=0.5;entryDx=0;entryDy=0;" edge="1" parent="_WAYt0JG0GX0LKAkZ0ER-1" source="VoN4car32EPrlCBhFRL0-5" target="_WAYt0JG0GX0LKAkZ0ER-33">
          <mxGeometry relative="1" as="geometry" />
        </mxCell>
        <mxCell id="VoN4car32EPrlCBhFRL0-8" value="alternate" style="edgeLabel;html=1;align=center;verticalAlign=middle;resizable=0;points=[];" vertex="1" connectable="0" parent="VoN4car32EPrlCBhFRL0-7">
          <mxGeometry x="0.0289" y="-1" relative="1" as="geometry">
            <mxPoint as="offset" />
          </mxGeometry>
        </mxCell>
        <mxCell id="ZOgHmeimfH6huHVavOfz-1" style="edgeStyle=orthogonalEdgeStyle;rounded=0;orthogonalLoop=1;jettySize=auto;html=1;exitX=0.5;exitY=1;exitDx=0;exitDy=0;entryX=0.5;entryY=0;entryDx=0;entryDy=0;" edge="1" parent="_WAYt0JG0GX0LKAkZ0ER-1" source="VoN4car32EPrlCBhFRL0-5" target="ZOgHmeimfH6huHVavOfz-0">
          <mxGeometry relative="1" as="geometry" />
        </mxCell>
        <mxCell id="VoN4car32EPrlCBhFRL0-5" value="HostRoot&lt;div&gt;&lt;br&gt;&lt;/div&gt;&lt;div&gt;stateNode = FiberRoot&lt;/div&gt;" style="whiteSpace=wrap;html=1;" vertex="1" parent="_WAYt0JG0GX0LKAkZ0ER-1">
          <mxGeometry x="400" y="840" width="160" height="120" as="geometry" />
        </mxCell>
        <mxCell id="VoN4car32EPrlCBhFRL0-9" value="" style="endArrow=none;dashed=1;html=1;dashPattern=1 3;strokeWidth=2;rounded=0;" edge="1" parent="_WAYt0JG0GX0LKAkZ0ER-1">
          <mxGeometry width="50" height="50" relative="1" as="geometry">
            <mxPoint x="40" y="-360" as="sourcePoint" />
            <mxPoint x="1610" y="-360" as="targetPoint" />
          </mxGeometry>
        </mxCell>
        <mxCell id="VoN4car32EPrlCBhFRL0-11" style="edgeStyle=orthogonalEdgeStyle;rounded=0;orthogonalLoop=1;jettySize=auto;html=1;exitX=0.5;exitY=1;exitDx=0;exitDy=0;entryX=1;entryY=0.75;entryDx=0;entryDy=0;" edge="1" parent="_WAYt0JG0GX0LKAkZ0ER-1" source="_WAYt0JG0GX0LKAkZ0ER-21" target="_WAYt0JG0GX0LKAkZ0ER-21">
          <mxGeometry relative="1" as="geometry" />
        </mxCell>
        <mxCell id="VoN4car32EPrlCBhFRL0-12" value="next" style="edgeLabel;html=1;align=center;verticalAlign=middle;resizable=0;points=[];" vertex="1" connectable="0" parent="VoN4car32EPrlCBhFRL0-11">
          <mxGeometry x="-0.2378" y="3" relative="1" as="geometry">
            <mxPoint as="offset" />
          </mxGeometry>
        </mxCell>
        <mxCell id="sKp-pkzSfBIiFDAOhS4q-5" value="HostRoot curent" style="whiteSpace=wrap;html=1;" vertex="1" parent="_WAYt0JG0GX0LKAkZ0ER-1">
          <mxGeometry x="70" y="-160" width="120" height="60" as="geometry" />
        </mxCell>
        <mxCell id="sKp-pkzSfBIiFDAOhS4q-6" style="edgeStyle=orthogonalEdgeStyle;rounded=0;orthogonalLoop=1;jettySize=auto;html=1;exitX=0.5;exitY=1;exitDx=0;exitDy=0;entryX=0.5;entryY=0;entryDx=0;entryDy=0;" edge="1" parent="_WAYt0JG0GX0LKAkZ0ER-1" source="sKp-pkzSfBIiFDAOhS4q-12" target="sKp-pkzSfBIiFDAOhS4q-18">
          <mxGeometry relative="1" as="geometry" />
        </mxCell>
        <mxCell id="sKp-pkzSfBIiFDAOhS4q-7" value="updateQueue" style="edgeLabel;html=1;align=center;verticalAlign=middle;resizable=0;points=[];" vertex="1" connectable="0" parent="sKp-pkzSfBIiFDAOhS4q-6">
          <mxGeometry x="-0.0908" y="-1" relative="1" as="geometry">
            <mxPoint as="offset" />
          </mxGeometry>
        </mxCell>
        <mxCell id="sKp-pkzSfBIiFDAOhS4q-10" style="edgeStyle=orthogonalEdgeStyle;rounded=0;orthogonalLoop=1;jettySize=auto;html=1;exitX=0.5;exitY=0;exitDx=0;exitDy=0;entryX=0.5;entryY=1;entryDx=0;entryDy=0;" edge="1" parent="_WAYt0JG0GX0LKAkZ0ER-1" source="sKp-pkzSfBIiFDAOhS4q-12" target="sKp-pkzSfBIiFDAOhS4q-27">
          <mxGeometry relative="1" as="geometry" />
        </mxCell>
        <mxCell id="sKp-pkzSfBIiFDAOhS4q-11" value="callbackNode" style="edgeLabel;html=1;align=center;verticalAlign=middle;resizable=0;points=[];" vertex="1" connectable="0" parent="sKp-pkzSfBIiFDAOhS4q-10">
          <mxGeometry x="0.0433" y="1" relative="1" as="geometry">
            <mxPoint x="1" y="7" as="offset" />
          </mxGeometry>
        </mxCell>
        <mxCell id="iXIGHptzbcHxjj1jom70-20" style="edgeStyle=orthogonalEdgeStyle;rounded=0;orthogonalLoop=1;jettySize=auto;html=1;exitX=1;exitY=0.5;exitDx=0;exitDy=0;" edge="1" parent="_WAYt0JG0GX0LKAkZ0ER-1" source="sKp-pkzSfBIiFDAOhS4q-12" target="iXIGHptzbcHxjj1jom70-2">
          <mxGeometry relative="1" as="geometry" />
        </mxCell>
        <mxCell id="iXIGHptzbcHxjj1jom70-21" value="memoizedState" style="edgeLabel;html=1;align=center;verticalAlign=middle;resizable=0;points=[];" vertex="1" connectable="0" parent="iXIGHptzbcHxjj1jom70-20">
          <mxGeometry x="-0.5951" y="1" relative="1" as="geometry">
            <mxPoint as="offset" />
          </mxGeometry>
        </mxCell>
        <mxCell id="sKp-pkzSfBIiFDAOhS4q-12" value="HostRoot&lt;br&gt;&lt;div&gt;&lt;br&gt;&lt;/div&gt;&lt;div&gt;pendingProps = null&lt;/div&gt;&lt;div&gt;stateNode = FiberRoot&lt;/div&gt;" style="whiteSpace=wrap;html=1;" vertex="1" parent="_WAYt0JG0GX0LKAkZ0ER-1">
          <mxGeometry x="198" y="-840" width="200" height="120" as="geometry" />
        </mxCell>
        <mxCell id="sKp-pkzSfBIiFDAOhS4q-13" value="&lt;div&gt;element = &amp;lt;App /&amp;gt;&lt;/div&gt;" style="whiteSpace=wrap;html=1;" vertex="1" parent="_WAYt0JG0GX0LKAkZ0ER-1">
          <mxGeometry x="534" y="-760" width="140" height="65" as="geometry" />
        </mxCell>
        <mxCell id="sKp-pkzSfBIiFDAOhS4q-14" style="edgeStyle=orthogonalEdgeStyle;rounded=0;orthogonalLoop=1;jettySize=auto;html=1;exitX=1.004;exitY=0.173;exitDx=0;exitDy=0;entryX=0.5;entryY=1;entryDx=0;entryDy=0;exitPerimeter=0;" edge="1" parent="_WAYt0JG0GX0LKAkZ0ER-1" source="sKp-pkzSfBIiFDAOhS4q-18" target="sKp-pkzSfBIiFDAOhS4q-13">
          <mxGeometry relative="1" as="geometry" />
        </mxCell>
        <mxCell id="sKp-pkzSfBIiFDAOhS4q-15" value="&lt;span style=&quot;font-size: 12px; text-wrap-mode: wrap; background-color: rgb(251, 251, 251);&quot;&gt;baseState&lt;/span&gt;" style="edgeLabel;html=1;align=center;verticalAlign=middle;resizable=0;points=[];" vertex="1" connectable="0" parent="sKp-pkzSfBIiFDAOhS4q-14">
          <mxGeometry x="-0.4006" y="1" relative="1" as="geometry">
            <mxPoint as="offset" />
          </mxGeometry>
        </mxCell>
        <mxCell id="sKp-pkzSfBIiFDAOhS4q-16" style="edgeStyle=orthogonalEdgeStyle;rounded=0;orthogonalLoop=1;jettySize=auto;html=1;exitX=1;exitY=0.5;exitDx=0;exitDy=0;entryX=0;entryY=0.5;entryDx=0;entryDy=0;" edge="1" parent="_WAYt0JG0GX0LKAkZ0ER-1" source="sKp-pkzSfBIiFDAOhS4q-18" target="sKp-pkzSfBIiFDAOhS4q-21">
          <mxGeometry relative="1" as="geometry" />
        </mxCell>
        <mxCell id="sKp-pkzSfBIiFDAOhS4q-17" value="shared" style="edgeLabel;html=1;align=center;verticalAlign=middle;resizable=0;points=[];" vertex="1" connectable="0" parent="sKp-pkzSfBIiFDAOhS4q-16">
          <mxGeometry x="-0.0845" relative="1" as="geometry">
            <mxPoint as="offset" />
          </mxGeometry>
        </mxCell>
        <mxCell id="sKp-pkzSfBIiFDAOhS4q-18" value="&lt;div&gt;&lt;span style=&quot;background-color: initial;&quot;&gt;firstBaseUpdate = null&lt;/span&gt;&lt;/div&gt;&lt;div&gt;lastBaseUpdate = nulll&lt;/div&gt;" style="whiteSpace=wrap;html=1;" vertex="1" parent="_WAYt0JG0GX0LKAkZ0ER-1">
          <mxGeometry x="180" y="-660" width="236" height="110" as="geometry" />
        </mxCell>
        <mxCell id="sKp-pkzSfBIiFDAOhS4q-19" style="edgeStyle=orthogonalEdgeStyle;rounded=0;orthogonalLoop=1;jettySize=auto;html=1;exitX=1;exitY=0.75;exitDx=0;exitDy=0;entryX=0;entryY=0.5;entryDx=0;entryDy=0;" edge="1" parent="_WAYt0JG0GX0LKAkZ0ER-1" source="sKp-pkzSfBIiFDAOhS4q-21" target="sKp-pkzSfBIiFDAOhS4q-24">
          <mxGeometry relative="1" as="geometry" />
        </mxCell>
        <mxCell id="sKp-pkzSfBIiFDAOhS4q-43" value="interleaved" style="edgeLabel;html=1;align=center;verticalAlign=middle;resizable=0;points=[];" vertex="1" connectable="0" parent="sKp-pkzSfBIiFDAOhS4q-19">
          <mxGeometry x="-0.0161" y="-2" relative="1" as="geometry">
            <mxPoint as="offset" />
          </mxGeometry>
        </mxCell>
        <mxCell id="sKp-pkzSfBIiFDAOhS4q-41" style="edgeStyle=orthogonalEdgeStyle;rounded=0;orthogonalLoop=1;jettySize=auto;html=1;exitX=1;exitY=0.25;exitDx=0;exitDy=0;entryX=0;entryY=0.5;entryDx=0;entryDy=0;" edge="1" parent="_WAYt0JG0GX0LKAkZ0ER-1" source="sKp-pkzSfBIiFDAOhS4q-21" target="sKp-pkzSfBIiFDAOhS4q-39">
          <mxGeometry relative="1" as="geometry" />
        </mxCell>
        <mxCell id="sKp-pkzSfBIiFDAOhS4q-42" value="pendding" style="edgeLabel;html=1;align=center;verticalAlign=middle;resizable=0;points=[];" vertex="1" connectable="0" parent="sKp-pkzSfBIiFDAOhS4q-41">
          <mxGeometry x="-0.2415" y="1" relative="1" as="geometry">
            <mxPoint x="-3" y="-16" as="offset" />
          </mxGeometry>
        </mxCell>
        <mxCell id="sKp-pkzSfBIiFDAOhS4q-21" value="&lt;div&gt;queue&lt;/div&gt;&lt;div&gt;&lt;br&gt;&lt;/div&gt;interleaved = null&lt;span style=&quot;background-color: initial;&quot;&gt;l&lt;/span&gt;" style="whiteSpace=wrap;html=1;" vertex="1" parent="_WAYt0JG0GX0LKAkZ0ER-1">
          <mxGeometry x="534" y="-600" width="120" height="60" as="geometry" />
        </mxCell>
        <mxCell id="sKp-pkzSfBIiFDAOhS4q-24" value="null" style="whiteSpace=wrap;html=1;" vertex="1" parent="_WAYt0JG0GX0LKAkZ0ER-1">
          <mxGeometry x="760" y="-560" width="120" height="60" as="geometry" />
        </mxCell>
        <mxCell id="sKp-pkzSfBIiFDAOhS4q-27" value="callback = null" style="whiteSpace=wrap;html=1;" vertex="1" parent="_WAYt0JG0GX0LKAkZ0ER-1">
          <mxGeometry x="90" y="-970" width="416" height="60" as="geometry" />
        </mxCell>
        <mxCell id="sKp-pkzSfBIiFDAOhS4q-30" value="HostRoot&amp;nbsp;&lt;span style=&quot;background-color: initial;&quot;&gt;workInProgress&lt;/span&gt;" style="whiteSpace=wrap;html=1;" vertex="1" parent="_WAYt0JG0GX0LKAkZ0ER-1">
          <mxGeometry x="80" y="-1080" width="180" height="60" as="geometry" />
        </mxCell>
        <mxCell id="sKp-pkzSfBIiFDAOhS4q-39" value="null" style="whiteSpace=wrap;html=1;" vertex="1" parent="_WAYt0JG0GX0LKAkZ0ER-1">
          <mxGeometry x="754" y="-670" width="120" height="60" as="geometry" />
        </mxCell>
        <mxCell id="ZOgHmeimfH6huHVavOfz-2" style="edgeStyle=orthogonalEdgeStyle;rounded=0;orthogonalLoop=1;jettySize=auto;html=1;exitX=0.5;exitY=0;exitDx=0;exitDy=0;entryX=0.5;entryY=1;entryDx=0;entryDy=0;" edge="1" parent="_WAYt0JG0GX0LKAkZ0ER-1" source="ZOgHmeimfH6huHVavOfz-0" target="VoN4car32EPrlCBhFRL0-5">
          <mxGeometry relative="1" as="geometry" />
        </mxCell>
        <mxCell id="ZOgHmeimfH6huHVavOfz-3" value="child / return" style="edgeLabel;html=1;align=center;verticalAlign=middle;resizable=0;points=[];" vertex="1" connectable="0" parent="ZOgHmeimfH6huHVavOfz-2">
          <mxGeometry x="0.0301" y="1" relative="1" as="geometry">
            <mxPoint y="1" as="offset" />
          </mxGeometry>
        </mxCell>
        <mxCell id="M_0tgaDn2EaJkq6stqQa-11" style="edgeStyle=orthogonalEdgeStyle;rounded=0;orthogonalLoop=1;jettySize=auto;html=1;exitX=0.5;exitY=1;exitDx=0;exitDy=0;entryX=0.5;entryY=0;entryDx=0;entryDy=0;" edge="1" parent="_WAYt0JG0GX0LKAkZ0ER-1" source="ZOgHmeimfH6huHVavOfz-0" target="M_0tgaDn2EaJkq6stqQa-10">
          <mxGeometry relative="1" as="geometry" />
        </mxCell>
        <mxCell id="ZOgHmeimfH6huHVavOfz-0" value="IndeterminateComponent App&lt;div&gt;&lt;br&gt;&lt;/div&gt;&lt;div&gt;stateNode = null&lt;/div&gt;&lt;div&gt;memoizedProps = { }&lt;/div&gt;&lt;div&gt;pendingProps = { }&lt;/div&gt;&lt;div&gt;memoizedState = hook&lt;/div&gt;" style="whiteSpace=wrap;html=1;" vertex="1" parent="_WAYt0JG0GX0LKAkZ0ER-1">
          <mxGeometry x="380" y="1000" width="200" height="120" as="geometry" />
        </mxCell>
        <mxCell id="iXIGHptzbcHxjj1jom70-9" style="edgeStyle=orthogonalEdgeStyle;rounded=0;orthogonalLoop=1;jettySize=auto;html=1;exitX=1;exitY=0.5;exitDx=0;exitDy=0;entryX=0;entryY=0.5;entryDx=0;entryDy=0;" edge="1" parent="_WAYt0JG0GX0LKAkZ0ER-1" source="iXIGHptzbcHxjj1jom70-2" target="iXIGHptzbcHxjj1jom70-8">
          <mxGeometry relative="1" as="geometry" />
        </mxCell>
        <mxCell id="iXIGHptzbcHxjj1jom70-10" value="queue" style="edgeLabel;html=1;align=center;verticalAlign=middle;resizable=0;points=[];" vertex="1" connectable="0" parent="iXIGHptzbcHxjj1jom70-9">
          <mxGeometry x="-0.0382" relative="1" as="geometry">
            <mxPoint as="offset" />
          </mxGeometry>
        </mxCell>
        <mxCell id="iXIGHptzbcHxjj1jom70-15" style="edgeStyle=orthogonalEdgeStyle;rounded=0;orthogonalLoop=1;jettySize=auto;html=1;exitX=0.5;exitY=1;exitDx=0;exitDy=0;entryX=0.5;entryY=0;entryDx=0;entryDy=0;" edge="1" parent="_WAYt0JG0GX0LKAkZ0ER-1" source="iXIGHptzbcHxjj1jom70-2" target="iXIGHptzbcHxjj1jom70-14">
          <mxGeometry relative="1" as="geometry" />
        </mxCell>
        <mxCell id="iXIGHptzbcHxjj1jom70-16" value="next" style="edgeLabel;html=1;align=center;verticalAlign=middle;resizable=0;points=[];" vertex="1" connectable="0" parent="iXIGHptzbcHxjj1jom70-15">
          <mxGeometry x="-0.1615" y="-1" relative="1" as="geometry">
            <mxPoint as="offset" />
          </mxGeometry>
        </mxCell>
        <mxCell id="iXIGHptzbcHxjj1jom70-2" value="hook&lt;div&gt;&lt;br&gt;&lt;/div&gt;&lt;div&gt;memoizedState = 0&lt;/div&gt;&lt;div&gt;baseState = 0&lt;/div&gt;&lt;div&gt;baseQueue = null&lt;/div&gt;" style="whiteSpace=wrap;html=1;" vertex="1" parent="_WAYt0JG0GX0LKAkZ0ER-1">
          <mxGeometry x="1160" y="-920" width="160" height="160" as="geometry" />
        </mxCell>
        <mxCell id="iXIGHptzbcHxjj1jom70-3" value="workInProgressHook" style="whiteSpace=wrap;html=1;" vertex="1" parent="_WAYt0JG0GX0LKAkZ0ER-1">
          <mxGeometry x="960" y="-630" width="150" height="60" as="geometry" />
        </mxCell>
        <mxCell id="iXIGHptzbcHxjj1jom70-4" style="edgeStyle=orthogonalEdgeStyle;rounded=0;orthogonalLoop=1;jettySize=auto;html=1;exitX=0.5;exitY=1;exitDx=0;exitDy=0;entryX=0;entryY=0.5;entryDx=0;entryDy=0;" edge="1" parent="_WAYt0JG0GX0LKAkZ0ER-1" source="iXIGHptzbcHxjj1jom70-3" target="iXIGHptzbcHxjj1jom70-14">
          <mxGeometry relative="1" as="geometry" />
        </mxCell>
        <mxCell id="iXIGHptzbcHxjj1jom70-8" value="queue&lt;div&gt;&lt;br&gt;&lt;/div&gt;&lt;div&gt;pending = null&lt;/div&gt;&lt;div&gt;interleaved = null&lt;/div&gt;&lt;div&gt;dispatch =&amp;nbsp;dispatchSetState.bind(null, FiberApp, FiberApp.memoizedState.queue)&lt;/div&gt;&lt;div&gt;lastRenderedReducer: basicStateReducer&lt;/div&gt;&lt;div&gt;lastRenderedState = 0&lt;/div&gt;" style="whiteSpace=wrap;html=1;" vertex="1" parent="_WAYt0JG0GX0LKAkZ0ER-1">
          <mxGeometry x="1400" y="-920" width="480" height="160" as="geometry" />
        </mxCell>
        <mxCell id="iXIGHptzbcHxjj1jom70-18" style="edgeStyle=orthogonalEdgeStyle;rounded=0;orthogonalLoop=1;jettySize=auto;html=1;exitX=1;exitY=0.5;exitDx=0;exitDy=0;entryX=0;entryY=0.5;entryDx=0;entryDy=0;" edge="1" parent="_WAYt0JG0GX0LKAkZ0ER-1" source="iXIGHptzbcHxjj1jom70-14" target="iXIGHptzbcHxjj1jom70-17">
          <mxGeometry relative="1" as="geometry" />
        </mxCell>
        <mxCell id="iXIGHptzbcHxjj1jom70-19" value="queue" style="edgeLabel;html=1;align=center;verticalAlign=middle;resizable=0;points=[];" vertex="1" connectable="0" parent="iXIGHptzbcHxjj1jom70-18">
          <mxGeometry x="-0.0702" y="-2" relative="1" as="geometry">
            <mxPoint x="1" as="offset" />
          </mxGeometry>
        </mxCell>
        <mxCell id="iXIGHptzbcHxjj1jom70-14" value="hook&lt;div&gt;&lt;br&gt;&lt;/div&gt;&lt;div&gt;memoizedState = true&lt;/div&gt;&lt;div&gt;baseState = true&lt;/div&gt;&lt;div&gt;baseQueue = null&lt;/div&gt;&lt;div&gt;next = null&lt;/div&gt;" style="whiteSpace=wrap;html=1;" vertex="1" parent="_WAYt0JG0GX0LKAkZ0ER-1">
          <mxGeometry x="1160" y="-720" width="160" height="160" as="geometry" />
        </mxCell>
        <mxCell id="iXIGHptzbcHxjj1jom70-17" value="queue&lt;div&gt;&lt;br&gt;&lt;/div&gt;&lt;div&gt;pending = null&lt;/div&gt;&lt;div&gt;interleaved = null&lt;/div&gt;&lt;div&gt;dispatch =&amp;nbsp;dispatchSetState.bind(null, FiberApp, FiberApp.memoizedState.queue)&lt;/div&gt;&lt;div&gt;lastRenderedReducer: basicStateReducer&lt;/div&gt;&lt;div&gt;lastRenderedState = true&lt;/div&gt;" style="whiteSpace=wrap;html=1;" vertex="1" parent="_WAYt0JG0GX0LKAkZ0ER-1">
          <mxGeometry x="1400" y="-720" width="480" height="160" as="geometry" />
        </mxCell>
        <mxCell id="M_0tgaDn2EaJkq6stqQa-12" style="edgeStyle=orthogonalEdgeStyle;rounded=0;orthogonalLoop=1;jettySize=auto;html=1;exitX=0.5;exitY=0;exitDx=0;exitDy=0;" edge="1" parent="_WAYt0JG0GX0LKAkZ0ER-1" source="M_0tgaDn2EaJkq6stqQa-10">
          <mxGeometry relative="1" as="geometry">
            <mxPoint x="480" y="1120" as="targetPoint" />
          </mxGeometry>
        </mxCell>
        <mxCell id="M_0tgaDn2EaJkq6stqQa-13" value="child / return" style="edgeLabel;html=1;align=center;verticalAlign=middle;resizable=0;points=[];" vertex="1" connectable="0" parent="M_0tgaDn2EaJkq6stqQa-12">
          <mxGeometry x="0.1949" y="3" relative="1" as="geometry">
            <mxPoint x="3" y="3" as="offset" />
          </mxGeometry>
        </mxCell>
        <mxCell id="M_0tgaDn2EaJkq6stqQa-15" style="edgeStyle=orthogonalEdgeStyle;rounded=0;orthogonalLoop=1;jettySize=auto;html=1;exitX=0.5;exitY=1;exitDx=0;exitDy=0;entryX=0.5;entryY=0;entryDx=0;entryDy=0;" edge="1" parent="_WAYt0JG0GX0LKAkZ0ER-1" source="M_0tgaDn2EaJkq6stqQa-10" target="M_0tgaDn2EaJkq6stqQa-14">
          <mxGeometry relative="1" as="geometry" />
        </mxCell>
        <mxCell id="M_0tgaDn2EaJkq6stqQa-10" value="HostComponent div&lt;div&gt;&lt;br&gt;&lt;/div&gt;&lt;div&gt;stateNode = DOM div&lt;/div&gt;&lt;div&gt;memoizedProps =&amp;nbsp;&lt;span style=&quot;background-color: initial;&quot;&gt;{ children: Array(3)&lt;/span&gt;&lt;span style=&quot;background-color: initial;&quot;&gt;&amp;nbsp;&lt;/span&gt;&lt;/div&gt;&lt;div&gt;pendingProps = { children: Array(3) }&lt;/div&gt;&lt;div&gt;memoizedState =&amp;nbsp; null&lt;/div&gt;" style="whiteSpace=wrap;html=1;" vertex="1" parent="_WAYt0JG0GX0LKAkZ0ER-1">
          <mxGeometry x="360" y="1160" width="240" height="120" as="geometry" />
        </mxCell>
        <mxCell id="M_0tgaDn2EaJkq6stqQa-16" style="edgeStyle=orthogonalEdgeStyle;rounded=0;orthogonalLoop=1;jettySize=auto;html=1;exitX=0.5;exitY=0;exitDx=0;exitDy=0;entryX=0.5;entryY=1;entryDx=0;entryDy=0;" edge="1" parent="_WAYt0JG0GX0LKAkZ0ER-1" source="M_0tgaDn2EaJkq6stqQa-14" target="M_0tgaDn2EaJkq6stqQa-10">
          <mxGeometry relative="1" as="geometry" />
        </mxCell>
        <mxCell id="M_0tgaDn2EaJkq6stqQa-17" value="child / return" style="edgeLabel;html=1;align=center;verticalAlign=middle;resizable=0;points=[];" vertex="1" connectable="0" parent="M_0tgaDn2EaJkq6stqQa-16">
          <mxGeometry x="0.109" y="2" relative="1" as="geometry">
            <mxPoint x="2" y="24" as="offset" />
          </mxGeometry>
        </mxCell>
        <mxCell id="M_0tgaDn2EaJkq6stqQa-19" style="edgeStyle=orthogonalEdgeStyle;rounded=0;orthogonalLoop=1;jettySize=auto;html=1;exitX=1;exitY=0.5;exitDx=0;exitDy=0;entryX=0;entryY=0.5;entryDx=0;entryDy=0;" edge="1" parent="_WAYt0JG0GX0LKAkZ0ER-1" source="M_0tgaDn2EaJkq6stqQa-14" target="M_0tgaDn2EaJkq6stqQa-18">
          <mxGeometry relative="1" as="geometry" />
        </mxCell>
        <mxCell id="M_0tgaDn2EaJkq6stqQa-20" value="sibling" style="edgeLabel;html=1;align=center;verticalAlign=middle;resizable=0;points=[];" vertex="1" connectable="0" parent="M_0tgaDn2EaJkq6stqQa-19">
          <mxGeometry x="-0.003" y="2" relative="1" as="geometry">
            <mxPoint as="offset" />
          </mxGeometry>
        </mxCell>
        <mxCell id="M_0tgaDn2EaJkq6stqQa-14" value="HostComponent button&lt;div&gt;&lt;br&gt;&lt;/div&gt;&lt;div&gt;stateNode = DOM button&lt;/div&gt;&lt;div&gt;memoizedProps =&amp;nbsp;&lt;span style=&quot;background-color: initial;&quot;&gt;{ children: &quot;Click me&quot;, onClick }&lt;/span&gt;&lt;/div&gt;&lt;div&gt;pendingProps = { children: &quot;Click me&quot;, onClick }&lt;/div&gt;&lt;div&gt;memoizedState =&amp;nbsp; null&lt;/div&gt;&lt;div&gt;index = 0&lt;/div&gt;" style="whiteSpace=wrap;html=1;" vertex="1" parent="_WAYt0JG0GX0LKAkZ0ER-1">
          <mxGeometry x="340" y="1360" width="280" height="120" as="geometry" />
        </mxCell>
        <mxCell id="M_0tgaDn2EaJkq6stqQa-21" style="edgeStyle=orthogonalEdgeStyle;rounded=0;orthogonalLoop=1;jettySize=auto;html=1;exitX=0.5;exitY=0;exitDx=0;exitDy=0;" edge="1" parent="_WAYt0JG0GX0LKAkZ0ER-1" source="M_0tgaDn2EaJkq6stqQa-18">
          <mxGeometry relative="1" as="geometry">
            <mxPoint x="480" y="1280" as="targetPoint" />
          </mxGeometry>
        </mxCell>
        <mxCell id="M_0tgaDn2EaJkq6stqQa-22" value="return" style="edgeLabel;html=1;align=center;verticalAlign=middle;resizable=0;points=[];" vertex="1" connectable="0" parent="M_0tgaDn2EaJkq6stqQa-21">
          <mxGeometry x="-0.8862" relative="1" as="geometry">
            <mxPoint as="offset" />
          </mxGeometry>
        </mxCell>
        <mxCell id="M_0tgaDn2EaJkq6stqQa-24" style="edgeStyle=orthogonalEdgeStyle;rounded=0;orthogonalLoop=1;jettySize=auto;html=1;exitX=1;exitY=0.5;exitDx=0;exitDy=0;entryX=0;entryY=0.5;entryDx=0;entryDy=0;" edge="1" parent="_WAYt0JG0GX0LKAkZ0ER-1" source="M_0tgaDn2EaJkq6stqQa-18" target="M_0tgaDn2EaJkq6stqQa-23">
          <mxGeometry relative="1" as="geometry" />
        </mxCell>
        <mxCell id="M_0tgaDn2EaJkq6stqQa-25" value="sibling" style="edgeLabel;html=1;align=center;verticalAlign=middle;resizable=0;points=[];" vertex="1" connectable="0" parent="M_0tgaDn2EaJkq6stqQa-24">
          <mxGeometry x="-0.0645" y="1" relative="1" as="geometry">
            <mxPoint as="offset" />
          </mxGeometry>
        </mxCell>
        <mxCell id="M_0tgaDn2EaJkq6stqQa-33" style="edgeStyle=orthogonalEdgeStyle;rounded=0;orthogonalLoop=1;jettySize=auto;html=1;exitX=0.5;exitY=1;exitDx=0;exitDy=0;entryX=0.5;entryY=0;entryDx=0;entryDy=0;" edge="1" parent="_WAYt0JG0GX0LKAkZ0ER-1" source="M_0tgaDn2EaJkq6stqQa-18" target="M_0tgaDn2EaJkq6stqQa-32">
          <mxGeometry relative="1" as="geometry" />
        </mxCell>
        <mxCell id="M_0tgaDn2EaJkq6stqQa-18" value="IndeterminateComponent InDependState&lt;div&gt;&lt;br&gt;&lt;/div&gt;&lt;div&gt;stateNode = null&lt;/div&gt;&lt;div&gt;memoizedProps = { }&lt;/div&gt;&lt;div&gt;pendingProps = { }&lt;/div&gt;&lt;div&gt;memoizedState = null&lt;/div&gt;&lt;div&gt;index = 1&lt;/div&gt;" style="whiteSpace=wrap;html=1;" vertex="1" parent="_WAYt0JG0GX0LKAkZ0ER-1">
          <mxGeometry x="700" y="1360" width="240" height="120" as="geometry" />
        </mxCell>
        <mxCell id="M_0tgaDn2EaJkq6stqQa-26" style="edgeStyle=orthogonalEdgeStyle;rounded=0;orthogonalLoop=1;jettySize=auto;html=1;exitX=0.5;exitY=0;exitDx=0;exitDy=0;entryX=0.5;entryY=1;entryDx=0;entryDy=0;" edge="1" parent="_WAYt0JG0GX0LKAkZ0ER-1" source="M_0tgaDn2EaJkq6stqQa-23" target="M_0tgaDn2EaJkq6stqQa-10">
          <mxGeometry relative="1" as="geometry" />
        </mxCell>
        <mxCell id="M_0tgaDn2EaJkq6stqQa-27" value="return" style="edgeLabel;html=1;align=center;verticalAlign=middle;resizable=0;points=[];" vertex="1" connectable="0" parent="M_0tgaDn2EaJkq6stqQa-26">
          <mxGeometry x="-0.9355" y="1" relative="1" as="geometry">
            <mxPoint as="offset" />
          </mxGeometry>
        </mxCell>
        <mxCell id="M_0tgaDn2EaJkq6stqQa-42" style="edgeStyle=orthogonalEdgeStyle;rounded=0;orthogonalLoop=1;jettySize=auto;html=1;exitX=0.5;exitY=1;exitDx=0;exitDy=0;entryX=0.5;entryY=0;entryDx=0;entryDy=0;" edge="1" parent="_WAYt0JG0GX0LKAkZ0ER-1" source="M_0tgaDn2EaJkq6stqQa-23" target="M_0tgaDn2EaJkq6stqQa-41">
          <mxGeometry relative="1" as="geometry" />
        </mxCell>
        <mxCell id="M_0tgaDn2EaJkq6stqQa-23" value="IndeterminateComponent DependState&lt;div&gt;&lt;br&gt;&lt;/div&gt;&lt;div&gt;stateNode = null&lt;/div&gt;&lt;div&gt;memoizedProps = { count: 0 }&lt;/div&gt;&lt;div&gt;pendingProps = { count:&amp;nbsp; 0 }&lt;/div&gt;&lt;div&gt;memoizedState = null&lt;/div&gt;&lt;div&gt;index = 2&lt;/div&gt;" style="whiteSpace=wrap;html=1;" vertex="1" parent="_WAYt0JG0GX0LKAkZ0ER-1">
          <mxGeometry x="1020" y="1360" width="240" height="120" as="geometry" />
        </mxCell>
        <mxCell id="M_0tgaDn2EaJkq6stqQa-34" style="edgeStyle=orthogonalEdgeStyle;rounded=0;orthogonalLoop=1;jettySize=auto;html=1;exitX=0.5;exitY=0;exitDx=0;exitDy=0;entryX=0.5;entryY=1;entryDx=0;entryDy=0;" edge="1" parent="_WAYt0JG0GX0LKAkZ0ER-1" source="M_0tgaDn2EaJkq6stqQa-32" target="M_0tgaDn2EaJkq6stqQa-18">
          <mxGeometry relative="1" as="geometry" />
        </mxCell>
        <mxCell id="M_0tgaDn2EaJkq6stqQa-35" value="child / return" style="edgeLabel;html=1;align=center;verticalAlign=middle;resizable=0;points=[];" vertex="1" connectable="0" parent="M_0tgaDn2EaJkq6stqQa-34">
          <mxGeometry x="0.0171" relative="1" as="geometry">
            <mxPoint as="offset" />
          </mxGeometry>
        </mxCell>
        <mxCell id="M_0tgaDn2EaJkq6stqQa-32" value="HostComponent p&lt;div&gt;&lt;br&gt;&lt;/div&gt;&lt;div&gt;stateNode = DOM p&lt;/div&gt;&lt;div&gt;memoizedProps =&amp;nbsp;&lt;span style=&quot;background-color: initial;&quot;&gt;{ children: &quot;render something ...&quot; }&lt;/span&gt;&lt;/div&gt;&lt;div&gt;pendingProps =&amp;nbsp;&lt;span style=&quot;background-color: initial;&quot;&gt;{ children: &quot;render something ...&quot; }&lt;/span&gt;&lt;/div&gt;&lt;div&gt;&lt;span style=&quot;background-color: initial;&quot;&gt;memoizedState =&amp;nbsp; null&lt;/span&gt;&lt;/div&gt;" style="whiteSpace=wrap;html=1;" vertex="1" parent="_WAYt0JG0GX0LKAkZ0ER-1">
          <mxGeometry x="660" y="1520" width="320" height="120" as="geometry" />
        </mxCell>
        <mxCell id="M_0tgaDn2EaJkq6stqQa-43" style="edgeStyle=orthogonalEdgeStyle;rounded=0;orthogonalLoop=1;jettySize=auto;html=1;exitX=0.5;exitY=0;exitDx=0;exitDy=0;entryX=0.5;entryY=1;entryDx=0;entryDy=0;" edge="1" parent="_WAYt0JG0GX0LKAkZ0ER-1" source="M_0tgaDn2EaJkq6stqQa-41" target="M_0tgaDn2EaJkq6stqQa-23">
          <mxGeometry relative="1" as="geometry">
            <mxPoint x="1190.105263157895" y="1480" as="targetPoint" />
          </mxGeometry>
        </mxCell>
        <mxCell id="M_0tgaDn2EaJkq6stqQa-44" value="child / return" style="edgeLabel;html=1;align=center;verticalAlign=middle;resizable=0;points=[];" vertex="1" connectable="0" parent="M_0tgaDn2EaJkq6stqQa-43">
          <mxGeometry x="0.0267" y="-1" relative="1" as="geometry">
            <mxPoint x="-1" as="offset" />
          </mxGeometry>
        </mxCell>
        <mxCell id="M_0tgaDn2EaJkq6stqQa-50" style="edgeStyle=orthogonalEdgeStyle;rounded=0;orthogonalLoop=1;jettySize=auto;html=1;exitX=0.5;exitY=1;exitDx=0;exitDy=0;entryX=0.5;entryY=0;entryDx=0;entryDy=0;" edge="1" parent="_WAYt0JG0GX0LKAkZ0ER-1" source="M_0tgaDn2EaJkq6stqQa-41" target="M_0tgaDn2EaJkq6stqQa-47">
          <mxGeometry relative="1" as="geometry" />
        </mxCell>
        <mxCell id="M_0tgaDn2EaJkq6stqQa-41" value="HostComponent span&lt;div&gt;&lt;br&gt;&lt;/div&gt;&lt;div&gt;stateNode = DOM span&lt;/div&gt;&lt;div&gt;memoizedProps =&amp;nbsp;&lt;span style=&quot;background-color: initial;&quot;&gt;{ children: Array(2) }&lt;/span&gt;&lt;/div&gt;&lt;div&gt;pendingProps =&amp;nbsp;&lt;span style=&quot;background-color: initial;&quot;&gt;{ children: Array(2) }&lt;/span&gt;&lt;/div&gt;&lt;div&gt;&lt;span style=&quot;background-color: initial;&quot;&gt;memoizedState =&amp;nbsp; null&lt;/span&gt;&lt;/div&gt;" style="whiteSpace=wrap;html=1;" vertex="1" parent="_WAYt0JG0GX0LKAkZ0ER-1">
          <mxGeometry x="1020" y="1520" width="240" height="120" as="geometry" />
        </mxCell>
        <mxCell id="M_0tgaDn2EaJkq6stqQa-51" style="edgeStyle=orthogonalEdgeStyle;rounded=0;orthogonalLoop=1;jettySize=auto;html=1;exitX=0.5;exitY=0;exitDx=0;exitDy=0;" edge="1" parent="_WAYt0JG0GX0LKAkZ0ER-1" source="M_0tgaDn2EaJkq6stqQa-47">
          <mxGeometry relative="1" as="geometry">
            <mxPoint x="1139.5789473684213" y="1640" as="targetPoint" />
          </mxGeometry>
        </mxCell>
        <mxCell id="M_0tgaDn2EaJkq6stqQa-52" value="child / return" style="edgeLabel;html=1;align=center;verticalAlign=middle;resizable=0;points=[];" vertex="1" connectable="0" parent="M_0tgaDn2EaJkq6stqQa-51">
          <mxGeometry x="0.0777" y="1" relative="1" as="geometry">
            <mxPoint x="1" y="23" as="offset" />
          </mxGeometry>
        </mxCell>
        <mxCell id="M_0tgaDn2EaJkq6stqQa-54" style="edgeStyle=orthogonalEdgeStyle;rounded=0;orthogonalLoop=1;jettySize=auto;html=1;exitX=1;exitY=0.5;exitDx=0;exitDy=0;entryX=0;entryY=0.5;entryDx=0;entryDy=0;" edge="1" parent="_WAYt0JG0GX0LKAkZ0ER-1" source="M_0tgaDn2EaJkq6stqQa-47" target="M_0tgaDn2EaJkq6stqQa-53">
          <mxGeometry relative="1" as="geometry" />
        </mxCell>
        <mxCell id="M_0tgaDn2EaJkq6stqQa-55" value="sibling" style="edgeLabel;html=1;align=center;verticalAlign=middle;resizable=0;points=[];" vertex="1" connectable="0" parent="M_0tgaDn2EaJkq6stqQa-54">
          <mxGeometry x="-0.0679" y="1" relative="1" as="geometry">
            <mxPoint as="offset" />
          </mxGeometry>
        </mxCell>
        <mxCell id="M_0tgaDn2EaJkq6stqQa-47" value="HostText &quot;0&quot;&lt;div&gt;&lt;br&gt;&lt;/div&gt;&lt;div&gt;stateNode = DOM &quot;0&quot;&lt;/div&gt;&lt;div&gt;memoizedProps = &quot;0&quot;&lt;/div&gt;&lt;div&gt;pendingProps = &quot;0&quot;&lt;/div&gt;&lt;div&gt;&lt;span style=&quot;background-color: initial;&quot;&gt;memoizedState =&amp;nbsp; null&lt;/span&gt;&lt;/div&gt;" style="whiteSpace=wrap;html=1;" vertex="1" parent="_WAYt0JG0GX0LKAkZ0ER-1">
          <mxGeometry x="1060" y="1720" width="160" height="120" as="geometry" />
        </mxCell>
        <mxCell id="M_0tgaDn2EaJkq6stqQa-56" style="edgeStyle=orthogonalEdgeStyle;rounded=0;orthogonalLoop=1;jettySize=auto;html=1;exitX=0.5;exitY=0;exitDx=0;exitDy=0;entryX=0.5;entryY=1;entryDx=0;entryDy=0;" edge="1" parent="_WAYt0JG0GX0LKAkZ0ER-1" source="M_0tgaDn2EaJkq6stqQa-53" target="M_0tgaDn2EaJkq6stqQa-41">
          <mxGeometry relative="1" as="geometry" />
        </mxCell>
        <mxCell id="M_0tgaDn2EaJkq6stqQa-57" value="return" style="edgeLabel;html=1;align=center;verticalAlign=middle;resizable=0;points=[];" vertex="1" connectable="0" parent="M_0tgaDn2EaJkq6stqQa-56">
          <mxGeometry x="-0.8703" y="1" relative="1" as="geometry">
            <mxPoint as="offset" />
          </mxGeometry>
        </mxCell>
        <mxCell id="M_0tgaDn2EaJkq6stqQa-53" value="HostText &quot; - even&quot;&lt;div&gt;&lt;br&gt;&lt;/div&gt;&lt;div&gt;stateNode = DOM &quot; - even&quot;&lt;/div&gt;&lt;div&gt;memoizedProps = &quot; - even &quot;&lt;/div&gt;&lt;div&gt;pendingProps = &quot; - even&quot;&lt;/div&gt;&lt;div&gt;&lt;span style=&quot;background-color: initial;&quot;&gt;memoizedState =&amp;nbsp; null&lt;/span&gt;&lt;/div&gt;" style="whiteSpace=wrap;html=1;" vertex="1" parent="_WAYt0JG0GX0LKAkZ0ER-1">
          <mxGeometry x="1310" y="1720" width="160" height="120" as="geometry" />
        </mxCell>
        <mxCell id="73TRKlbqNp6dbFnlmx_S-5" style="edgeStyle=orthogonalEdgeStyle;rounded=0;orthogonalLoop=1;jettySize=auto;html=1;exitX=0;exitY=0.5;exitDx=0;exitDy=0;" edge="1" parent="_WAYt0JG0GX0LKAkZ0ER-1" source="73TRKlbqNp6dbFnlmx_S-4">
          <mxGeometry relative="1" as="geometry">
            <mxPoint x="600" y="669.8947368421054" as="targetPoint" />
          </mxGeometry>
        </mxCell>
        <mxCell id="73TRKlbqNp6dbFnlmx_S-4" value="workInProgress" style="whiteSpace=wrap;html=1;" vertex="1" parent="_WAYt0JG0GX0LKAkZ0ER-1">
          <mxGeometry x="640" y="640" width="120" height="60" as="geometry" />
        </mxCell>
        <mxCell id="yi-gM9uY1aBOSGbcmz1o-0" value="" style="endArrow=none;dashed=1;html=1;dashPattern=1 3;strokeWidth=2;rounded=0;" edge="1" parent="_WAYt0JG0GX0LKAkZ0ER-1">
          <mxGeometry width="50" height="50" relative="1" as="geometry">
            <mxPoint x="90" y="1920" as="sourcePoint" />
            <mxPoint x="2310" y="1920" as="targetPoint" />
          </mxGeometry>
        </mxCell>
        <mxCell id="yi-gM9uY1aBOSGbcmz1o-9" style="edgeStyle=orthogonalEdgeStyle;rounded=0;orthogonalLoop=1;jettySize=auto;html=1;exitX=0.5;exitY=1;exitDx=0;exitDy=0;entryX=0.5;entryY=0;entryDx=0;entryDy=0;" edge="1" parent="_WAYt0JG0GX0LKAkZ0ER-1" source="yi-gM9uY1aBOSGbcmz1o-1" target="yi-gM9uY1aBOSGbcmz1o-2">
          <mxGeometry relative="1" as="geometry" />
        </mxCell>
        <mxCell id="yi-gM9uY1aBOSGbcmz1o-10" style="edgeStyle=orthogonalEdgeStyle;rounded=0;orthogonalLoop=1;jettySize=auto;html=1;exitX=0.5;exitY=1;exitDx=0;exitDy=0;entryX=0.5;entryY=0;entryDx=0;entryDy=0;" edge="1" parent="_WAYt0JG0GX0LKAkZ0ER-1" source="yi-gM9uY1aBOSGbcmz1o-1" target="yi-gM9uY1aBOSGbcmz1o-3">
          <mxGeometry relative="1" as="geometry" />
        </mxCell>
        <mxCell id="yi-gM9uY1aBOSGbcmz1o-11" style="edgeStyle=orthogonalEdgeStyle;rounded=0;orthogonalLoop=1;jettySize=auto;html=1;exitX=0.5;exitY=1;exitDx=0;exitDy=0;entryX=0.5;entryY=0;entryDx=0;entryDy=0;" edge="1" parent="_WAYt0JG0GX0LKAkZ0ER-1" source="yi-gM9uY1aBOSGbcmz1o-1" target="yi-gM9uY1aBOSGbcmz1o-4">
          <mxGeometry relative="1" as="geometry" />
        </mxCell>
        <mxCell id="yi-gM9uY1aBOSGbcmz1o-1" value="div" style="whiteSpace=wrap;html=1;" vertex="1" parent="_WAYt0JG0GX0LKAkZ0ER-1">
          <mxGeometry x="440" y="1960" width="80" height="40" as="geometry" />
        </mxCell>
        <mxCell id="yi-gM9uY1aBOSGbcmz1o-2" value="button" style="whiteSpace=wrap;html=1;" vertex="1" parent="_WAYt0JG0GX0LKAkZ0ER-1">
          <mxGeometry x="440" y="2040" width="80" height="40" as="geometry" />
        </mxCell>
        <mxCell id="yi-gM9uY1aBOSGbcmz1o-3" value="p" style="whiteSpace=wrap;html=1;" vertex="1" parent="_WAYt0JG0GX0LKAkZ0ER-1">
          <mxGeometry x="560" y="2040" width="80" height="40" as="geometry" />
        </mxCell>
        <mxCell id="yi-gM9uY1aBOSGbcmz1o-12" style="edgeStyle=orthogonalEdgeStyle;rounded=0;orthogonalLoop=1;jettySize=auto;html=1;exitX=0.5;exitY=1;exitDx=0;exitDy=0;entryX=0.5;entryY=0;entryDx=0;entryDy=0;" edge="1" parent="_WAYt0JG0GX0LKAkZ0ER-1" source="yi-gM9uY1aBOSGbcmz1o-4" target="yi-gM9uY1aBOSGbcmz1o-5">
          <mxGeometry relative="1" as="geometry" />
        </mxCell>
        <mxCell id="yi-gM9uY1aBOSGbcmz1o-13" style="edgeStyle=orthogonalEdgeStyle;rounded=0;orthogonalLoop=1;jettySize=auto;html=1;exitX=0.5;exitY=1;exitDx=0;exitDy=0;entryX=0.5;entryY=0;entryDx=0;entryDy=0;" edge="1" parent="_WAYt0JG0GX0LKAkZ0ER-1" source="yi-gM9uY1aBOSGbcmz1o-4" target="yi-gM9uY1aBOSGbcmz1o-6">
          <mxGeometry relative="1" as="geometry" />
        </mxCell>
        <mxCell id="yi-gM9uY1aBOSGbcmz1o-4" value="span" style="whiteSpace=wrap;html=1;" vertex="1" parent="_WAYt0JG0GX0LKAkZ0ER-1">
          <mxGeometry x="680" y="2040" width="80" height="40" as="geometry" />
        </mxCell>
        <mxCell id="yi-gM9uY1aBOSGbcmz1o-5" value="&quot;0&quot;" style="whiteSpace=wrap;html=1;" vertex="1" parent="_WAYt0JG0GX0LKAkZ0ER-1">
          <mxGeometry x="680" y="2120" width="80" height="40" as="geometry" />
        </mxCell>
        <mxCell id="yi-gM9uY1aBOSGbcmz1o-6" value="&quot; - even&quot;" style="whiteSpace=wrap;html=1;" vertex="1" parent="_WAYt0JG0GX0LKAkZ0ER-1">
          <mxGeometry x="800" y="2120" width="80" height="40" as="geometry" />
        </mxCell>
      </root>
    </mxGraphModel>
  </diagram>
  <diagram name="4. Commit" id="btOC2n-Uzo3Ozw3iuuSX">
    <mxGraphModel dx="1208" dy="1548" grid="1" gridSize="10" guides="1" tooltips="1" connect="1" arrows="1" fold="1" page="1" pageScale="1" pageWidth="827" pageHeight="1169" math="0" shadow="0">
      <root>
        <mxCell id="2BVFV6PtjXRRdMwMBUO1-0" />
        <mxCell id="2BVFV6PtjXRRdMwMBUO1-1" parent="2BVFV6PtjXRRdMwMBUO1-0" />
        <mxCell id="2BVFV6PtjXRRdMwMBUO1-2" style="edgeStyle=orthogonalEdgeStyle;rounded=0;orthogonalLoop=1;jettySize=auto;html=1;exitX=0.5;exitY=1;exitDx=0;exitDy=0;entryX=0.5;entryY=0;entryDx=0;entryDy=0;" edge="1" parent="2BVFV6PtjXRRdMwMBUO1-1" source="2BVFV6PtjXRRdMwMBUO1-8" target="2BVFV6PtjXRRdMwMBUO1-14">
          <mxGeometry relative="1" as="geometry" />
        </mxCell>
        <mxCell id="2BVFV6PtjXRRdMwMBUO1-3" value="updateQueue" style="edgeLabel;html=1;align=center;verticalAlign=middle;resizable=0;points=[];" vertex="1" connectable="0" parent="2BVFV6PtjXRRdMwMBUO1-2">
          <mxGeometry x="-0.0908" y="-1" relative="1" as="geometry">
            <mxPoint as="offset" />
          </mxGeometry>
        </mxCell>
        <mxCell id="2BVFV6PtjXRRdMwMBUO1-4" style="edgeStyle=orthogonalEdgeStyle;rounded=0;orthogonalLoop=1;jettySize=auto;html=1;exitX=1;exitY=0.5;exitDx=0;exitDy=0;entryX=0;entryY=0.5;entryDx=0;entryDy=0;" edge="1" parent="2BVFV6PtjXRRdMwMBUO1-1" source="2BVFV6PtjXRRdMwMBUO1-8" target="2BVFV6PtjXRRdMwMBUO1-9">
          <mxGeometry relative="1" as="geometry" />
        </mxCell>
        <mxCell id="2BVFV6PtjXRRdMwMBUO1-5" value="memoizedState" style="edgeLabel;html=1;align=center;verticalAlign=middle;resizable=0;points=[];" vertex="1" connectable="0" parent="2BVFV6PtjXRRdMwMBUO1-4">
          <mxGeometry x="-0.0566" relative="1" as="geometry">
            <mxPoint as="offset" />
          </mxGeometry>
        </mxCell>
        <mxCell id="2BVFV6PtjXRRdMwMBUO1-6" style="edgeStyle=orthogonalEdgeStyle;rounded=0;orthogonalLoop=1;jettySize=auto;html=1;exitX=0.5;exitY=0;exitDx=0;exitDy=0;entryX=0.5;entryY=1;entryDx=0;entryDy=0;" edge="1" parent="2BVFV6PtjXRRdMwMBUO1-1" source="2BVFV6PtjXRRdMwMBUO1-8" target="2BVFV6PtjXRRdMwMBUO1-24">
          <mxGeometry relative="1" as="geometry" />
        </mxCell>
        <mxCell id="2BVFV6PtjXRRdMwMBUO1-7" value="callbackNode" style="edgeLabel;html=1;align=center;verticalAlign=middle;resizable=0;points=[];" vertex="1" connectable="0" parent="2BVFV6PtjXRRdMwMBUO1-6">
          <mxGeometry x="0.0433" y="1" relative="1" as="geometry">
            <mxPoint x="1" y="7" as="offset" />
          </mxGeometry>
        </mxCell>
        <mxCell id="2BVFV6PtjXRRdMwMBUO1-8" value="HostRoot&lt;br&gt;&lt;div&gt;&lt;br&gt;&lt;/div&gt;&lt;div&gt;memoizedProps = null&lt;/div&gt;&lt;div&gt;pendingProps = null&lt;/div&gt;&lt;div&gt;stateNode = FiberRoot&lt;/div&gt;" style="whiteSpace=wrap;html=1;" vertex="1" parent="2BVFV6PtjXRRdMwMBUO1-1">
          <mxGeometry x="198" y="90" width="200" height="120" as="geometry" />
        </mxCell>
        <mxCell id="2BVFV6PtjXRRdMwMBUO1-9" value="&lt;div&gt;element = null&lt;/div&gt;" style="whiteSpace=wrap;html=1;" vertex="1" parent="2BVFV6PtjXRRdMwMBUO1-1">
          <mxGeometry x="534" y="120" width="140" height="65" as="geometry" />
        </mxCell>
        <mxCell id="2BVFV6PtjXRRdMwMBUO1-10" style="edgeStyle=orthogonalEdgeStyle;rounded=0;orthogonalLoop=1;jettySize=auto;html=1;exitX=1.004;exitY=0.173;exitDx=0;exitDy=0;entryX=0.5;entryY=1;entryDx=0;entryDy=0;exitPerimeter=0;" edge="1" parent="2BVFV6PtjXRRdMwMBUO1-1" source="2BVFV6PtjXRRdMwMBUO1-14" target="2BVFV6PtjXRRdMwMBUO1-9">
          <mxGeometry relative="1" as="geometry" />
        </mxCell>
        <mxCell id="2BVFV6PtjXRRdMwMBUO1-11" value="&lt;span style=&quot;font-size: 12px; text-wrap-mode: wrap; background-color: rgb(251, 251, 251);&quot;&gt;baseState&lt;/span&gt;" style="edgeLabel;html=1;align=center;verticalAlign=middle;resizable=0;points=[];" vertex="1" connectable="0" parent="2BVFV6PtjXRRdMwMBUO1-10">
          <mxGeometry x="-0.4006" y="1" relative="1" as="geometry">
            <mxPoint as="offset" />
          </mxGeometry>
        </mxCell>
        <mxCell id="2BVFV6PtjXRRdMwMBUO1-12" style="edgeStyle=orthogonalEdgeStyle;rounded=0;orthogonalLoop=1;jettySize=auto;html=1;exitX=1;exitY=0.5;exitDx=0;exitDy=0;entryX=0;entryY=0.5;entryDx=0;entryDy=0;" edge="1" parent="2BVFV6PtjXRRdMwMBUO1-1" source="2BVFV6PtjXRRdMwMBUO1-14" target="2BVFV6PtjXRRdMwMBUO1-17">
          <mxGeometry relative="1" as="geometry" />
        </mxCell>
        <mxCell id="2BVFV6PtjXRRdMwMBUO1-13" value="shared" style="edgeLabel;html=1;align=center;verticalAlign=middle;resizable=0;points=[];" vertex="1" connectable="0" parent="2BVFV6PtjXRRdMwMBUO1-12">
          <mxGeometry x="-0.0845" relative="1" as="geometry">
            <mxPoint as="offset" />
          </mxGeometry>
        </mxCell>
        <mxCell id="2BVFV6PtjXRRdMwMBUO1-14" value="&lt;div&gt;&lt;span style=&quot;background-color: initial;&quot;&gt;firstBaseUpdate = null&lt;/span&gt;&lt;/div&gt;&lt;div&gt;lastBaseUpdate = nulll&lt;/div&gt;" style="whiteSpace=wrap;html=1;" vertex="1" parent="2BVFV6PtjXRRdMwMBUO1-1">
          <mxGeometry x="180" y="270" width="236" height="110" as="geometry" />
        </mxCell>
        <mxCell id="2BVFV6PtjXRRdMwMBUO1-15" style="edgeStyle=orthogonalEdgeStyle;rounded=0;orthogonalLoop=1;jettySize=auto;html=1;exitX=1;exitY=0.25;exitDx=0;exitDy=0;entryX=0;entryY=0.5;entryDx=0;entryDy=0;" edge="1" parent="2BVFV6PtjXRRdMwMBUO1-1" source="2BVFV6PtjXRRdMwMBUO1-17" target="2BVFV6PtjXRRdMwMBUO1-21">
          <mxGeometry relative="1" as="geometry" />
        </mxCell>
        <mxCell id="2BVFV6PtjXRRdMwMBUO1-16" value="pendding" style="edgeLabel;html=1;align=center;verticalAlign=middle;resizable=0;points=[];" vertex="1" connectable="0" parent="2BVFV6PtjXRRdMwMBUO1-15">
          <mxGeometry x="-0.1657" y="1" relative="1" as="geometry">
            <mxPoint as="offset" />
          </mxGeometry>
        </mxCell>
        <mxCell id="2BVFV6PtjXRRdMwMBUO1-17" value="&lt;div&gt;queue&lt;/div&gt;&lt;div&gt;&lt;br&gt;&lt;/div&gt;interleaved = null&lt;span style=&quot;background-color: initial;&quot;&gt;l&lt;/span&gt;" style="whiteSpace=wrap;html=1;" vertex="1" parent="2BVFV6PtjXRRdMwMBUO1-1">
          <mxGeometry x="534" y="330" width="120" height="60" as="geometry" />
        </mxCell>
        <mxCell id="2BVFV6PtjXRRdMwMBUO1-18" value="FiberRootNode&lt;div&gt;&lt;span style=&quot;background-color: initial;&quot;&gt;&amp;nbsp;&lt;/span&gt;&lt;/div&gt;&lt;div&gt;containerInfo = main#root&lt;/div&gt;&lt;div&gt;finishedWork = HostRoot current&lt;/div&gt;" style="whiteSpace=wrap;html=1;" vertex="1" parent="2BVFV6PtjXRRdMwMBUO1-1">
          <mxGeometry x="200" y="-320" width="200" height="120" as="geometry" />
        </mxCell>
        <mxCell id="2BVFV6PtjXRRdMwMBUO1-19" style="edgeStyle=orthogonalEdgeStyle;rounded=0;orthogonalLoop=1;jettySize=auto;html=1;exitX=1;exitY=0.5;exitDx=0;exitDy=0;entryX=0;entryY=0.5;entryDx=0;entryDy=0;" edge="1" parent="2BVFV6PtjXRRdMwMBUO1-1" source="2BVFV6PtjXRRdMwMBUO1-21" target="2BVFV6PtjXRRdMwMBUO1-22">
          <mxGeometry relative="1" as="geometry" />
        </mxCell>
        <mxCell id="2BVFV6PtjXRRdMwMBUO1-20" value="payload" style="edgeLabel;html=1;align=center;verticalAlign=middle;resizable=0;points=[];" vertex="1" connectable="0" parent="2BVFV6PtjXRRdMwMBUO1-19">
          <mxGeometry x="-0.0947" y="1" relative="1" as="geometry">
            <mxPoint as="offset" />
          </mxGeometry>
        </mxCell>
        <mxCell id="2BVFV6PtjXRRdMwMBUO1-21" value="update&lt;div&gt;&lt;br&gt;&lt;/div&gt;&lt;div&gt;tag: UpdateState = 0&lt;/div&gt;&lt;div&gt;callback&lt;/div&gt;" style="whiteSpace=wrap;html=1;" vertex="1" parent="2BVFV6PtjXRRdMwMBUO1-1">
          <mxGeometry x="754" y="290" width="180" height="110" as="geometry" />
        </mxCell>
        <mxCell id="2BVFV6PtjXRRdMwMBUO1-22" value="element = App ReactNodeList" style="whiteSpace=wrap;html=1;" vertex="1" parent="2BVFV6PtjXRRdMwMBUO1-1">
          <mxGeometry x="1014" y="315" width="200" height="60" as="geometry" />
        </mxCell>
        <mxCell id="2BVFV6PtjXRRdMwMBUO1-23" value="concurrentQueues = null" style="whiteSpace=wrap;html=1;" vertex="1" parent="2BVFV6PtjXRRdMwMBUO1-1">
          <mxGeometry x="180" y="420" width="170" height="60" as="geometry" />
        </mxCell>
        <mxCell id="2BVFV6PtjXRRdMwMBUO1-24" value="callback = null" style="whiteSpace=wrap;html=1;" vertex="1" parent="2BVFV6PtjXRRdMwMBUO1-1">
          <mxGeometry x="90" y="-40" width="416" height="60" as="geometry" />
        </mxCell>
        <mxCell id="2BVFV6PtjXRRdMwMBUO1-25" value="" style="endArrow=none;dashed=1;html=1;rounded=0;" edge="1" parent="2BVFV6PtjXRRdMwMBUO1-1">
          <mxGeometry width="50" height="50" relative="1" as="geometry">
            <mxPoint x="70" y="-160" as="sourcePoint" />
            <mxPoint x="1620" y="-160" as="targetPoint" />
          </mxGeometry>
        </mxCell>
        <mxCell id="2BVFV6PtjXRRdMwMBUO1-26" style="edgeStyle=orthogonalEdgeStyle;rounded=0;orthogonalLoop=1;jettySize=auto;html=1;exitX=0.5;exitY=1;exitDx=0;exitDy=0;entryX=0.5;entryY=0;entryDx=0;entryDy=0;" edge="1" parent="2BVFV6PtjXRRdMwMBUO1-1" source="2BVFV6PtjXRRdMwMBUO1-30" target="2BVFV6PtjXRRdMwMBUO1-40">
          <mxGeometry relative="1" as="geometry" />
        </mxCell>
        <mxCell id="2BVFV6PtjXRRdMwMBUO1-27" value="current" style="edgeLabel;html=1;align=center;verticalAlign=middle;resizable=0;points=[];" vertex="1" connectable="0" parent="2BVFV6PtjXRRdMwMBUO1-26">
          <mxGeometry x="0.0342" y="-1" relative="1" as="geometry">
            <mxPoint as="offset" />
          </mxGeometry>
        </mxCell>
        <mxCell id="2BVFV6PtjXRRdMwMBUO1-28" style="edgeStyle=orthogonalEdgeStyle;rounded=0;orthogonalLoop=1;jettySize=auto;html=1;exitX=1;exitY=0.5;exitDx=0;exitDy=0;" edge="1" parent="2BVFV6PtjXRRdMwMBUO1-1" source="2BVFV6PtjXRRdMwMBUO1-30">
          <mxGeometry relative="1" as="geometry">
            <mxPoint x="400" y="760" as="targetPoint" />
          </mxGeometry>
        </mxCell>
        <mxCell id="2BVFV6PtjXRRdMwMBUO1-29" value="finishedWork" style="edgeLabel;html=1;align=center;verticalAlign=middle;resizable=0;points=[];" vertex="1" connectable="0" parent="2BVFV6PtjXRRdMwMBUO1-28">
          <mxGeometry x="-0.3058" y="1" relative="1" as="geometry">
            <mxPoint as="offset" />
          </mxGeometry>
        </mxCell>
        <mxCell id="2BVFV6PtjXRRdMwMBUO1-30" value="FiberRootNode" style="whiteSpace=wrap;html=1;" vertex="1" parent="2BVFV6PtjXRRdMwMBUO1-1">
          <mxGeometry x="120" y="720" width="160" height="80" as="geometry" />
        </mxCell>
        <mxCell id="2BVFV6PtjXRRdMwMBUO1-31" style="edgeStyle=orthogonalEdgeStyle;rounded=0;orthogonalLoop=1;jettySize=auto;html=1;exitX=1;exitY=0.5;exitDx=0;exitDy=0;entryX=0;entryY=0.5;entryDx=0;entryDy=0;" edge="1" parent="2BVFV6PtjXRRdMwMBUO1-1" source="2BVFV6PtjXRRdMwMBUO1-32" target="2BVFV6PtjXRRdMwMBUO1-40">
          <mxGeometry relative="1" as="geometry" />
        </mxCell>
        <mxCell id="2BVFV6PtjXRRdMwMBUO1-32" value="HostRoot&lt;div&gt;&lt;br&gt;&lt;div&gt;stateNode = FiberRoot&lt;/div&gt;&lt;/div&gt;" style="whiteSpace=wrap;html=1;" vertex="1" parent="2BVFV6PtjXRRdMwMBUO1-1">
          <mxGeometry x="120" y="840" width="160" height="120" as="geometry" />
        </mxCell>
        <mxCell id="2BVFV6PtjXRRdMwMBUO1-33" value="" style="endArrow=none;dashed=1;html=1;dashPattern=1 3;strokeWidth=2;rounded=0;" edge="1" parent="2BVFV6PtjXRRdMwMBUO1-1">
          <mxGeometry width="50" height="50" relative="1" as="geometry">
            <mxPoint x="30" y="560" as="sourcePoint" />
            <mxPoint x="1640" y="560" as="targetPoint" />
          </mxGeometry>
        </mxCell>
        <mxCell id="2BVFV6PtjXRRdMwMBUO1-34" value="Fiber tree" style="rounded=0;whiteSpace=wrap;html=1;" vertex="1" parent="2BVFV6PtjXRRdMwMBUO1-1">
          <mxGeometry x="40" y="560" width="120" height="60" as="geometry" />
        </mxCell>
        <mxCell id="2BVFV6PtjXRRdMwMBUO1-35" style="edgeStyle=orthogonalEdgeStyle;rounded=0;orthogonalLoop=1;jettySize=auto;html=1;exitX=0;exitY=0.5;exitDx=0;exitDy=0;" edge="1" parent="2BVFV6PtjXRRdMwMBUO1-1" source="2BVFV6PtjXRRdMwMBUO1-36">
          <mxGeometry relative="1" as="geometry">
            <mxPoint x="360" y="670" as="targetPoint" />
          </mxGeometry>
        </mxCell>
        <mxCell id="2BVFV6PtjXRRdMwMBUO1-36" value="workInProgressRoot" style="whiteSpace=wrap;html=1;" vertex="1" parent="2BVFV6PtjXRRdMwMBUO1-1">
          <mxGeometry x="414" y="640" width="120" height="60" as="geometry" />
        </mxCell>
        <mxCell id="2BVFV6PtjXRRdMwMBUO1-37" style="edgeStyle=orthogonalEdgeStyle;rounded=0;orthogonalLoop=1;jettySize=auto;html=1;exitX=0;exitY=0.5;exitDx=0;exitDy=0;entryX=1;entryY=0.5;entryDx=0;entryDy=0;" edge="1" parent="2BVFV6PtjXRRdMwMBUO1-1" source="2BVFV6PtjXRRdMwMBUO1-40" target="2BVFV6PtjXRRdMwMBUO1-32">
          <mxGeometry relative="1" as="geometry" />
        </mxCell>
        <mxCell id="2BVFV6PtjXRRdMwMBUO1-38" value="alternate" style="edgeLabel;html=1;align=center;verticalAlign=middle;resizable=0;points=[];" vertex="1" connectable="0" parent="2BVFV6PtjXRRdMwMBUO1-37">
          <mxGeometry x="0.0289" y="-1" relative="1" as="geometry">
            <mxPoint as="offset" />
          </mxGeometry>
        </mxCell>
        <mxCell id="2BVFV6PtjXRRdMwMBUO1-39" style="edgeStyle=orthogonalEdgeStyle;rounded=0;orthogonalLoop=1;jettySize=auto;html=1;exitX=0.5;exitY=1;exitDx=0;exitDy=0;entryX=0.5;entryY=0;entryDx=0;entryDy=0;" edge="1" parent="2BVFV6PtjXRRdMwMBUO1-1" source="2BVFV6PtjXRRdMwMBUO1-40" target="2BVFV6PtjXRRdMwMBUO1-70">
          <mxGeometry relative="1" as="geometry" />
        </mxCell>
        <mxCell id="2BVFV6PtjXRRdMwMBUO1-40" value="HostRoot&lt;div&gt;&lt;br&gt;&lt;/div&gt;&lt;div&gt;stateNode = FiberRoot&lt;/div&gt;" style="whiteSpace=wrap;html=1;" vertex="1" parent="2BVFV6PtjXRRdMwMBUO1-1">
          <mxGeometry x="400" y="840" width="160" height="120" as="geometry" />
        </mxCell>
        <mxCell id="2BVFV6PtjXRRdMwMBUO1-41" value="" style="endArrow=none;dashed=1;html=1;dashPattern=1 3;strokeWidth=2;rounded=0;" edge="1" parent="2BVFV6PtjXRRdMwMBUO1-1">
          <mxGeometry width="50" height="50" relative="1" as="geometry">
            <mxPoint x="40" y="-360" as="sourcePoint" />
            <mxPoint x="1610" y="-360" as="targetPoint" />
          </mxGeometry>
        </mxCell>
        <mxCell id="2BVFV6PtjXRRdMwMBUO1-42" style="edgeStyle=orthogonalEdgeStyle;rounded=0;orthogonalLoop=1;jettySize=auto;html=1;exitX=0.5;exitY=1;exitDx=0;exitDy=0;entryX=1;entryY=0.75;entryDx=0;entryDy=0;" edge="1" parent="2BVFV6PtjXRRdMwMBUO1-1" source="2BVFV6PtjXRRdMwMBUO1-21" target="2BVFV6PtjXRRdMwMBUO1-21">
          <mxGeometry relative="1" as="geometry" />
        </mxCell>
        <mxCell id="2BVFV6PtjXRRdMwMBUO1-43" value="next" style="edgeLabel;html=1;align=center;verticalAlign=middle;resizable=0;points=[];" vertex="1" connectable="0" parent="2BVFV6PtjXRRdMwMBUO1-42">
          <mxGeometry x="-0.2378" y="3" relative="1" as="geometry">
            <mxPoint as="offset" />
          </mxGeometry>
        </mxCell>
        <mxCell id="2BVFV6PtjXRRdMwMBUO1-44" value="HostRoot curent" style="whiteSpace=wrap;html=1;" vertex="1" parent="2BVFV6PtjXRRdMwMBUO1-1">
          <mxGeometry x="70" y="-160" width="120" height="60" as="geometry" />
        </mxCell>
        <mxCell id="2BVFV6PtjXRRdMwMBUO1-45" style="edgeStyle=orthogonalEdgeStyle;rounded=0;orthogonalLoop=1;jettySize=auto;html=1;exitX=0.5;exitY=1;exitDx=0;exitDy=0;entryX=0.5;entryY=0;entryDx=0;entryDy=0;" edge="1" parent="2BVFV6PtjXRRdMwMBUO1-1" source="2BVFV6PtjXRRdMwMBUO1-51" target="2BVFV6PtjXRRdMwMBUO1-57">
          <mxGeometry relative="1" as="geometry" />
        </mxCell>
        <mxCell id="2BVFV6PtjXRRdMwMBUO1-46" value="updateQueue" style="edgeLabel;html=1;align=center;verticalAlign=middle;resizable=0;points=[];" vertex="1" connectable="0" parent="2BVFV6PtjXRRdMwMBUO1-45">
          <mxGeometry x="-0.0908" y="-1" relative="1" as="geometry">
            <mxPoint as="offset" />
          </mxGeometry>
        </mxCell>
        <mxCell id="2BVFV6PtjXRRdMwMBUO1-47" style="edgeStyle=orthogonalEdgeStyle;rounded=0;orthogonalLoop=1;jettySize=auto;html=1;exitX=0.5;exitY=0;exitDx=0;exitDy=0;entryX=0.5;entryY=1;entryDx=0;entryDy=0;" edge="1" parent="2BVFV6PtjXRRdMwMBUO1-1" source="2BVFV6PtjXRRdMwMBUO1-51" target="2BVFV6PtjXRRdMwMBUO1-64">
          <mxGeometry relative="1" as="geometry" />
        </mxCell>
        <mxCell id="2BVFV6PtjXRRdMwMBUO1-48" value="callbackNode" style="edgeLabel;html=1;align=center;verticalAlign=middle;resizable=0;points=[];" vertex="1" connectable="0" parent="2BVFV6PtjXRRdMwMBUO1-47">
          <mxGeometry x="0.0433" y="1" relative="1" as="geometry">
            <mxPoint x="1" y="7" as="offset" />
          </mxGeometry>
        </mxCell>
        <mxCell id="2BVFV6PtjXRRdMwMBUO1-49" style="edgeStyle=orthogonalEdgeStyle;rounded=0;orthogonalLoop=1;jettySize=auto;html=1;exitX=1;exitY=0.5;exitDx=0;exitDy=0;" edge="1" parent="2BVFV6PtjXRRdMwMBUO1-1" source="2BVFV6PtjXRRdMwMBUO1-51" target="2BVFV6PtjXRRdMwMBUO1-77">
          <mxGeometry relative="1" as="geometry" />
        </mxCell>
        <mxCell id="2BVFV6PtjXRRdMwMBUO1-50" value="memoizedState" style="edgeLabel;html=1;align=center;verticalAlign=middle;resizable=0;points=[];" vertex="1" connectable="0" parent="2BVFV6PtjXRRdMwMBUO1-49">
          <mxGeometry x="-0.5951" y="1" relative="1" as="geometry">
            <mxPoint as="offset" />
          </mxGeometry>
        </mxCell>
        <mxCell id="2BVFV6PtjXRRdMwMBUO1-51" value="HostRoot&lt;br&gt;&lt;div&gt;&lt;br&gt;&lt;/div&gt;&lt;div&gt;pendingProps = null&lt;/div&gt;&lt;div&gt;stateNode = FiberRoot&lt;/div&gt;" style="whiteSpace=wrap;html=1;" vertex="1" parent="2BVFV6PtjXRRdMwMBUO1-1">
          <mxGeometry x="198" y="-840" width="200" height="120" as="geometry" />
        </mxCell>
        <mxCell id="2BVFV6PtjXRRdMwMBUO1-52" value="&lt;div&gt;element = &amp;lt;App /&amp;gt;&lt;/div&gt;" style="whiteSpace=wrap;html=1;" vertex="1" parent="2BVFV6PtjXRRdMwMBUO1-1">
          <mxGeometry x="534" y="-760" width="140" height="65" as="geometry" />
        </mxCell>
        <mxCell id="2BVFV6PtjXRRdMwMBUO1-53" style="edgeStyle=orthogonalEdgeStyle;rounded=0;orthogonalLoop=1;jettySize=auto;html=1;exitX=1.004;exitY=0.173;exitDx=0;exitDy=0;entryX=0.5;entryY=1;entryDx=0;entryDy=0;exitPerimeter=0;" edge="1" parent="2BVFV6PtjXRRdMwMBUO1-1" source="2BVFV6PtjXRRdMwMBUO1-57" target="2BVFV6PtjXRRdMwMBUO1-52">
          <mxGeometry relative="1" as="geometry" />
        </mxCell>
        <mxCell id="2BVFV6PtjXRRdMwMBUO1-54" value="&lt;span style=&quot;font-size: 12px; text-wrap-mode: wrap; background-color: rgb(251, 251, 251);&quot;&gt;baseState&lt;/span&gt;" style="edgeLabel;html=1;align=center;verticalAlign=middle;resizable=0;points=[];" vertex="1" connectable="0" parent="2BVFV6PtjXRRdMwMBUO1-53">
          <mxGeometry x="-0.4006" y="1" relative="1" as="geometry">
            <mxPoint as="offset" />
          </mxGeometry>
        </mxCell>
        <mxCell id="2BVFV6PtjXRRdMwMBUO1-55" style="edgeStyle=orthogonalEdgeStyle;rounded=0;orthogonalLoop=1;jettySize=auto;html=1;exitX=1;exitY=0.5;exitDx=0;exitDy=0;entryX=0;entryY=0.5;entryDx=0;entryDy=0;" edge="1" parent="2BVFV6PtjXRRdMwMBUO1-1" source="2BVFV6PtjXRRdMwMBUO1-57" target="2BVFV6PtjXRRdMwMBUO1-62">
          <mxGeometry relative="1" as="geometry" />
        </mxCell>
        <mxCell id="2BVFV6PtjXRRdMwMBUO1-56" value="shared" style="edgeLabel;html=1;align=center;verticalAlign=middle;resizable=0;points=[];" vertex="1" connectable="0" parent="2BVFV6PtjXRRdMwMBUO1-55">
          <mxGeometry x="-0.0845" relative="1" as="geometry">
            <mxPoint as="offset" />
          </mxGeometry>
        </mxCell>
        <mxCell id="2BVFV6PtjXRRdMwMBUO1-57" value="&lt;div&gt;&lt;span style=&quot;background-color: initial;&quot;&gt;firstBaseUpdate = null&lt;/span&gt;&lt;/div&gt;&lt;div&gt;lastBaseUpdate = nulll&lt;/div&gt;" style="whiteSpace=wrap;html=1;" vertex="1" parent="2BVFV6PtjXRRdMwMBUO1-1">
          <mxGeometry x="180" y="-660" width="236" height="110" as="geometry" />
        </mxCell>
        <mxCell id="2BVFV6PtjXRRdMwMBUO1-58" style="edgeStyle=orthogonalEdgeStyle;rounded=0;orthogonalLoop=1;jettySize=auto;html=1;exitX=1;exitY=0.75;exitDx=0;exitDy=0;entryX=0;entryY=0.5;entryDx=0;entryDy=0;" edge="1" parent="2BVFV6PtjXRRdMwMBUO1-1" source="2BVFV6PtjXRRdMwMBUO1-62" target="2BVFV6PtjXRRdMwMBUO1-63">
          <mxGeometry relative="1" as="geometry" />
        </mxCell>
        <mxCell id="2BVFV6PtjXRRdMwMBUO1-59" value="interleaved" style="edgeLabel;html=1;align=center;verticalAlign=middle;resizable=0;points=[];" vertex="1" connectable="0" parent="2BVFV6PtjXRRdMwMBUO1-58">
          <mxGeometry x="-0.0161" y="-2" relative="1" as="geometry">
            <mxPoint as="offset" />
          </mxGeometry>
        </mxCell>
        <mxCell id="2BVFV6PtjXRRdMwMBUO1-60" style="edgeStyle=orthogonalEdgeStyle;rounded=0;orthogonalLoop=1;jettySize=auto;html=1;exitX=1;exitY=0.25;exitDx=0;exitDy=0;entryX=0;entryY=0.5;entryDx=0;entryDy=0;" edge="1" parent="2BVFV6PtjXRRdMwMBUO1-1" source="2BVFV6PtjXRRdMwMBUO1-62" target="2BVFV6PtjXRRdMwMBUO1-66">
          <mxGeometry relative="1" as="geometry" />
        </mxCell>
        <mxCell id="2BVFV6PtjXRRdMwMBUO1-61" value="pendding" style="edgeLabel;html=1;align=center;verticalAlign=middle;resizable=0;points=[];" vertex="1" connectable="0" parent="2BVFV6PtjXRRdMwMBUO1-60">
          <mxGeometry x="-0.2415" y="1" relative="1" as="geometry">
            <mxPoint x="-3" y="-16" as="offset" />
          </mxGeometry>
        </mxCell>
        <mxCell id="2BVFV6PtjXRRdMwMBUO1-62" value="&lt;div&gt;queue&lt;/div&gt;&lt;div&gt;&lt;br&gt;&lt;/div&gt;interleaved = null&lt;span style=&quot;background-color: initial;&quot;&gt;l&lt;/span&gt;" style="whiteSpace=wrap;html=1;" vertex="1" parent="2BVFV6PtjXRRdMwMBUO1-1">
          <mxGeometry x="534" y="-600" width="120" height="60" as="geometry" />
        </mxCell>
        <mxCell id="2BVFV6PtjXRRdMwMBUO1-63" value="null" style="whiteSpace=wrap;html=1;" vertex="1" parent="2BVFV6PtjXRRdMwMBUO1-1">
          <mxGeometry x="760" y="-560" width="120" height="60" as="geometry" />
        </mxCell>
        <mxCell id="2BVFV6PtjXRRdMwMBUO1-64" value="callback = null" style="whiteSpace=wrap;html=1;" vertex="1" parent="2BVFV6PtjXRRdMwMBUO1-1">
          <mxGeometry x="90" y="-970" width="416" height="60" as="geometry" />
        </mxCell>
        <mxCell id="2BVFV6PtjXRRdMwMBUO1-65" value="HostRoot&amp;nbsp;&lt;span style=&quot;background-color: initial;&quot;&gt;workInProgress&lt;/span&gt;" style="whiteSpace=wrap;html=1;" vertex="1" parent="2BVFV6PtjXRRdMwMBUO1-1">
          <mxGeometry x="80" y="-1080" width="180" height="60" as="geometry" />
        </mxCell>
        <mxCell id="2BVFV6PtjXRRdMwMBUO1-66" value="null" style="whiteSpace=wrap;html=1;" vertex="1" parent="2BVFV6PtjXRRdMwMBUO1-1">
          <mxGeometry x="754" y="-670" width="120" height="60" as="geometry" />
        </mxCell>
        <mxCell id="2BVFV6PtjXRRdMwMBUO1-67" style="edgeStyle=orthogonalEdgeStyle;rounded=0;orthogonalLoop=1;jettySize=auto;html=1;exitX=0.5;exitY=0;exitDx=0;exitDy=0;entryX=0.5;entryY=1;entryDx=0;entryDy=0;" edge="1" parent="2BVFV6PtjXRRdMwMBUO1-1" source="2BVFV6PtjXRRdMwMBUO1-70" target="2BVFV6PtjXRRdMwMBUO1-40">
          <mxGeometry relative="1" as="geometry" />
        </mxCell>
        <mxCell id="2BVFV6PtjXRRdMwMBUO1-68" value="child / return" style="edgeLabel;html=1;align=center;verticalAlign=middle;resizable=0;points=[];" vertex="1" connectable="0" parent="2BVFV6PtjXRRdMwMBUO1-67">
          <mxGeometry x="0.0301" y="1" relative="1" as="geometry">
            <mxPoint y="1" as="offset" />
          </mxGeometry>
        </mxCell>
        <mxCell id="2BVFV6PtjXRRdMwMBUO1-69" style="edgeStyle=orthogonalEdgeStyle;rounded=0;orthogonalLoop=1;jettySize=auto;html=1;exitX=0.5;exitY=1;exitDx=0;exitDy=0;entryX=0.5;entryY=0;entryDx=0;entryDy=0;" edge="1" parent="2BVFV6PtjXRRdMwMBUO1-1" source="2BVFV6PtjXRRdMwMBUO1-70" target="2BVFV6PtjXRRdMwMBUO1-100">
          <mxGeometry relative="1" as="geometry" />
        </mxCell>
        <mxCell id="2BVFV6PtjXRRdMwMBUO1-70" value="IndeterminateComponent App&lt;div&gt;&lt;br&gt;&lt;/div&gt;&lt;div&gt;stateNode = null&lt;/div&gt;&lt;div&gt;memoizedProps = { }&lt;/div&gt;&lt;div&gt;pendingProps = { }&lt;/div&gt;&lt;div&gt;memoizedState = hook&lt;/div&gt;" style="whiteSpace=wrap;html=1;" vertex="1" parent="2BVFV6PtjXRRdMwMBUO1-1">
          <mxGeometry x="380" y="1000" width="200" height="120" as="geometry" />
        </mxCell>
        <mxCell id="2BVFV6PtjXRRdMwMBUO1-73" style="edgeStyle=orthogonalEdgeStyle;rounded=0;orthogonalLoop=1;jettySize=auto;html=1;exitX=1;exitY=0.5;exitDx=0;exitDy=0;entryX=0;entryY=0.5;entryDx=0;entryDy=0;" edge="1" parent="2BVFV6PtjXRRdMwMBUO1-1" source="2BVFV6PtjXRRdMwMBUO1-77" target="2BVFV6PtjXRRdMwMBUO1-80">
          <mxGeometry relative="1" as="geometry" />
        </mxCell>
        <mxCell id="2BVFV6PtjXRRdMwMBUO1-74" value="queue" style="edgeLabel;html=1;align=center;verticalAlign=middle;resizable=0;points=[];" vertex="1" connectable="0" parent="2BVFV6PtjXRRdMwMBUO1-73">
          <mxGeometry x="-0.0382" relative="1" as="geometry">
            <mxPoint as="offset" />
          </mxGeometry>
        </mxCell>
        <mxCell id="2BVFV6PtjXRRdMwMBUO1-75" style="edgeStyle=orthogonalEdgeStyle;rounded=0;orthogonalLoop=1;jettySize=auto;html=1;exitX=0.5;exitY=1;exitDx=0;exitDy=0;entryX=0.5;entryY=0;entryDx=0;entryDy=0;" edge="1" parent="2BVFV6PtjXRRdMwMBUO1-1" source="2BVFV6PtjXRRdMwMBUO1-77" target="2BVFV6PtjXRRdMwMBUO1-87">
          <mxGeometry relative="1" as="geometry" />
        </mxCell>
        <mxCell id="2BVFV6PtjXRRdMwMBUO1-76" value="next" style="edgeLabel;html=1;align=center;verticalAlign=middle;resizable=0;points=[];" vertex="1" connectable="0" parent="2BVFV6PtjXRRdMwMBUO1-75">
          <mxGeometry x="-0.1615" y="-1" relative="1" as="geometry">
            <mxPoint as="offset" />
          </mxGeometry>
        </mxCell>
        <mxCell id="2BVFV6PtjXRRdMwMBUO1-77" value="hook&lt;div&gt;&lt;br&gt;&lt;/div&gt;&lt;div&gt;memoizedState = 0&lt;/div&gt;&lt;div&gt;baseState = 0&lt;/div&gt;&lt;div&gt;baseQueue = null&lt;/div&gt;" style="whiteSpace=wrap;html=1;" vertex="1" parent="2BVFV6PtjXRRdMwMBUO1-1">
          <mxGeometry x="1160" y="-920" width="160" height="160" as="geometry" />
        </mxCell>
        <mxCell id="2BVFV6PtjXRRdMwMBUO1-78" value="workInProgressHook" style="whiteSpace=wrap;html=1;" vertex="1" parent="2BVFV6PtjXRRdMwMBUO1-1">
          <mxGeometry x="960" y="-630" width="150" height="60" as="geometry" />
        </mxCell>
        <mxCell id="2BVFV6PtjXRRdMwMBUO1-79" style="edgeStyle=orthogonalEdgeStyle;rounded=0;orthogonalLoop=1;jettySize=auto;html=1;exitX=0.5;exitY=1;exitDx=0;exitDy=0;entryX=0;entryY=0.5;entryDx=0;entryDy=0;" edge="1" parent="2BVFV6PtjXRRdMwMBUO1-1" source="2BVFV6PtjXRRdMwMBUO1-78" target="2BVFV6PtjXRRdMwMBUO1-87">
          <mxGeometry relative="1" as="geometry" />
        </mxCell>
        <mxCell id="2BVFV6PtjXRRdMwMBUO1-80" value="queue&lt;div&gt;&lt;br&gt;&lt;/div&gt;&lt;div&gt;pending = null&lt;/div&gt;&lt;div&gt;interleaved = null&lt;/div&gt;&lt;div&gt;dispatch =&amp;nbsp;dispatchSetState.bind(null, FiberApp, FiberApp.memoizedState.queue)&lt;/div&gt;&lt;div&gt;lastRenderedReducer: basicStateReducer&lt;/div&gt;&lt;div&gt;lastRenderedState = 0&lt;/div&gt;" style="whiteSpace=wrap;html=1;" vertex="1" parent="2BVFV6PtjXRRdMwMBUO1-1">
          <mxGeometry x="1400" y="-920" width="480" height="160" as="geometry" />
        </mxCell>
        <mxCell id="2BVFV6PtjXRRdMwMBUO1-85" style="edgeStyle=orthogonalEdgeStyle;rounded=0;orthogonalLoop=1;jettySize=auto;html=1;exitX=1;exitY=0.5;exitDx=0;exitDy=0;entryX=0;entryY=0.5;entryDx=0;entryDy=0;" edge="1" parent="2BVFV6PtjXRRdMwMBUO1-1" source="2BVFV6PtjXRRdMwMBUO1-87" target="2BVFV6PtjXRRdMwMBUO1-88">
          <mxGeometry relative="1" as="geometry" />
        </mxCell>
        <mxCell id="2BVFV6PtjXRRdMwMBUO1-86" value="queue" style="edgeLabel;html=1;align=center;verticalAlign=middle;resizable=0;points=[];" vertex="1" connectable="0" parent="2BVFV6PtjXRRdMwMBUO1-85">
          <mxGeometry x="-0.0702" y="-2" relative="1" as="geometry">
            <mxPoint x="1" as="offset" />
          </mxGeometry>
        </mxCell>
        <mxCell id="2BVFV6PtjXRRdMwMBUO1-87" value="hook&lt;div&gt;&lt;br&gt;&lt;/div&gt;&lt;div&gt;memoizedState = true&lt;/div&gt;&lt;div&gt;baseState = true&lt;/div&gt;&lt;div&gt;baseQueue = null&lt;/div&gt;&lt;div&gt;next = null&lt;/div&gt;" style="whiteSpace=wrap;html=1;" vertex="1" parent="2BVFV6PtjXRRdMwMBUO1-1">
          <mxGeometry x="1160" y="-720" width="160" height="160" as="geometry" />
        </mxCell>
        <mxCell id="2BVFV6PtjXRRdMwMBUO1-88" value="queue&lt;div&gt;&lt;br&gt;&lt;/div&gt;&lt;div&gt;pending = null&lt;/div&gt;&lt;div&gt;interleaved = null&lt;/div&gt;&lt;div&gt;dispatch =&amp;nbsp;dispatchSetState.bind(null, FiberApp, FiberApp.memoizedState.queue)&lt;/div&gt;&lt;div&gt;lastRenderedReducer: basicStateReducer&lt;/div&gt;&lt;div&gt;lastRenderedState = true&lt;/div&gt;" style="whiteSpace=wrap;html=1;" vertex="1" parent="2BVFV6PtjXRRdMwMBUO1-1">
          <mxGeometry x="1400" y="-720" width="480" height="160" as="geometry" />
        </mxCell>
        <mxCell id="2BVFV6PtjXRRdMwMBUO1-97" style="edgeStyle=orthogonalEdgeStyle;rounded=0;orthogonalLoop=1;jettySize=auto;html=1;exitX=0.5;exitY=0;exitDx=0;exitDy=0;" edge="1" parent="2BVFV6PtjXRRdMwMBUO1-1" source="2BVFV6PtjXRRdMwMBUO1-100">
          <mxGeometry relative="1" as="geometry">
            <mxPoint x="480" y="1120" as="targetPoint" />
          </mxGeometry>
        </mxCell>
        <mxCell id="2BVFV6PtjXRRdMwMBUO1-98" value="child / return" style="edgeLabel;html=1;align=center;verticalAlign=middle;resizable=0;points=[];" vertex="1" connectable="0" parent="2BVFV6PtjXRRdMwMBUO1-97">
          <mxGeometry x="0.1949" y="3" relative="1" as="geometry">
            <mxPoint x="3" y="3" as="offset" />
          </mxGeometry>
        </mxCell>
        <mxCell id="2BVFV6PtjXRRdMwMBUO1-99" style="edgeStyle=orthogonalEdgeStyle;rounded=0;orthogonalLoop=1;jettySize=auto;html=1;exitX=0.5;exitY=1;exitDx=0;exitDy=0;entryX=0.5;entryY=0;entryDx=0;entryDy=0;" edge="1" parent="2BVFV6PtjXRRdMwMBUO1-1" source="2BVFV6PtjXRRdMwMBUO1-100" target="2BVFV6PtjXRRdMwMBUO1-105">
          <mxGeometry relative="1" as="geometry" />
        </mxCell>
        <mxCell id="2BVFV6PtjXRRdMwMBUO1-100" value="HostComponent div&lt;div&gt;&lt;br&gt;&lt;/div&gt;&lt;div&gt;stateNode = DOM div&lt;/div&gt;&lt;div&gt;memoizedProps =&amp;nbsp;&lt;span style=&quot;background-color: initial;&quot;&gt;{ children: Array(3)&lt;/span&gt;&lt;span style=&quot;background-color: initial;&quot;&gt;&amp;nbsp;&lt;/span&gt;&lt;/div&gt;&lt;div&gt;pendingProps = { children: Array(3) }&lt;/div&gt;&lt;div&gt;memoizedState =&amp;nbsp; null&lt;/div&gt;" style="whiteSpace=wrap;html=1;" vertex="1" parent="2BVFV6PtjXRRdMwMBUO1-1">
          <mxGeometry x="360" y="1160" width="240" height="120" as="geometry" />
        </mxCell>
        <mxCell id="2BVFV6PtjXRRdMwMBUO1-101" style="edgeStyle=orthogonalEdgeStyle;rounded=0;orthogonalLoop=1;jettySize=auto;html=1;exitX=0.5;exitY=0;exitDx=0;exitDy=0;entryX=0.5;entryY=1;entryDx=0;entryDy=0;" edge="1" parent="2BVFV6PtjXRRdMwMBUO1-1" source="2BVFV6PtjXRRdMwMBUO1-105" target="2BVFV6PtjXRRdMwMBUO1-100">
          <mxGeometry relative="1" as="geometry" />
        </mxCell>
        <mxCell id="2BVFV6PtjXRRdMwMBUO1-102" value="child / return" style="edgeLabel;html=1;align=center;verticalAlign=middle;resizable=0;points=[];" vertex="1" connectable="0" parent="2BVFV6PtjXRRdMwMBUO1-101">
          <mxGeometry x="0.109" y="2" relative="1" as="geometry">
            <mxPoint x="2" y="24" as="offset" />
          </mxGeometry>
        </mxCell>
        <mxCell id="2BVFV6PtjXRRdMwMBUO1-103" style="edgeStyle=orthogonalEdgeStyle;rounded=0;orthogonalLoop=1;jettySize=auto;html=1;exitX=1;exitY=0.5;exitDx=0;exitDy=0;entryX=0;entryY=0.5;entryDx=0;entryDy=0;" edge="1" parent="2BVFV6PtjXRRdMwMBUO1-1" source="2BVFV6PtjXRRdMwMBUO1-105" target="2BVFV6PtjXRRdMwMBUO1-111">
          <mxGeometry relative="1" as="geometry" />
        </mxCell>
        <mxCell id="2BVFV6PtjXRRdMwMBUO1-104" value="sibling" style="edgeLabel;html=1;align=center;verticalAlign=middle;resizable=0;points=[];" vertex="1" connectable="0" parent="2BVFV6PtjXRRdMwMBUO1-103">
          <mxGeometry x="-0.003" y="2" relative="1" as="geometry">
            <mxPoint as="offset" />
          </mxGeometry>
        </mxCell>
        <mxCell id="2BVFV6PtjXRRdMwMBUO1-105" value="HostComponent button&lt;div&gt;&lt;br&gt;&lt;/div&gt;&lt;div&gt;stateNode = DOM button&lt;/div&gt;&lt;div&gt;memoizedProps =&amp;nbsp;&lt;span style=&quot;background-color: initial;&quot;&gt;{ children: &quot;Click me&quot;, onClick }&lt;/span&gt;&lt;/div&gt;&lt;div&gt;pendingProps = { children: &quot;Click me&quot;, onClick }&lt;/div&gt;&lt;div&gt;memoizedState =&amp;nbsp; null&lt;/div&gt;&lt;div&gt;index = 0&lt;/div&gt;" style="whiteSpace=wrap;html=1;" vertex="1" parent="2BVFV6PtjXRRdMwMBUO1-1">
          <mxGeometry x="340" y="1360" width="280" height="120" as="geometry" />
        </mxCell>
        <mxCell id="2BVFV6PtjXRRdMwMBUO1-106" style="edgeStyle=orthogonalEdgeStyle;rounded=0;orthogonalLoop=1;jettySize=auto;html=1;exitX=0.5;exitY=0;exitDx=0;exitDy=0;" edge="1" parent="2BVFV6PtjXRRdMwMBUO1-1" source="2BVFV6PtjXRRdMwMBUO1-111">
          <mxGeometry relative="1" as="geometry">
            <mxPoint x="480" y="1280" as="targetPoint" />
          </mxGeometry>
        </mxCell>
        <mxCell id="2BVFV6PtjXRRdMwMBUO1-107" value="return" style="edgeLabel;html=1;align=center;verticalAlign=middle;resizable=0;points=[];" vertex="1" connectable="0" parent="2BVFV6PtjXRRdMwMBUO1-106">
          <mxGeometry x="-0.8862" relative="1" as="geometry">
            <mxPoint as="offset" />
          </mxGeometry>
        </mxCell>
        <mxCell id="2BVFV6PtjXRRdMwMBUO1-108" style="edgeStyle=orthogonalEdgeStyle;rounded=0;orthogonalLoop=1;jettySize=auto;html=1;exitX=1;exitY=0.5;exitDx=0;exitDy=0;entryX=0;entryY=0.5;entryDx=0;entryDy=0;" edge="1" parent="2BVFV6PtjXRRdMwMBUO1-1" source="2BVFV6PtjXRRdMwMBUO1-111" target="2BVFV6PtjXRRdMwMBUO1-115">
          <mxGeometry relative="1" as="geometry" />
        </mxCell>
        <mxCell id="2BVFV6PtjXRRdMwMBUO1-109" value="sibling" style="edgeLabel;html=1;align=center;verticalAlign=middle;resizable=0;points=[];" vertex="1" connectable="0" parent="2BVFV6PtjXRRdMwMBUO1-108">
          <mxGeometry x="-0.0645" y="1" relative="1" as="geometry">
            <mxPoint as="offset" />
          </mxGeometry>
        </mxCell>
        <mxCell id="2BVFV6PtjXRRdMwMBUO1-110" style="edgeStyle=orthogonalEdgeStyle;rounded=0;orthogonalLoop=1;jettySize=auto;html=1;exitX=0.5;exitY=1;exitDx=0;exitDy=0;entryX=0.5;entryY=0;entryDx=0;entryDy=0;" edge="1" parent="2BVFV6PtjXRRdMwMBUO1-1" source="2BVFV6PtjXRRdMwMBUO1-111" target="2BVFV6PtjXRRdMwMBUO1-122">
          <mxGeometry relative="1" as="geometry" />
        </mxCell>
        <mxCell id="2BVFV6PtjXRRdMwMBUO1-111" value="IndeterminateComponent InDependState&lt;div&gt;&lt;br&gt;&lt;/div&gt;&lt;div&gt;stateNode = null&lt;/div&gt;&lt;div&gt;memoizedProps = { }&lt;/div&gt;&lt;div&gt;pendingProps = { }&lt;/div&gt;&lt;div&gt;memoizedState = null&lt;/div&gt;&lt;div&gt;index = 1&lt;/div&gt;" style="whiteSpace=wrap;html=1;" vertex="1" parent="2BVFV6PtjXRRdMwMBUO1-1">
          <mxGeometry x="700" y="1360" width="240" height="120" as="geometry" />
        </mxCell>
        <mxCell id="2BVFV6PtjXRRdMwMBUO1-112" style="edgeStyle=orthogonalEdgeStyle;rounded=0;orthogonalLoop=1;jettySize=auto;html=1;exitX=0.5;exitY=0;exitDx=0;exitDy=0;entryX=0.5;entryY=1;entryDx=0;entryDy=0;" edge="1" parent="2BVFV6PtjXRRdMwMBUO1-1" source="2BVFV6PtjXRRdMwMBUO1-115" target="2BVFV6PtjXRRdMwMBUO1-100">
          <mxGeometry relative="1" as="geometry" />
        </mxCell>
        <mxCell id="2BVFV6PtjXRRdMwMBUO1-113" value="return" style="edgeLabel;html=1;align=center;verticalAlign=middle;resizable=0;points=[];" vertex="1" connectable="0" parent="2BVFV6PtjXRRdMwMBUO1-112">
          <mxGeometry x="-0.9355" y="1" relative="1" as="geometry">
            <mxPoint as="offset" />
          </mxGeometry>
        </mxCell>
        <mxCell id="2BVFV6PtjXRRdMwMBUO1-114" style="edgeStyle=orthogonalEdgeStyle;rounded=0;orthogonalLoop=1;jettySize=auto;html=1;exitX=0.5;exitY=1;exitDx=0;exitDy=0;entryX=0.5;entryY=0;entryDx=0;entryDy=0;" edge="1" parent="2BVFV6PtjXRRdMwMBUO1-1" source="2BVFV6PtjXRRdMwMBUO1-115" target="2BVFV6PtjXRRdMwMBUO1-129">
          <mxGeometry relative="1" as="geometry" />
        </mxCell>
        <mxCell id="2BVFV6PtjXRRdMwMBUO1-115" value="IndeterminateComponent DependState&lt;div&gt;&lt;br&gt;&lt;/div&gt;&lt;div&gt;stateNode = null&lt;/div&gt;&lt;div&gt;memoizedProps = { count: 0 }&lt;/div&gt;&lt;div&gt;pendingProps = { count:&amp;nbsp; 0 }&lt;/div&gt;&lt;div&gt;memoizedState = null&lt;/div&gt;&lt;div&gt;index = 2&lt;/div&gt;" style="whiteSpace=wrap;html=1;" vertex="1" parent="2BVFV6PtjXRRdMwMBUO1-1">
          <mxGeometry x="1020" y="1360" width="240" height="120" as="geometry" />
        </mxCell>
        <mxCell id="2BVFV6PtjXRRdMwMBUO1-120" style="edgeStyle=orthogonalEdgeStyle;rounded=0;orthogonalLoop=1;jettySize=auto;html=1;exitX=0.5;exitY=0;exitDx=0;exitDy=0;entryX=0.5;entryY=1;entryDx=0;entryDy=0;" edge="1" parent="2BVFV6PtjXRRdMwMBUO1-1" source="2BVFV6PtjXRRdMwMBUO1-122" target="2BVFV6PtjXRRdMwMBUO1-111">
          <mxGeometry relative="1" as="geometry" />
        </mxCell>
        <mxCell id="2BVFV6PtjXRRdMwMBUO1-121" value="child / return" style="edgeLabel;html=1;align=center;verticalAlign=middle;resizable=0;points=[];" vertex="1" connectable="0" parent="2BVFV6PtjXRRdMwMBUO1-120">
          <mxGeometry x="0.0171" relative="1" as="geometry">
            <mxPoint as="offset" />
          </mxGeometry>
        </mxCell>
        <mxCell id="2BVFV6PtjXRRdMwMBUO1-122" value="HostComponent p&lt;div&gt;&lt;br&gt;&lt;/div&gt;&lt;div&gt;stateNode = DOM p&lt;/div&gt;&lt;div&gt;memoizedProps =&amp;nbsp;&lt;span style=&quot;background-color: initial;&quot;&gt;{ children: &quot;render something ...&quot; }&lt;/span&gt;&lt;/div&gt;&lt;div&gt;pendingProps =&amp;nbsp;&lt;span style=&quot;background-color: initial;&quot;&gt;{ children: &quot;render something ...&quot; }&lt;/span&gt;&lt;/div&gt;&lt;div&gt;&lt;span style=&quot;background-color: initial;&quot;&gt;memoizedState =&amp;nbsp; null&lt;/span&gt;&lt;/div&gt;" style="whiteSpace=wrap;html=1;" vertex="1" parent="2BVFV6PtjXRRdMwMBUO1-1">
          <mxGeometry x="660" y="1520" width="320" height="120" as="geometry" />
        </mxCell>
        <mxCell id="2BVFV6PtjXRRdMwMBUO1-126" style="edgeStyle=orthogonalEdgeStyle;rounded=0;orthogonalLoop=1;jettySize=auto;html=1;exitX=0.5;exitY=0;exitDx=0;exitDy=0;entryX=0.5;entryY=1;entryDx=0;entryDy=0;" edge="1" parent="2BVFV6PtjXRRdMwMBUO1-1" source="2BVFV6PtjXRRdMwMBUO1-129" target="2BVFV6PtjXRRdMwMBUO1-115">
          <mxGeometry relative="1" as="geometry">
            <mxPoint x="1190.105263157895" y="1480" as="targetPoint" />
          </mxGeometry>
        </mxCell>
        <mxCell id="2BVFV6PtjXRRdMwMBUO1-127" value="child / return" style="edgeLabel;html=1;align=center;verticalAlign=middle;resizable=0;points=[];" vertex="1" connectable="0" parent="2BVFV6PtjXRRdMwMBUO1-126">
          <mxGeometry x="0.0267" y="-1" relative="1" as="geometry">
            <mxPoint x="-1" as="offset" />
          </mxGeometry>
        </mxCell>
        <mxCell id="2BVFV6PtjXRRdMwMBUO1-128" style="edgeStyle=orthogonalEdgeStyle;rounded=0;orthogonalLoop=1;jettySize=auto;html=1;exitX=0.5;exitY=1;exitDx=0;exitDy=0;entryX=0.5;entryY=0;entryDx=0;entryDy=0;" edge="1" parent="2BVFV6PtjXRRdMwMBUO1-1" source="2BVFV6PtjXRRdMwMBUO1-129" target="2BVFV6PtjXRRdMwMBUO1-134">
          <mxGeometry relative="1" as="geometry" />
        </mxCell>
        <mxCell id="2BVFV6PtjXRRdMwMBUO1-129" value="HostComponent span&lt;div&gt;&lt;br&gt;&lt;/div&gt;&lt;div&gt;stateNode = DOM span&lt;/div&gt;&lt;div&gt;memoizedProps =&amp;nbsp;&lt;span style=&quot;background-color: initial;&quot;&gt;{ children: Array(2) }&lt;/span&gt;&lt;/div&gt;&lt;div&gt;pendingProps =&amp;nbsp;&lt;span style=&quot;background-color: initial;&quot;&gt;{ children: Array(2) }&lt;/span&gt;&lt;/div&gt;&lt;div&gt;&lt;span style=&quot;background-color: initial;&quot;&gt;memoizedState =&amp;nbsp; null&lt;/span&gt;&lt;/div&gt;" style="whiteSpace=wrap;html=1;" vertex="1" parent="2BVFV6PtjXRRdMwMBUO1-1">
          <mxGeometry x="1020" y="1520" width="240" height="120" as="geometry" />
        </mxCell>
        <mxCell id="2BVFV6PtjXRRdMwMBUO1-130" style="edgeStyle=orthogonalEdgeStyle;rounded=0;orthogonalLoop=1;jettySize=auto;html=1;exitX=0.5;exitY=0;exitDx=0;exitDy=0;" edge="1" parent="2BVFV6PtjXRRdMwMBUO1-1" source="2BVFV6PtjXRRdMwMBUO1-134">
          <mxGeometry relative="1" as="geometry">
            <mxPoint x="1139.5789473684213" y="1640" as="targetPoint" />
          </mxGeometry>
        </mxCell>
        <mxCell id="2BVFV6PtjXRRdMwMBUO1-131" value="child / return" style="edgeLabel;html=1;align=center;verticalAlign=middle;resizable=0;points=[];" vertex="1" connectable="0" parent="2BVFV6PtjXRRdMwMBUO1-130">
          <mxGeometry x="0.0777" y="1" relative="1" as="geometry">
            <mxPoint x="1" y="23" as="offset" />
          </mxGeometry>
        </mxCell>
        <mxCell id="2BVFV6PtjXRRdMwMBUO1-132" style="edgeStyle=orthogonalEdgeStyle;rounded=0;orthogonalLoop=1;jettySize=auto;html=1;exitX=1;exitY=0.5;exitDx=0;exitDy=0;entryX=0;entryY=0.5;entryDx=0;entryDy=0;" edge="1" parent="2BVFV6PtjXRRdMwMBUO1-1" source="2BVFV6PtjXRRdMwMBUO1-134" target="2BVFV6PtjXRRdMwMBUO1-137">
          <mxGeometry relative="1" as="geometry" />
        </mxCell>
        <mxCell id="2BVFV6PtjXRRdMwMBUO1-133" value="sibling" style="edgeLabel;html=1;align=center;verticalAlign=middle;resizable=0;points=[];" vertex="1" connectable="0" parent="2BVFV6PtjXRRdMwMBUO1-132">
          <mxGeometry x="-0.0679" y="1" relative="1" as="geometry">
            <mxPoint as="offset" />
          </mxGeometry>
        </mxCell>
        <mxCell id="2BVFV6PtjXRRdMwMBUO1-134" value="HostText &quot;0&quot;&lt;div&gt;&lt;br&gt;&lt;/div&gt;&lt;div&gt;stateNode = DOM &quot;0&quot;&lt;/div&gt;&lt;div&gt;memoizedProps = &quot;0&quot;&lt;/div&gt;&lt;div&gt;pendingProps = &quot;0&quot;&lt;/div&gt;&lt;div&gt;&lt;span style=&quot;background-color: initial;&quot;&gt;memoizedState =&amp;nbsp; null&lt;/span&gt;&lt;/div&gt;" style="whiteSpace=wrap;html=1;" vertex="1" parent="2BVFV6PtjXRRdMwMBUO1-1">
          <mxGeometry x="1060" y="1720" width="160" height="120" as="geometry" />
        </mxCell>
        <mxCell id="2BVFV6PtjXRRdMwMBUO1-135" style="edgeStyle=orthogonalEdgeStyle;rounded=0;orthogonalLoop=1;jettySize=auto;html=1;exitX=0.5;exitY=0;exitDx=0;exitDy=0;entryX=0.5;entryY=1;entryDx=0;entryDy=0;" edge="1" parent="2BVFV6PtjXRRdMwMBUO1-1" source="2BVFV6PtjXRRdMwMBUO1-137" target="2BVFV6PtjXRRdMwMBUO1-129">
          <mxGeometry relative="1" as="geometry" />
        </mxCell>
        <mxCell id="2BVFV6PtjXRRdMwMBUO1-136" value="return" style="edgeLabel;html=1;align=center;verticalAlign=middle;resizable=0;points=[];" vertex="1" connectable="0" parent="2BVFV6PtjXRRdMwMBUO1-135">
          <mxGeometry x="-0.8703" y="1" relative="1" as="geometry">
            <mxPoint as="offset" />
          </mxGeometry>
        </mxCell>
        <mxCell id="2BVFV6PtjXRRdMwMBUO1-137" value="HostText &quot; - even&quot;&lt;div&gt;&lt;br&gt;&lt;/div&gt;&lt;div&gt;stateNode = DOM &quot; - even&quot;&lt;/div&gt;&lt;div&gt;memoizedProps = &quot; - even &quot;&lt;/div&gt;&lt;div&gt;pendingProps = &quot; - even&quot;&lt;/div&gt;&lt;div&gt;&lt;span style=&quot;background-color: initial;&quot;&gt;memoizedState =&amp;nbsp; null&lt;/span&gt;&lt;/div&gt;" style="whiteSpace=wrap;html=1;" vertex="1" parent="2BVFV6PtjXRRdMwMBUO1-1">
          <mxGeometry x="1310" y="1720" width="160" height="120" as="geometry" />
        </mxCell>
        <mxCell id="2BVFV6PtjXRRdMwMBUO1-138" style="edgeStyle=orthogonalEdgeStyle;rounded=0;orthogonalLoop=1;jettySize=auto;html=1;exitX=0;exitY=0.5;exitDx=0;exitDy=0;" edge="1" parent="2BVFV6PtjXRRdMwMBUO1-1" source="2BVFV6PtjXRRdMwMBUO1-139">
          <mxGeometry relative="1" as="geometry">
            <mxPoint x="600" y="669.8947368421054" as="targetPoint" />
          </mxGeometry>
        </mxCell>
        <mxCell id="2BVFV6PtjXRRdMwMBUO1-139" value="workInProgress" style="whiteSpace=wrap;html=1;" vertex="1" parent="2BVFV6PtjXRRdMwMBUO1-1">
          <mxGeometry x="640" y="640" width="120" height="60" as="geometry" />
        </mxCell>
        <mxCell id="7FO7D7hlrfZnct60clzt-0" value="" style="endArrow=none;dashed=1;html=1;dashPattern=1 3;strokeWidth=2;rounded=0;" edge="1" parent="2BVFV6PtjXRRdMwMBUO1-1">
          <mxGeometry width="50" height="50" relative="1" as="geometry">
            <mxPoint x="90" y="1920" as="sourcePoint" />
            <mxPoint x="2310" y="1920" as="targetPoint" />
          </mxGeometry>
        </mxCell>
        <mxCell id="7FO7D7hlrfZnct60clzt-1" style="edgeStyle=orthogonalEdgeStyle;rounded=0;orthogonalLoop=1;jettySize=auto;html=1;exitX=0.5;exitY=1;exitDx=0;exitDy=0;entryX=0.5;entryY=0;entryDx=0;entryDy=0;" edge="1" parent="2BVFV6PtjXRRdMwMBUO1-1" source="7FO7D7hlrfZnct60clzt-4" target="7FO7D7hlrfZnct60clzt-5">
          <mxGeometry relative="1" as="geometry" />
        </mxCell>
        <mxCell id="7FO7D7hlrfZnct60clzt-2" style="edgeStyle=orthogonalEdgeStyle;rounded=0;orthogonalLoop=1;jettySize=auto;html=1;exitX=0.5;exitY=1;exitDx=0;exitDy=0;entryX=0.5;entryY=0;entryDx=0;entryDy=0;" edge="1" parent="2BVFV6PtjXRRdMwMBUO1-1" source="7FO7D7hlrfZnct60clzt-4" target="7FO7D7hlrfZnct60clzt-6">
          <mxGeometry relative="1" as="geometry" />
        </mxCell>
        <mxCell id="7FO7D7hlrfZnct60clzt-3" style="edgeStyle=orthogonalEdgeStyle;rounded=0;orthogonalLoop=1;jettySize=auto;html=1;exitX=0.5;exitY=1;exitDx=0;exitDy=0;entryX=0.5;entryY=0;entryDx=0;entryDy=0;" edge="1" parent="2BVFV6PtjXRRdMwMBUO1-1" source="7FO7D7hlrfZnct60clzt-4" target="7FO7D7hlrfZnct60clzt-9">
          <mxGeometry relative="1" as="geometry" />
        </mxCell>
        <mxCell id="7FO7D7hlrfZnct60clzt-4" value="div" style="whiteSpace=wrap;html=1;" vertex="1" parent="2BVFV6PtjXRRdMwMBUO1-1">
          <mxGeometry x="440" y="2040" width="80" height="40" as="geometry" />
        </mxCell>
        <mxCell id="7FO7D7hlrfZnct60clzt-5" value="button" style="whiteSpace=wrap;html=1;" vertex="1" parent="2BVFV6PtjXRRdMwMBUO1-1">
          <mxGeometry x="440" y="2120" width="80" height="40" as="geometry" />
        </mxCell>
        <mxCell id="7FO7D7hlrfZnct60clzt-6" value="p" style="whiteSpace=wrap;html=1;" vertex="1" parent="2BVFV6PtjXRRdMwMBUO1-1">
          <mxGeometry x="560" y="2120" width="80" height="40" as="geometry" />
        </mxCell>
        <mxCell id="7FO7D7hlrfZnct60clzt-7" style="edgeStyle=orthogonalEdgeStyle;rounded=0;orthogonalLoop=1;jettySize=auto;html=1;exitX=0.5;exitY=1;exitDx=0;exitDy=0;entryX=0.5;entryY=0;entryDx=0;entryDy=0;" edge="1" parent="2BVFV6PtjXRRdMwMBUO1-1" source="7FO7D7hlrfZnct60clzt-9" target="7FO7D7hlrfZnct60clzt-10">
          <mxGeometry relative="1" as="geometry" />
        </mxCell>
        <mxCell id="7FO7D7hlrfZnct60clzt-8" style="edgeStyle=orthogonalEdgeStyle;rounded=0;orthogonalLoop=1;jettySize=auto;html=1;exitX=0.5;exitY=1;exitDx=0;exitDy=0;entryX=0.5;entryY=0;entryDx=0;entryDy=0;" edge="1" parent="2BVFV6PtjXRRdMwMBUO1-1" source="7FO7D7hlrfZnct60clzt-9" target="7FO7D7hlrfZnct60clzt-11">
          <mxGeometry relative="1" as="geometry" />
        </mxCell>
        <mxCell id="7FO7D7hlrfZnct60clzt-9" value="span" style="whiteSpace=wrap;html=1;" vertex="1" parent="2BVFV6PtjXRRdMwMBUO1-1">
          <mxGeometry x="680" y="2120" width="80" height="40" as="geometry" />
        </mxCell>
        <mxCell id="7FO7D7hlrfZnct60clzt-10" value="&quot;0&quot;" style="whiteSpace=wrap;html=1;" vertex="1" parent="2BVFV6PtjXRRdMwMBUO1-1">
          <mxGeometry x="680" y="2200" width="80" height="40" as="geometry" />
        </mxCell>
        <mxCell id="7FO7D7hlrfZnct60clzt-11" value="&quot; - even&quot;" style="whiteSpace=wrap;html=1;" vertex="1" parent="2BVFV6PtjXRRdMwMBUO1-1">
          <mxGeometry x="800" y="2200" width="80" height="40" as="geometry" />
        </mxCell>
        <mxCell id="7FO7D7hlrfZnct60clzt-14" style="edgeStyle=orthogonalEdgeStyle;rounded=0;orthogonalLoop=1;jettySize=auto;html=1;exitX=0.5;exitY=1;exitDx=0;exitDy=0;entryX=0.5;entryY=0;entryDx=0;entryDy=0;" edge="1" parent="2BVFV6PtjXRRdMwMBUO1-1" source="7FO7D7hlrfZnct60clzt-13" target="7FO7D7hlrfZnct60clzt-4">
          <mxGeometry relative="1" as="geometry" />
        </mxCell>
        <mxCell id="7FO7D7hlrfZnct60clzt-13" value="main#root" style="whiteSpace=wrap;html=1;" vertex="1" parent="2BVFV6PtjXRRdMwMBUO1-1">
          <mxGeometry x="440" y="1960" width="80" height="40" as="geometry" />
        </mxCell>
      </root>
    </mxGraphModel>
  </diagram>
  <diagram name="onClick()" id="WBBNmh7_CKq1hLanLuZ0">
    <mxGraphModel dx="2034" dy="379" grid="1" gridSize="10" guides="1" tooltips="1" connect="1" arrows="1" fold="1" page="1" pageScale="1" pageWidth="827" pageHeight="1169" math="0" shadow="0">
      <root>
        <mxCell id="Hge0PTyTcjPbNXOrYtDM-0" />
        <mxCell id="Hge0PTyTcjPbNXOrYtDM-1" parent="Hge0PTyTcjPbNXOrYtDM-0" />
        <mxCell id="Wq266YcdyYagmhuIQmHC-0" value="onClick()&lt;div&gt;1. setState(count =&amp;gt; count + 1), setState(isOpen =&amp;gt; !isOpen), setState(count =&amp;gt; count * 5)&lt;/div&gt;&lt;div&gt;2. schedule&lt;/div&gt;&lt;div&gt;3. render&lt;/div&gt;&lt;div&gt;4. commit&lt;/div&gt;" style="whiteSpace=wrap;html=1;" vertex="1" parent="Hge0PTyTcjPbNXOrYtDM-1">
          <mxGeometry x="-800" y="40" width="520" height="120" as="geometry" />
        </mxCell>
      </root>
    </mxGraphModel>
  </diagram>
  <diagram name="B1 + B2" id="e_T-kCVC5PE4gBg0YHFl">
    <mxGraphModel dx="1992" dy="1927" grid="1" gridSize="10" guides="1" tooltips="1" connect="1" arrows="1" fold="1" page="1" pageScale="1" pageWidth="827" pageHeight="1169" math="0" shadow="0">
      <root>
        <mxCell id="ZvWnaeI2kjY47vPrVuiF-0" />
        <mxCell id="ZvWnaeI2kjY47vPrVuiF-1" parent="ZvWnaeI2kjY47vPrVuiF-0" />
        <mxCell id="ZvWnaeI2kjY47vPrVuiF-2" style="edgeStyle=orthogonalEdgeStyle;rounded=0;orthogonalLoop=1;jettySize=auto;html=1;exitX=0.5;exitY=1;exitDx=0;exitDy=0;entryX=0.5;entryY=0;entryDx=0;entryDy=0;" parent="ZvWnaeI2kjY47vPrVuiF-1" source="ZvWnaeI2kjY47vPrVuiF-8" target="ZvWnaeI2kjY47vPrVuiF-14" edge="1">
          <mxGeometry relative="1" as="geometry" />
        </mxCell>
        <mxCell id="ZvWnaeI2kjY47vPrVuiF-3" value="updateQueue" style="edgeLabel;html=1;align=center;verticalAlign=middle;resizable=0;points=[];" parent="ZvWnaeI2kjY47vPrVuiF-2" vertex="1" connectable="0">
          <mxGeometry x="-0.0908" y="-1" relative="1" as="geometry">
            <mxPoint as="offset" />
          </mxGeometry>
        </mxCell>
        <mxCell id="ZvWnaeI2kjY47vPrVuiF-4" style="edgeStyle=orthogonalEdgeStyle;rounded=0;orthogonalLoop=1;jettySize=auto;html=1;exitX=1;exitY=0.5;exitDx=0;exitDy=0;entryX=0;entryY=0.5;entryDx=0;entryDy=0;" parent="ZvWnaeI2kjY47vPrVuiF-1" source="ZvWnaeI2kjY47vPrVuiF-8" target="ZvWnaeI2kjY47vPrVuiF-9" edge="1">
          <mxGeometry relative="1" as="geometry" />
        </mxCell>
        <mxCell id="ZvWnaeI2kjY47vPrVuiF-5" value="memoizedState" style="edgeLabel;html=1;align=center;verticalAlign=middle;resizable=0;points=[];" parent="ZvWnaeI2kjY47vPrVuiF-4" vertex="1" connectable="0">
          <mxGeometry x="-0.0566" relative="1" as="geometry">
            <mxPoint as="offset" />
          </mxGeometry>
        </mxCell>
        <mxCell id="ZvWnaeI2kjY47vPrVuiF-6" style="edgeStyle=orthogonalEdgeStyle;rounded=0;orthogonalLoop=1;jettySize=auto;html=1;exitX=0.5;exitY=0;exitDx=0;exitDy=0;entryX=0.5;entryY=1;entryDx=0;entryDy=0;" parent="ZvWnaeI2kjY47vPrVuiF-1" source="ZvWnaeI2kjY47vPrVuiF-8" target="ZvWnaeI2kjY47vPrVuiF-24" edge="1">
          <mxGeometry relative="1" as="geometry" />
        </mxCell>
        <mxCell id="ZvWnaeI2kjY47vPrVuiF-7" value="callbackNode" style="edgeLabel;html=1;align=center;verticalAlign=middle;resizable=0;points=[];" parent="ZvWnaeI2kjY47vPrVuiF-6" vertex="1" connectable="0">
          <mxGeometry x="0.0433" y="1" relative="1" as="geometry">
            <mxPoint x="1" y="7" as="offset" />
          </mxGeometry>
        </mxCell>
        <mxCell id="ZvWnaeI2kjY47vPrVuiF-8" value="HostRoot&lt;br&gt;&lt;div&gt;&lt;br&gt;&lt;/div&gt;&lt;div&gt;memoizedProps = null&lt;/div&gt;&lt;div&gt;pendingProps = null&lt;/div&gt;&lt;div&gt;stateNode = FiberRoot&lt;/div&gt;" style="whiteSpace=wrap;html=1;" parent="ZvWnaeI2kjY47vPrVuiF-1" vertex="1">
          <mxGeometry x="198" y="90" width="200" height="120" as="geometry" />
        </mxCell>
        <mxCell id="ZvWnaeI2kjY47vPrVuiF-9" value="&lt;div&gt;element = null&lt;/div&gt;" style="whiteSpace=wrap;html=1;" parent="ZvWnaeI2kjY47vPrVuiF-1" vertex="1">
          <mxGeometry x="534" y="120" width="140" height="65" as="geometry" />
        </mxCell>
        <mxCell id="ZvWnaeI2kjY47vPrVuiF-10" style="edgeStyle=orthogonalEdgeStyle;rounded=0;orthogonalLoop=1;jettySize=auto;html=1;exitX=1.004;exitY=0.173;exitDx=0;exitDy=0;entryX=0.5;entryY=1;entryDx=0;entryDy=0;exitPerimeter=0;" parent="ZvWnaeI2kjY47vPrVuiF-1" source="ZvWnaeI2kjY47vPrVuiF-14" target="ZvWnaeI2kjY47vPrVuiF-9" edge="1">
          <mxGeometry relative="1" as="geometry" />
        </mxCell>
        <mxCell id="ZvWnaeI2kjY47vPrVuiF-11" value="&lt;span style=&quot;font-size: 12px; text-wrap-mode: wrap; background-color: rgb(251, 251, 251);&quot;&gt;baseState&lt;/span&gt;" style="edgeLabel;html=1;align=center;verticalAlign=middle;resizable=0;points=[];" parent="ZvWnaeI2kjY47vPrVuiF-10" vertex="1" connectable="0">
          <mxGeometry x="-0.4006" y="1" relative="1" as="geometry">
            <mxPoint as="offset" />
          </mxGeometry>
        </mxCell>
        <mxCell id="ZvWnaeI2kjY47vPrVuiF-12" style="edgeStyle=orthogonalEdgeStyle;rounded=0;orthogonalLoop=1;jettySize=auto;html=1;exitX=1;exitY=0.5;exitDx=0;exitDy=0;entryX=0;entryY=0.5;entryDx=0;entryDy=0;" parent="ZvWnaeI2kjY47vPrVuiF-1" source="ZvWnaeI2kjY47vPrVuiF-14" target="ZvWnaeI2kjY47vPrVuiF-17" edge="1">
          <mxGeometry relative="1" as="geometry" />
        </mxCell>
        <mxCell id="ZvWnaeI2kjY47vPrVuiF-13" value="shared" style="edgeLabel;html=1;align=center;verticalAlign=middle;resizable=0;points=[];" parent="ZvWnaeI2kjY47vPrVuiF-12" vertex="1" connectable="0">
          <mxGeometry x="-0.0845" relative="1" as="geometry">
            <mxPoint as="offset" />
          </mxGeometry>
        </mxCell>
        <mxCell id="ZvWnaeI2kjY47vPrVuiF-14" value="&lt;div&gt;&lt;span style=&quot;background-color: initial;&quot;&gt;firstBaseUpdate = null&lt;/span&gt;&lt;/div&gt;&lt;div&gt;lastBaseUpdate = nulll&lt;/div&gt;" style="whiteSpace=wrap;html=1;" parent="ZvWnaeI2kjY47vPrVuiF-1" vertex="1">
          <mxGeometry x="180" y="270" width="236" height="110" as="geometry" />
        </mxCell>
        <mxCell id="ZvWnaeI2kjY47vPrVuiF-15" style="edgeStyle=orthogonalEdgeStyle;rounded=0;orthogonalLoop=1;jettySize=auto;html=1;exitX=1;exitY=0.25;exitDx=0;exitDy=0;entryX=0;entryY=0.5;entryDx=0;entryDy=0;" parent="ZvWnaeI2kjY47vPrVuiF-1" source="ZvWnaeI2kjY47vPrVuiF-17" target="ZvWnaeI2kjY47vPrVuiF-21" edge="1">
          <mxGeometry relative="1" as="geometry" />
        </mxCell>
        <mxCell id="ZvWnaeI2kjY47vPrVuiF-16" value="pendding" style="edgeLabel;html=1;align=center;verticalAlign=middle;resizable=0;points=[];" parent="ZvWnaeI2kjY47vPrVuiF-15" vertex="1" connectable="0">
          <mxGeometry x="-0.1657" y="1" relative="1" as="geometry">
            <mxPoint as="offset" />
          </mxGeometry>
        </mxCell>
        <mxCell id="ZvWnaeI2kjY47vPrVuiF-17" value="&lt;div&gt;queue&lt;/div&gt;&lt;div&gt;&lt;br&gt;&lt;/div&gt;interleaved = null&lt;span style=&quot;background-color: initial;&quot;&gt;l&lt;/span&gt;" style="whiteSpace=wrap;html=1;" parent="ZvWnaeI2kjY47vPrVuiF-1" vertex="1">
          <mxGeometry x="534" y="330" width="120" height="60" as="geometry" />
        </mxCell>
        <mxCell id="ZvWnaeI2kjY47vPrVuiF-18" value="FiberRootNode&lt;div&gt;&lt;span style=&quot;background-color: initial;&quot;&gt;&amp;nbsp;&lt;/span&gt;&lt;/div&gt;&lt;div&gt;containerInfo = main#root&lt;/div&gt;&lt;div&gt;finishedWork = HostRoot current&lt;/div&gt;" style="whiteSpace=wrap;html=1;" parent="ZvWnaeI2kjY47vPrVuiF-1" vertex="1">
          <mxGeometry x="200" y="-320" width="200" height="120" as="geometry" />
        </mxCell>
        <mxCell id="ZvWnaeI2kjY47vPrVuiF-19" style="edgeStyle=orthogonalEdgeStyle;rounded=0;orthogonalLoop=1;jettySize=auto;html=1;exitX=1;exitY=0.5;exitDx=0;exitDy=0;entryX=0;entryY=0.5;entryDx=0;entryDy=0;" parent="ZvWnaeI2kjY47vPrVuiF-1" source="ZvWnaeI2kjY47vPrVuiF-21" target="ZvWnaeI2kjY47vPrVuiF-22" edge="1">
          <mxGeometry relative="1" as="geometry" />
        </mxCell>
        <mxCell id="ZvWnaeI2kjY47vPrVuiF-20" value="payload" style="edgeLabel;html=1;align=center;verticalAlign=middle;resizable=0;points=[];" parent="ZvWnaeI2kjY47vPrVuiF-19" vertex="1" connectable="0">
          <mxGeometry x="-0.0947" y="1" relative="1" as="geometry">
            <mxPoint as="offset" />
          </mxGeometry>
        </mxCell>
        <mxCell id="ZvWnaeI2kjY47vPrVuiF-21" value="update&lt;div&gt;&lt;br&gt;&lt;/div&gt;&lt;div&gt;tag: UpdateState = 0&lt;/div&gt;&lt;div&gt;callback&lt;/div&gt;" style="whiteSpace=wrap;html=1;" parent="ZvWnaeI2kjY47vPrVuiF-1" vertex="1">
          <mxGeometry x="754" y="290" width="180" height="110" as="geometry" />
        </mxCell>
        <mxCell id="ZvWnaeI2kjY47vPrVuiF-22" value="element = App ReactNodeList" style="whiteSpace=wrap;html=1;" parent="ZvWnaeI2kjY47vPrVuiF-1" vertex="1">
          <mxGeometry x="1014" y="315" width="200" height="60" as="geometry" />
        </mxCell>
        <mxCell id="ZvWnaeI2kjY47vPrVuiF-23" value="concurrentQueues = null" style="whiteSpace=wrap;html=1;" parent="ZvWnaeI2kjY47vPrVuiF-1" vertex="1">
          <mxGeometry x="180" y="420" width="170" height="60" as="geometry" />
        </mxCell>
        <mxCell id="ZvWnaeI2kjY47vPrVuiF-24" value="callback = null" style="whiteSpace=wrap;html=1;" parent="ZvWnaeI2kjY47vPrVuiF-1" vertex="1">
          <mxGeometry x="90" y="-40" width="416" height="60" as="geometry" />
        </mxCell>
        <mxCell id="ZvWnaeI2kjY47vPrVuiF-25" value="" style="endArrow=none;dashed=1;html=1;rounded=0;" parent="ZvWnaeI2kjY47vPrVuiF-1" edge="1">
          <mxGeometry width="50" height="50" relative="1" as="geometry">
            <mxPoint x="70" y="-160" as="sourcePoint" />
            <mxPoint x="1620" y="-160" as="targetPoint" />
          </mxGeometry>
        </mxCell>
        <mxCell id="ZvWnaeI2kjY47vPrVuiF-26" style="edgeStyle=orthogonalEdgeStyle;rounded=0;orthogonalLoop=1;jettySize=auto;html=1;exitX=0.5;exitY=1;exitDx=0;exitDy=0;entryX=0.5;entryY=0;entryDx=0;entryDy=0;" parent="ZvWnaeI2kjY47vPrVuiF-1" source="ZvWnaeI2kjY47vPrVuiF-30" target="ZvWnaeI2kjY47vPrVuiF-40" edge="1">
          <mxGeometry relative="1" as="geometry" />
        </mxCell>
        <mxCell id="ZvWnaeI2kjY47vPrVuiF-27" value="current" style="edgeLabel;html=1;align=center;verticalAlign=middle;resizable=0;points=[];" parent="ZvWnaeI2kjY47vPrVuiF-26" vertex="1" connectable="0">
          <mxGeometry x="0.0342" y="-1" relative="1" as="geometry">
            <mxPoint as="offset" />
          </mxGeometry>
        </mxCell>
        <mxCell id="ZvWnaeI2kjY47vPrVuiF-28" style="edgeStyle=orthogonalEdgeStyle;rounded=0;orthogonalLoop=1;jettySize=auto;html=1;exitX=1;exitY=0.5;exitDx=0;exitDy=0;" parent="ZvWnaeI2kjY47vPrVuiF-1" source="ZvWnaeI2kjY47vPrVuiF-30" edge="1">
          <mxGeometry relative="1" as="geometry">
            <mxPoint x="1800" y="750.11" as="targetPoint" />
          </mxGeometry>
        </mxCell>
        <mxCell id="ZvWnaeI2kjY47vPrVuiF-29" value="finishedWork" style="edgeLabel;html=1;align=center;verticalAlign=middle;resizable=0;points=[];" parent="ZvWnaeI2kjY47vPrVuiF-28" vertex="1" connectable="0">
          <mxGeometry x="-0.3058" y="1" relative="1" as="geometry">
            <mxPoint as="offset" />
          </mxGeometry>
        </mxCell>
        <mxCell id="ZvWnaeI2kjY47vPrVuiF-30" value="FiberRootNode" style="whiteSpace=wrap;html=1;" parent="ZvWnaeI2kjY47vPrVuiF-1" vertex="1">
          <mxGeometry x="1520" y="710.11" width="160" height="80" as="geometry" />
        </mxCell>
        <mxCell id="ZvWnaeI2kjY47vPrVuiF-31" style="edgeStyle=orthogonalEdgeStyle;rounded=0;orthogonalLoop=1;jettySize=auto;html=1;exitX=1;exitY=0.5;exitDx=0;exitDy=0;entryX=0;entryY=0.5;entryDx=0;entryDy=0;" parent="ZvWnaeI2kjY47vPrVuiF-1" source="ZvWnaeI2kjY47vPrVuiF-32" target="ZvWnaeI2kjY47vPrVuiF-40" edge="1">
          <mxGeometry relative="1" as="geometry" />
        </mxCell>
        <mxCell id="ZvWnaeI2kjY47vPrVuiF-32" value="HostRoot&lt;div&gt;&lt;br&gt;&lt;div&gt;stateNode = FiberRoot&lt;/div&gt;&lt;/div&gt;" style="whiteSpace=wrap;html=1;" parent="ZvWnaeI2kjY47vPrVuiF-1" vertex="1">
          <mxGeometry x="1520" y="830.11" width="160" height="120" as="geometry" />
        </mxCell>
        <mxCell id="ZvWnaeI2kjY47vPrVuiF-33" value="" style="endArrow=none;dashed=1;html=1;dashPattern=1 3;strokeWidth=2;rounded=0;" parent="ZvWnaeI2kjY47vPrVuiF-1" edge="1">
          <mxGeometry width="50" height="50" relative="1" as="geometry">
            <mxPoint x="30" y="560" as="sourcePoint" />
            <mxPoint x="1640" y="560" as="targetPoint" />
          </mxGeometry>
        </mxCell>
        <mxCell id="ZvWnaeI2kjY47vPrVuiF-34" value="Fiber tree" style="rounded=0;whiteSpace=wrap;html=1;" parent="ZvWnaeI2kjY47vPrVuiF-1" vertex="1">
          <mxGeometry x="40" y="560" width="120" height="60" as="geometry" />
        </mxCell>
        <mxCell id="gzDzBu7FxxV0S9XF0m-d-3" style="edgeStyle=orthogonalEdgeStyle;rounded=0;orthogonalLoop=1;jettySize=auto;html=1;exitX=0;exitY=0.5;exitDx=0;exitDy=0;" edge="1" parent="ZvWnaeI2kjY47vPrVuiF-1" source="ZvWnaeI2kjY47vPrVuiF-36">
          <mxGeometry relative="1" as="geometry">
            <mxPoint x="1760" y="660.294117647059" as="targetPoint" />
          </mxGeometry>
        </mxCell>
        <mxCell id="ZvWnaeI2kjY47vPrVuiF-36" value="workInProgressRoot" style="whiteSpace=wrap;html=1;" parent="ZvWnaeI2kjY47vPrVuiF-1" vertex="1">
          <mxGeometry x="1810" y="630" width="120" height="60" as="geometry" />
        </mxCell>
        <mxCell id="ZvWnaeI2kjY47vPrVuiF-37" style="edgeStyle=orthogonalEdgeStyle;rounded=0;orthogonalLoop=1;jettySize=auto;html=1;exitX=0;exitY=0.5;exitDx=0;exitDy=0;entryX=1;entryY=0.5;entryDx=0;entryDy=0;" parent="ZvWnaeI2kjY47vPrVuiF-1" source="ZvWnaeI2kjY47vPrVuiF-40" target="ZvWnaeI2kjY47vPrVuiF-32" edge="1">
          <mxGeometry relative="1" as="geometry" />
        </mxCell>
        <mxCell id="ZvWnaeI2kjY47vPrVuiF-38" value="alternate" style="edgeLabel;html=1;align=center;verticalAlign=middle;resizable=0;points=[];" parent="ZvWnaeI2kjY47vPrVuiF-37" vertex="1" connectable="0">
          <mxGeometry x="0.0289" y="-1" relative="1" as="geometry">
            <mxPoint as="offset" />
          </mxGeometry>
        </mxCell>
        <mxCell id="ZvWnaeI2kjY47vPrVuiF-39" style="edgeStyle=orthogonalEdgeStyle;rounded=0;orthogonalLoop=1;jettySize=auto;html=1;exitX=0.5;exitY=1;exitDx=0;exitDy=0;entryX=0.5;entryY=0;entryDx=0;entryDy=0;" parent="ZvWnaeI2kjY47vPrVuiF-1" source="ZvWnaeI2kjY47vPrVuiF-40" target="ZvWnaeI2kjY47vPrVuiF-70" edge="1">
          <mxGeometry relative="1" as="geometry" />
        </mxCell>
        <mxCell id="ZvWnaeI2kjY47vPrVuiF-40" value="HostRoot&lt;div&gt;&lt;br&gt;&lt;/div&gt;&lt;div&gt;stateNode = FiberRoot&lt;/div&gt;" style="whiteSpace=wrap;html=1;" parent="ZvWnaeI2kjY47vPrVuiF-1" vertex="1">
          <mxGeometry x="1800" y="830.11" width="160" height="120" as="geometry" />
        </mxCell>
        <mxCell id="ZvWnaeI2kjY47vPrVuiF-41" value="" style="endArrow=none;dashed=1;html=1;dashPattern=1 3;strokeWidth=2;rounded=0;" parent="ZvWnaeI2kjY47vPrVuiF-1" edge="1">
          <mxGeometry width="50" height="50" relative="1" as="geometry">
            <mxPoint x="40" y="-360" as="sourcePoint" />
            <mxPoint x="1610" y="-360" as="targetPoint" />
          </mxGeometry>
        </mxCell>
        <mxCell id="ZvWnaeI2kjY47vPrVuiF-42" style="edgeStyle=orthogonalEdgeStyle;rounded=0;orthogonalLoop=1;jettySize=auto;html=1;exitX=0.5;exitY=1;exitDx=0;exitDy=0;entryX=1;entryY=0.75;entryDx=0;entryDy=0;" parent="ZvWnaeI2kjY47vPrVuiF-1" source="ZvWnaeI2kjY47vPrVuiF-21" target="ZvWnaeI2kjY47vPrVuiF-21" edge="1">
          <mxGeometry relative="1" as="geometry" />
        </mxCell>
        <mxCell id="ZvWnaeI2kjY47vPrVuiF-43" value="next" style="edgeLabel;html=1;align=center;verticalAlign=middle;resizable=0;points=[];" parent="ZvWnaeI2kjY47vPrVuiF-42" vertex="1" connectable="0">
          <mxGeometry x="-0.2378" y="3" relative="1" as="geometry">
            <mxPoint as="offset" />
          </mxGeometry>
        </mxCell>
        <mxCell id="ZvWnaeI2kjY47vPrVuiF-44" value="HostRoot curent" style="whiteSpace=wrap;html=1;" parent="ZvWnaeI2kjY47vPrVuiF-1" vertex="1">
          <mxGeometry x="70" y="-160" width="120" height="60" as="geometry" />
        </mxCell>
        <mxCell id="ZvWnaeI2kjY47vPrVuiF-45" style="edgeStyle=orthogonalEdgeStyle;rounded=0;orthogonalLoop=1;jettySize=auto;html=1;exitX=0.5;exitY=1;exitDx=0;exitDy=0;entryX=0.5;entryY=0;entryDx=0;entryDy=0;" parent="ZvWnaeI2kjY47vPrVuiF-1" source="ZvWnaeI2kjY47vPrVuiF-51" target="ZvWnaeI2kjY47vPrVuiF-57" edge="1">
          <mxGeometry relative="1" as="geometry" />
        </mxCell>
        <mxCell id="ZvWnaeI2kjY47vPrVuiF-46" value="updateQueue" style="edgeLabel;html=1;align=center;verticalAlign=middle;resizable=0;points=[];" parent="ZvWnaeI2kjY47vPrVuiF-45" vertex="1" connectable="0">
          <mxGeometry x="-0.0908" y="-1" relative="1" as="geometry">
            <mxPoint as="offset" />
          </mxGeometry>
        </mxCell>
        <mxCell id="ZvWnaeI2kjY47vPrVuiF-47" style="edgeStyle=orthogonalEdgeStyle;rounded=0;orthogonalLoop=1;jettySize=auto;html=1;exitX=0.5;exitY=0;exitDx=0;exitDy=0;entryX=0.5;entryY=1;entryDx=0;entryDy=0;" parent="ZvWnaeI2kjY47vPrVuiF-1" source="ZvWnaeI2kjY47vPrVuiF-51" target="ZvWnaeI2kjY47vPrVuiF-64" edge="1">
          <mxGeometry relative="1" as="geometry" />
        </mxCell>
        <mxCell id="ZvWnaeI2kjY47vPrVuiF-48" value="callbackNode" style="edgeLabel;html=1;align=center;verticalAlign=middle;resizable=0;points=[];" parent="ZvWnaeI2kjY47vPrVuiF-47" vertex="1" connectable="0">
          <mxGeometry x="0.0433" y="1" relative="1" as="geometry">
            <mxPoint x="1" y="7" as="offset" />
          </mxGeometry>
        </mxCell>
        <mxCell id="ZvWnaeI2kjY47vPrVuiF-49" style="edgeStyle=orthogonalEdgeStyle;rounded=0;orthogonalLoop=1;jettySize=auto;html=1;exitX=1;exitY=0.5;exitDx=0;exitDy=0;" parent="ZvWnaeI2kjY47vPrVuiF-1" source="ZvWnaeI2kjY47vPrVuiF-51" target="ZvWnaeI2kjY47vPrVuiF-75" edge="1">
          <mxGeometry relative="1" as="geometry" />
        </mxCell>
        <mxCell id="ZvWnaeI2kjY47vPrVuiF-50" value="memoizedState" style="edgeLabel;html=1;align=center;verticalAlign=middle;resizable=0;points=[];" parent="ZvWnaeI2kjY47vPrVuiF-49" vertex="1" connectable="0">
          <mxGeometry x="-0.5951" y="1" relative="1" as="geometry">
            <mxPoint as="offset" />
          </mxGeometry>
        </mxCell>
        <mxCell id="ZvWnaeI2kjY47vPrVuiF-51" value="HostRoot&lt;br&gt;&lt;div&gt;&lt;br&gt;&lt;/div&gt;&lt;div&gt;pendingProps = null&lt;/div&gt;&lt;div&gt;stateNode = FiberRoot&lt;/div&gt;" style="whiteSpace=wrap;html=1;" parent="ZvWnaeI2kjY47vPrVuiF-1" vertex="1">
          <mxGeometry x="198" y="-840" width="200" height="120" as="geometry" />
        </mxCell>
        <mxCell id="ZvWnaeI2kjY47vPrVuiF-52" value="&lt;div&gt;element = &amp;lt;App /&amp;gt;&lt;/div&gt;" style="whiteSpace=wrap;html=1;" parent="ZvWnaeI2kjY47vPrVuiF-1" vertex="1">
          <mxGeometry x="534" y="-760" width="140" height="65" as="geometry" />
        </mxCell>
        <mxCell id="ZvWnaeI2kjY47vPrVuiF-53" style="edgeStyle=orthogonalEdgeStyle;rounded=0;orthogonalLoop=1;jettySize=auto;html=1;exitX=1.004;exitY=0.173;exitDx=0;exitDy=0;entryX=0.5;entryY=1;entryDx=0;entryDy=0;exitPerimeter=0;" parent="ZvWnaeI2kjY47vPrVuiF-1" source="ZvWnaeI2kjY47vPrVuiF-57" target="ZvWnaeI2kjY47vPrVuiF-52" edge="1">
          <mxGeometry relative="1" as="geometry" />
        </mxCell>
        <mxCell id="ZvWnaeI2kjY47vPrVuiF-54" value="&lt;span style=&quot;font-size: 12px; text-wrap-mode: wrap; background-color: rgb(251, 251, 251);&quot;&gt;baseState&lt;/span&gt;" style="edgeLabel;html=1;align=center;verticalAlign=middle;resizable=0;points=[];" parent="ZvWnaeI2kjY47vPrVuiF-53" vertex="1" connectable="0">
          <mxGeometry x="-0.4006" y="1" relative="1" as="geometry">
            <mxPoint as="offset" />
          </mxGeometry>
        </mxCell>
        <mxCell id="ZvWnaeI2kjY47vPrVuiF-55" style="edgeStyle=orthogonalEdgeStyle;rounded=0;orthogonalLoop=1;jettySize=auto;html=1;exitX=1;exitY=0.5;exitDx=0;exitDy=0;entryX=0;entryY=0.5;entryDx=0;entryDy=0;" parent="ZvWnaeI2kjY47vPrVuiF-1" source="ZvWnaeI2kjY47vPrVuiF-57" target="ZvWnaeI2kjY47vPrVuiF-62" edge="1">
          <mxGeometry relative="1" as="geometry" />
        </mxCell>
        <mxCell id="ZvWnaeI2kjY47vPrVuiF-56" value="shared" style="edgeLabel;html=1;align=center;verticalAlign=middle;resizable=0;points=[];" parent="ZvWnaeI2kjY47vPrVuiF-55" vertex="1" connectable="0">
          <mxGeometry x="-0.0845" relative="1" as="geometry">
            <mxPoint as="offset" />
          </mxGeometry>
        </mxCell>
        <mxCell id="ZvWnaeI2kjY47vPrVuiF-57" value="&lt;div&gt;&lt;span style=&quot;background-color: initial;&quot;&gt;firstBaseUpdate = null&lt;/span&gt;&lt;/div&gt;&lt;div&gt;lastBaseUpdate = nulll&lt;/div&gt;" style="whiteSpace=wrap;html=1;" parent="ZvWnaeI2kjY47vPrVuiF-1" vertex="1">
          <mxGeometry x="180" y="-660" width="236" height="110" as="geometry" />
        </mxCell>
        <mxCell id="ZvWnaeI2kjY47vPrVuiF-58" style="edgeStyle=orthogonalEdgeStyle;rounded=0;orthogonalLoop=1;jettySize=auto;html=1;exitX=1;exitY=0.75;exitDx=0;exitDy=0;entryX=0;entryY=0.5;entryDx=0;entryDy=0;" parent="ZvWnaeI2kjY47vPrVuiF-1" source="ZvWnaeI2kjY47vPrVuiF-62" target="ZvWnaeI2kjY47vPrVuiF-63" edge="1">
          <mxGeometry relative="1" as="geometry" />
        </mxCell>
        <mxCell id="ZvWnaeI2kjY47vPrVuiF-59" value="interleaved" style="edgeLabel;html=1;align=center;verticalAlign=middle;resizable=0;points=[];" parent="ZvWnaeI2kjY47vPrVuiF-58" vertex="1" connectable="0">
          <mxGeometry x="-0.0161" y="-2" relative="1" as="geometry">
            <mxPoint as="offset" />
          </mxGeometry>
        </mxCell>
        <mxCell id="ZvWnaeI2kjY47vPrVuiF-60" style="edgeStyle=orthogonalEdgeStyle;rounded=0;orthogonalLoop=1;jettySize=auto;html=1;exitX=1;exitY=0.25;exitDx=0;exitDy=0;entryX=0;entryY=0.5;entryDx=0;entryDy=0;" parent="ZvWnaeI2kjY47vPrVuiF-1" source="ZvWnaeI2kjY47vPrVuiF-62" target="ZvWnaeI2kjY47vPrVuiF-66" edge="1">
          <mxGeometry relative="1" as="geometry" />
        </mxCell>
        <mxCell id="ZvWnaeI2kjY47vPrVuiF-61" value="pendding" style="edgeLabel;html=1;align=center;verticalAlign=middle;resizable=0;points=[];" parent="ZvWnaeI2kjY47vPrVuiF-60" vertex="1" connectable="0">
          <mxGeometry x="-0.2415" y="1" relative="1" as="geometry">
            <mxPoint x="-3" y="-16" as="offset" />
          </mxGeometry>
        </mxCell>
        <mxCell id="ZvWnaeI2kjY47vPrVuiF-62" value="&lt;div&gt;queue&lt;/div&gt;&lt;div&gt;&lt;br&gt;&lt;/div&gt;interleaved = null&lt;span style=&quot;background-color: initial;&quot;&gt;l&lt;/span&gt;" style="whiteSpace=wrap;html=1;" parent="ZvWnaeI2kjY47vPrVuiF-1" vertex="1">
          <mxGeometry x="534" y="-600" width="120" height="60" as="geometry" />
        </mxCell>
        <mxCell id="ZvWnaeI2kjY47vPrVuiF-63" value="null" style="whiteSpace=wrap;html=1;" parent="ZvWnaeI2kjY47vPrVuiF-1" vertex="1">
          <mxGeometry x="760" y="-560" width="120" height="60" as="geometry" />
        </mxCell>
        <mxCell id="ZvWnaeI2kjY47vPrVuiF-64" value="callback = null" style="whiteSpace=wrap;html=1;" parent="ZvWnaeI2kjY47vPrVuiF-1" vertex="1">
          <mxGeometry x="90" y="-970" width="416" height="60" as="geometry" />
        </mxCell>
        <mxCell id="ZvWnaeI2kjY47vPrVuiF-65" value="HostRoot&amp;nbsp;&lt;span style=&quot;background-color: initial;&quot;&gt;workInProgress&lt;/span&gt;" style="whiteSpace=wrap;html=1;" parent="ZvWnaeI2kjY47vPrVuiF-1" vertex="1">
          <mxGeometry x="80" y="-1080" width="180" height="60" as="geometry" />
        </mxCell>
        <mxCell id="ZvWnaeI2kjY47vPrVuiF-66" value="null" style="whiteSpace=wrap;html=1;" parent="ZvWnaeI2kjY47vPrVuiF-1" vertex="1">
          <mxGeometry x="754" y="-670" width="120" height="60" as="geometry" />
        </mxCell>
        <mxCell id="ZvWnaeI2kjY47vPrVuiF-67" style="edgeStyle=orthogonalEdgeStyle;rounded=0;orthogonalLoop=1;jettySize=auto;html=1;exitX=0.5;exitY=0;exitDx=0;exitDy=0;entryX=0.5;entryY=1;entryDx=0;entryDy=0;" parent="ZvWnaeI2kjY47vPrVuiF-1" source="ZvWnaeI2kjY47vPrVuiF-70" target="ZvWnaeI2kjY47vPrVuiF-40" edge="1">
          <mxGeometry relative="1" as="geometry" />
        </mxCell>
        <mxCell id="ZvWnaeI2kjY47vPrVuiF-68" value="child / return" style="edgeLabel;html=1;align=center;verticalAlign=middle;resizable=0;points=[];" parent="ZvWnaeI2kjY47vPrVuiF-67" vertex="1" connectable="0">
          <mxGeometry x="0.0301" y="1" relative="1" as="geometry">
            <mxPoint y="1" as="offset" />
          </mxGeometry>
        </mxCell>
        <mxCell id="ZvWnaeI2kjY47vPrVuiF-69" style="edgeStyle=orthogonalEdgeStyle;rounded=0;orthogonalLoop=1;jettySize=auto;html=1;exitX=0.5;exitY=1;exitDx=0;exitDy=0;entryX=0.5;entryY=0;entryDx=0;entryDy=0;" parent="ZvWnaeI2kjY47vPrVuiF-1" source="ZvWnaeI2kjY47vPrVuiF-70" target="ZvWnaeI2kjY47vPrVuiF-86" edge="1">
          <mxGeometry relative="1" as="geometry" />
        </mxCell>
        <mxCell id="ZvWnaeI2kjY47vPrVuiF-70" value="IndeterminateComponent App&lt;div&gt;&lt;br&gt;&lt;/div&gt;&lt;div&gt;stateNode = null&lt;/div&gt;&lt;div&gt;memoizedProps = { }&lt;/div&gt;&lt;div&gt;pendingProps = { }&lt;/div&gt;&lt;div&gt;memoizedState = hook&lt;/div&gt;" style="whiteSpace=wrap;html=1;" parent="ZvWnaeI2kjY47vPrVuiF-1" vertex="1">
          <mxGeometry x="1780" y="990.11" width="200" height="120" as="geometry" />
        </mxCell>
        <mxCell id="ZvWnaeI2kjY47vPrVuiF-71" style="edgeStyle=orthogonalEdgeStyle;rounded=0;orthogonalLoop=1;jettySize=auto;html=1;exitX=1;exitY=0.5;exitDx=0;exitDy=0;entryX=0;entryY=0.5;entryDx=0;entryDy=0;" parent="ZvWnaeI2kjY47vPrVuiF-1" source="ZvWnaeI2kjY47vPrVuiF-75" target="ZvWnaeI2kjY47vPrVuiF-78" edge="1">
          <mxGeometry relative="1" as="geometry" />
        </mxCell>
        <mxCell id="ZvWnaeI2kjY47vPrVuiF-72" value="queue" style="edgeLabel;html=1;align=center;verticalAlign=middle;resizable=0;points=[];" parent="ZvWnaeI2kjY47vPrVuiF-71" vertex="1" connectable="0">
          <mxGeometry x="-0.0382" relative="1" as="geometry">
            <mxPoint as="offset" />
          </mxGeometry>
        </mxCell>
        <mxCell id="ZvWnaeI2kjY47vPrVuiF-73" style="edgeStyle=orthogonalEdgeStyle;rounded=0;orthogonalLoop=1;jettySize=auto;html=1;exitX=0.5;exitY=1;exitDx=0;exitDy=0;entryX=0.5;entryY=0;entryDx=0;entryDy=0;" parent="ZvWnaeI2kjY47vPrVuiF-1" source="ZvWnaeI2kjY47vPrVuiF-75" target="ZvWnaeI2kjY47vPrVuiF-81" edge="1">
          <mxGeometry relative="1" as="geometry" />
        </mxCell>
        <mxCell id="ZvWnaeI2kjY47vPrVuiF-74" value="next" style="edgeLabel;html=1;align=center;verticalAlign=middle;resizable=0;points=[];" parent="ZvWnaeI2kjY47vPrVuiF-73" vertex="1" connectable="0">
          <mxGeometry x="-0.1615" y="-1" relative="1" as="geometry">
            <mxPoint as="offset" />
          </mxGeometry>
        </mxCell>
        <mxCell id="ZvWnaeI2kjY47vPrVuiF-75" value="hook&lt;div&gt;&lt;br&gt;&lt;/div&gt;&lt;div&gt;memoizedState = 0&lt;/div&gt;&lt;div&gt;baseState = 0&lt;/div&gt;&lt;div&gt;baseQueue = null&lt;/div&gt;" style="whiteSpace=wrap;html=1;" parent="ZvWnaeI2kjY47vPrVuiF-1" vertex="1">
          <mxGeometry x="1160" y="-920" width="160" height="160" as="geometry" />
        </mxCell>
        <mxCell id="ZvWnaeI2kjY47vPrVuiF-76" value="workInProgressHook" style="whiteSpace=wrap;html=1;" parent="ZvWnaeI2kjY47vPrVuiF-1" vertex="1">
          <mxGeometry x="960" y="-630" width="150" height="60" as="geometry" />
        </mxCell>
        <mxCell id="ZvWnaeI2kjY47vPrVuiF-77" style="edgeStyle=orthogonalEdgeStyle;rounded=0;orthogonalLoop=1;jettySize=auto;html=1;exitX=0.5;exitY=1;exitDx=0;exitDy=0;entryX=0;entryY=0.5;entryDx=0;entryDy=0;" parent="ZvWnaeI2kjY47vPrVuiF-1" source="ZvWnaeI2kjY47vPrVuiF-76" target="ZvWnaeI2kjY47vPrVuiF-81" edge="1">
          <mxGeometry relative="1" as="geometry" />
        </mxCell>
        <mxCell id="ZvWnaeI2kjY47vPrVuiF-78" value="queue&lt;div&gt;&lt;br&gt;&lt;/div&gt;&lt;div&gt;pending = null&lt;/div&gt;&lt;div&gt;interleaved = null&lt;/div&gt;&lt;div&gt;dispatch =&amp;nbsp;dispatchSetState.bind(null, FiberApp, FiberApp.memoizedState.queue)&lt;/div&gt;&lt;div&gt;lastRenderedReducer: basicStateReducer&lt;/div&gt;&lt;div&gt;lastRenderedState = 0&lt;/div&gt;" style="whiteSpace=wrap;html=1;" parent="ZvWnaeI2kjY47vPrVuiF-1" vertex="1">
          <mxGeometry x="1400" y="-920" width="480" height="160" as="geometry" />
        </mxCell>
        <mxCell id="ZvWnaeI2kjY47vPrVuiF-79" style="edgeStyle=orthogonalEdgeStyle;rounded=0;orthogonalLoop=1;jettySize=auto;html=1;exitX=1;exitY=0.5;exitDx=0;exitDy=0;entryX=0;entryY=0.5;entryDx=0;entryDy=0;" parent="ZvWnaeI2kjY47vPrVuiF-1" source="ZvWnaeI2kjY47vPrVuiF-81" target="ZvWnaeI2kjY47vPrVuiF-82" edge="1">
          <mxGeometry relative="1" as="geometry" />
        </mxCell>
        <mxCell id="ZvWnaeI2kjY47vPrVuiF-80" value="queue" style="edgeLabel;html=1;align=center;verticalAlign=middle;resizable=0;points=[];" parent="ZvWnaeI2kjY47vPrVuiF-79" vertex="1" connectable="0">
          <mxGeometry x="-0.0702" y="-2" relative="1" as="geometry">
            <mxPoint x="1" as="offset" />
          </mxGeometry>
        </mxCell>
        <mxCell id="ZvWnaeI2kjY47vPrVuiF-81" value="hook&lt;div&gt;&lt;br&gt;&lt;/div&gt;&lt;div&gt;memoizedState = true&lt;/div&gt;&lt;div&gt;baseState = true&lt;/div&gt;&lt;div&gt;baseQueue = null&lt;/div&gt;&lt;div&gt;next = null&lt;/div&gt;" style="whiteSpace=wrap;html=1;" parent="ZvWnaeI2kjY47vPrVuiF-1" vertex="1">
          <mxGeometry x="1160" y="-720" width="160" height="160" as="geometry" />
        </mxCell>
        <mxCell id="ZvWnaeI2kjY47vPrVuiF-82" value="queue&lt;div&gt;&lt;br&gt;&lt;/div&gt;&lt;div&gt;pending = null&lt;/div&gt;&lt;div&gt;interleaved = null&lt;/div&gt;&lt;div&gt;dispatch =&amp;nbsp;dispatchSetState.bind(null, FiberApp, FiberApp.memoizedState.queue)&lt;/div&gt;&lt;div&gt;lastRenderedReducer: basicStateReducer&lt;/div&gt;&lt;div&gt;lastRenderedState = true&lt;/div&gt;" style="whiteSpace=wrap;html=1;" parent="ZvWnaeI2kjY47vPrVuiF-1" vertex="1">
          <mxGeometry x="1400" y="-720" width="480" height="160" as="geometry" />
        </mxCell>
        <mxCell id="ZvWnaeI2kjY47vPrVuiF-83" style="edgeStyle=orthogonalEdgeStyle;rounded=0;orthogonalLoop=1;jettySize=auto;html=1;exitX=0.5;exitY=0;exitDx=0;exitDy=0;" parent="ZvWnaeI2kjY47vPrVuiF-1" source="ZvWnaeI2kjY47vPrVuiF-86" edge="1">
          <mxGeometry relative="1" as="geometry">
            <mxPoint x="1880" y="1110.11" as="targetPoint" />
          </mxGeometry>
        </mxCell>
        <mxCell id="ZvWnaeI2kjY47vPrVuiF-84" value="child / return" style="edgeLabel;html=1;align=center;verticalAlign=middle;resizable=0;points=[];" parent="ZvWnaeI2kjY47vPrVuiF-83" vertex="1" connectable="0">
          <mxGeometry x="0.1949" y="3" relative="1" as="geometry">
            <mxPoint x="3" y="3" as="offset" />
          </mxGeometry>
        </mxCell>
        <mxCell id="ZvWnaeI2kjY47vPrVuiF-85" style="edgeStyle=orthogonalEdgeStyle;rounded=0;orthogonalLoop=1;jettySize=auto;html=1;exitX=0.5;exitY=1;exitDx=0;exitDy=0;entryX=0.5;entryY=0;entryDx=0;entryDy=0;" parent="ZvWnaeI2kjY47vPrVuiF-1" source="ZvWnaeI2kjY47vPrVuiF-86" target="ZvWnaeI2kjY47vPrVuiF-91" edge="1">
          <mxGeometry relative="1" as="geometry" />
        </mxCell>
        <mxCell id="ZvWnaeI2kjY47vPrVuiF-86" value="HostComponent div&lt;div&gt;&lt;br&gt;&lt;/div&gt;&lt;div&gt;stateNode = DOM div&lt;/div&gt;&lt;div&gt;memoizedProps =&amp;nbsp;&lt;span style=&quot;background-color: initial;&quot;&gt;{ children: Array(3)&lt;/span&gt;&lt;span style=&quot;background-color: initial;&quot;&gt;&amp;nbsp;&lt;/span&gt;&lt;/div&gt;&lt;div&gt;pendingProps = { children: Array(3) }&lt;/div&gt;&lt;div&gt;memoizedState =&amp;nbsp; null&lt;/div&gt;" style="whiteSpace=wrap;html=1;" parent="ZvWnaeI2kjY47vPrVuiF-1" vertex="1">
          <mxGeometry x="1760" y="1150.11" width="240" height="120" as="geometry" />
        </mxCell>
        <mxCell id="ZvWnaeI2kjY47vPrVuiF-87" style="edgeStyle=orthogonalEdgeStyle;rounded=0;orthogonalLoop=1;jettySize=auto;html=1;exitX=0.5;exitY=0;exitDx=0;exitDy=0;entryX=0.5;entryY=1;entryDx=0;entryDy=0;" parent="ZvWnaeI2kjY47vPrVuiF-1" source="ZvWnaeI2kjY47vPrVuiF-91" target="ZvWnaeI2kjY47vPrVuiF-86" edge="1">
          <mxGeometry relative="1" as="geometry" />
        </mxCell>
        <mxCell id="ZvWnaeI2kjY47vPrVuiF-88" value="child / return" style="edgeLabel;html=1;align=center;verticalAlign=middle;resizable=0;points=[];" parent="ZvWnaeI2kjY47vPrVuiF-87" vertex="1" connectable="0">
          <mxGeometry x="0.109" y="2" relative="1" as="geometry">
            <mxPoint x="2" y="24" as="offset" />
          </mxGeometry>
        </mxCell>
        <mxCell id="ZvWnaeI2kjY47vPrVuiF-89" style="edgeStyle=orthogonalEdgeStyle;rounded=0;orthogonalLoop=1;jettySize=auto;html=1;exitX=1;exitY=0.5;exitDx=0;exitDy=0;entryX=0;entryY=0.5;entryDx=0;entryDy=0;" parent="ZvWnaeI2kjY47vPrVuiF-1" source="ZvWnaeI2kjY47vPrVuiF-91" target="ZvWnaeI2kjY47vPrVuiF-97" edge="1">
          <mxGeometry relative="1" as="geometry" />
        </mxCell>
        <mxCell id="ZvWnaeI2kjY47vPrVuiF-90" value="sibling" style="edgeLabel;html=1;align=center;verticalAlign=middle;resizable=0;points=[];" parent="ZvWnaeI2kjY47vPrVuiF-89" vertex="1" connectable="0">
          <mxGeometry x="-0.003" y="2" relative="1" as="geometry">
            <mxPoint as="offset" />
          </mxGeometry>
        </mxCell>
        <mxCell id="ZvWnaeI2kjY47vPrVuiF-91" value="HostComponent button&lt;div&gt;&lt;br&gt;&lt;/div&gt;&lt;div&gt;stateNode = DOM button&lt;/div&gt;&lt;div&gt;memoizedProps =&amp;nbsp;&lt;span style=&quot;background-color: initial;&quot;&gt;{ children: &quot;Click me&quot;, onClick }&lt;/span&gt;&lt;/div&gt;&lt;div&gt;pendingProps = { children: &quot;Click me&quot;, onClick }&lt;/div&gt;&lt;div&gt;memoizedState =&amp;nbsp; null&lt;/div&gt;&lt;div&gt;index = 0&lt;/div&gt;" style="whiteSpace=wrap;html=1;" parent="ZvWnaeI2kjY47vPrVuiF-1" vertex="1">
          <mxGeometry x="1740" y="1350.11" width="280" height="120" as="geometry" />
        </mxCell>
        <mxCell id="ZvWnaeI2kjY47vPrVuiF-92" style="edgeStyle=orthogonalEdgeStyle;rounded=0;orthogonalLoop=1;jettySize=auto;html=1;exitX=0.5;exitY=0;exitDx=0;exitDy=0;" parent="ZvWnaeI2kjY47vPrVuiF-1" source="ZvWnaeI2kjY47vPrVuiF-97" edge="1">
          <mxGeometry relative="1" as="geometry">
            <mxPoint x="1880" y="1270.11" as="targetPoint" />
          </mxGeometry>
        </mxCell>
        <mxCell id="ZvWnaeI2kjY47vPrVuiF-93" value="return" style="edgeLabel;html=1;align=center;verticalAlign=middle;resizable=0;points=[];" parent="ZvWnaeI2kjY47vPrVuiF-92" vertex="1" connectable="0">
          <mxGeometry x="-0.8862" relative="1" as="geometry">
            <mxPoint as="offset" />
          </mxGeometry>
        </mxCell>
        <mxCell id="ZvWnaeI2kjY47vPrVuiF-94" style="edgeStyle=orthogonalEdgeStyle;rounded=0;orthogonalLoop=1;jettySize=auto;html=1;exitX=1;exitY=0.5;exitDx=0;exitDy=0;entryX=0;entryY=0.5;entryDx=0;entryDy=0;" parent="ZvWnaeI2kjY47vPrVuiF-1" source="ZvWnaeI2kjY47vPrVuiF-97" target="ZvWnaeI2kjY47vPrVuiF-101" edge="1">
          <mxGeometry relative="1" as="geometry" />
        </mxCell>
        <mxCell id="ZvWnaeI2kjY47vPrVuiF-95" value="sibling" style="edgeLabel;html=1;align=center;verticalAlign=middle;resizable=0;points=[];" parent="ZvWnaeI2kjY47vPrVuiF-94" vertex="1" connectable="0">
          <mxGeometry x="-0.0645" y="1" relative="1" as="geometry">
            <mxPoint as="offset" />
          </mxGeometry>
        </mxCell>
        <mxCell id="ZvWnaeI2kjY47vPrVuiF-96" style="edgeStyle=orthogonalEdgeStyle;rounded=0;orthogonalLoop=1;jettySize=auto;html=1;exitX=0.5;exitY=1;exitDx=0;exitDy=0;entryX=0.5;entryY=0;entryDx=0;entryDy=0;" parent="ZvWnaeI2kjY47vPrVuiF-1" source="ZvWnaeI2kjY47vPrVuiF-97" target="ZvWnaeI2kjY47vPrVuiF-104" edge="1">
          <mxGeometry relative="1" as="geometry" />
        </mxCell>
        <mxCell id="ZvWnaeI2kjY47vPrVuiF-97" value="IndeterminateComponent InDependState&lt;div&gt;&lt;br&gt;&lt;/div&gt;&lt;div&gt;stateNode = null&lt;/div&gt;&lt;div&gt;memoizedProps = { }&lt;/div&gt;&lt;div&gt;pendingProps = { }&lt;/div&gt;&lt;div&gt;memoizedState = null&lt;/div&gt;&lt;div&gt;index = 1&lt;/div&gt;" style="whiteSpace=wrap;html=1;" parent="ZvWnaeI2kjY47vPrVuiF-1" vertex="1">
          <mxGeometry x="2100" y="1350.11" width="240" height="120" as="geometry" />
        </mxCell>
        <mxCell id="ZvWnaeI2kjY47vPrVuiF-98" style="edgeStyle=orthogonalEdgeStyle;rounded=0;orthogonalLoop=1;jettySize=auto;html=1;exitX=0.5;exitY=0;exitDx=0;exitDy=0;entryX=0.5;entryY=1;entryDx=0;entryDy=0;" parent="ZvWnaeI2kjY47vPrVuiF-1" source="ZvWnaeI2kjY47vPrVuiF-101" target="ZvWnaeI2kjY47vPrVuiF-86" edge="1">
          <mxGeometry relative="1" as="geometry" />
        </mxCell>
        <mxCell id="ZvWnaeI2kjY47vPrVuiF-99" value="return" style="edgeLabel;html=1;align=center;verticalAlign=middle;resizable=0;points=[];" parent="ZvWnaeI2kjY47vPrVuiF-98" vertex="1" connectable="0">
          <mxGeometry x="-0.9355" y="1" relative="1" as="geometry">
            <mxPoint as="offset" />
          </mxGeometry>
        </mxCell>
        <mxCell id="ZvWnaeI2kjY47vPrVuiF-100" style="edgeStyle=orthogonalEdgeStyle;rounded=0;orthogonalLoop=1;jettySize=auto;html=1;exitX=0.5;exitY=1;exitDx=0;exitDy=0;entryX=0.5;entryY=0;entryDx=0;entryDy=0;" parent="ZvWnaeI2kjY47vPrVuiF-1" source="ZvWnaeI2kjY47vPrVuiF-101" target="ZvWnaeI2kjY47vPrVuiF-108" edge="1">
          <mxGeometry relative="1" as="geometry" />
        </mxCell>
        <mxCell id="ZvWnaeI2kjY47vPrVuiF-101" value="IndeterminateComponent DependState&lt;div&gt;&lt;br&gt;&lt;/div&gt;&lt;div&gt;stateNode = null&lt;/div&gt;&lt;div&gt;memoizedProps = { count: 0 }&lt;/div&gt;&lt;div&gt;pendingProps = { count:&amp;nbsp; 0 }&lt;/div&gt;&lt;div&gt;memoizedState = null&lt;/div&gt;&lt;div&gt;index = 2&lt;/div&gt;" style="whiteSpace=wrap;html=1;" parent="ZvWnaeI2kjY47vPrVuiF-1" vertex="1">
          <mxGeometry x="2420" y="1350.11" width="240" height="120" as="geometry" />
        </mxCell>
        <mxCell id="ZvWnaeI2kjY47vPrVuiF-102" style="edgeStyle=orthogonalEdgeStyle;rounded=0;orthogonalLoop=1;jettySize=auto;html=1;exitX=0.5;exitY=0;exitDx=0;exitDy=0;entryX=0.5;entryY=1;entryDx=0;entryDy=0;" parent="ZvWnaeI2kjY47vPrVuiF-1" source="ZvWnaeI2kjY47vPrVuiF-104" target="ZvWnaeI2kjY47vPrVuiF-97" edge="1">
          <mxGeometry relative="1" as="geometry" />
        </mxCell>
        <mxCell id="ZvWnaeI2kjY47vPrVuiF-103" value="child / return" style="edgeLabel;html=1;align=center;verticalAlign=middle;resizable=0;points=[];" parent="ZvWnaeI2kjY47vPrVuiF-102" vertex="1" connectable="0">
          <mxGeometry x="0.0171" relative="1" as="geometry">
            <mxPoint as="offset" />
          </mxGeometry>
        </mxCell>
        <mxCell id="ZvWnaeI2kjY47vPrVuiF-104" value="HostComponent p&lt;div&gt;&lt;br&gt;&lt;/div&gt;&lt;div&gt;stateNode = DOM p&lt;/div&gt;&lt;div&gt;memoizedProps =&amp;nbsp;&lt;span style=&quot;background-color: initial;&quot;&gt;{ children: &quot;render something ...&quot; }&lt;/span&gt;&lt;/div&gt;&lt;div&gt;pendingProps =&amp;nbsp;&lt;span style=&quot;background-color: initial;&quot;&gt;{ children: &quot;render something ...&quot; }&lt;/span&gt;&lt;/div&gt;&lt;div&gt;&lt;span style=&quot;background-color: initial;&quot;&gt;memoizedState =&amp;nbsp; null&lt;/span&gt;&lt;/div&gt;" style="whiteSpace=wrap;html=1;" parent="ZvWnaeI2kjY47vPrVuiF-1" vertex="1">
          <mxGeometry x="2060" y="1510.11" width="320" height="120" as="geometry" />
        </mxCell>
        <mxCell id="ZvWnaeI2kjY47vPrVuiF-105" style="edgeStyle=orthogonalEdgeStyle;rounded=0;orthogonalLoop=1;jettySize=auto;html=1;exitX=0.5;exitY=0;exitDx=0;exitDy=0;entryX=0.5;entryY=1;entryDx=0;entryDy=0;" parent="ZvWnaeI2kjY47vPrVuiF-1" source="ZvWnaeI2kjY47vPrVuiF-108" target="ZvWnaeI2kjY47vPrVuiF-101" edge="1">
          <mxGeometry relative="1" as="geometry">
            <mxPoint x="2590.105263157895" y="1470.11" as="targetPoint" />
          </mxGeometry>
        </mxCell>
        <mxCell id="ZvWnaeI2kjY47vPrVuiF-106" value="child / return" style="edgeLabel;html=1;align=center;verticalAlign=middle;resizable=0;points=[];" parent="ZvWnaeI2kjY47vPrVuiF-105" vertex="1" connectable="0">
          <mxGeometry x="0.0267" y="-1" relative="1" as="geometry">
            <mxPoint x="-1" as="offset" />
          </mxGeometry>
        </mxCell>
        <mxCell id="ZvWnaeI2kjY47vPrVuiF-107" style="edgeStyle=orthogonalEdgeStyle;rounded=0;orthogonalLoop=1;jettySize=auto;html=1;exitX=0.5;exitY=1;exitDx=0;exitDy=0;entryX=0.5;entryY=0;entryDx=0;entryDy=0;" parent="ZvWnaeI2kjY47vPrVuiF-1" source="ZvWnaeI2kjY47vPrVuiF-108" target="ZvWnaeI2kjY47vPrVuiF-113" edge="1">
          <mxGeometry relative="1" as="geometry" />
        </mxCell>
        <mxCell id="ZvWnaeI2kjY47vPrVuiF-108" value="HostComponent span&lt;div&gt;&lt;br&gt;&lt;/div&gt;&lt;div&gt;stateNode = DOM span&lt;/div&gt;&lt;div&gt;memoizedProps =&amp;nbsp;&lt;span style=&quot;background-color: initial;&quot;&gt;{ children: Array(2) }&lt;/span&gt;&lt;/div&gt;&lt;div&gt;pendingProps =&amp;nbsp;&lt;span style=&quot;background-color: initial;&quot;&gt;{ children: Array(2) }&lt;/span&gt;&lt;/div&gt;&lt;div&gt;&lt;span style=&quot;background-color: initial;&quot;&gt;memoizedState =&amp;nbsp; null&lt;/span&gt;&lt;/div&gt;" style="whiteSpace=wrap;html=1;" parent="ZvWnaeI2kjY47vPrVuiF-1" vertex="1">
          <mxGeometry x="2420" y="1510.11" width="240" height="120" as="geometry" />
        </mxCell>
        <mxCell id="ZvWnaeI2kjY47vPrVuiF-109" style="edgeStyle=orthogonalEdgeStyle;rounded=0;orthogonalLoop=1;jettySize=auto;html=1;exitX=0.5;exitY=0;exitDx=0;exitDy=0;" parent="ZvWnaeI2kjY47vPrVuiF-1" source="ZvWnaeI2kjY47vPrVuiF-113" edge="1">
          <mxGeometry relative="1" as="geometry">
            <mxPoint x="2539.5789473684213" y="1630.11" as="targetPoint" />
          </mxGeometry>
        </mxCell>
        <mxCell id="ZvWnaeI2kjY47vPrVuiF-110" value="child / return" style="edgeLabel;html=1;align=center;verticalAlign=middle;resizable=0;points=[];" parent="ZvWnaeI2kjY47vPrVuiF-109" vertex="1" connectable="0">
          <mxGeometry x="0.0777" y="1" relative="1" as="geometry">
            <mxPoint x="1" y="23" as="offset" />
          </mxGeometry>
        </mxCell>
        <mxCell id="ZvWnaeI2kjY47vPrVuiF-111" style="edgeStyle=orthogonalEdgeStyle;rounded=0;orthogonalLoop=1;jettySize=auto;html=1;exitX=1;exitY=0.5;exitDx=0;exitDy=0;entryX=0;entryY=0.5;entryDx=0;entryDy=0;" parent="ZvWnaeI2kjY47vPrVuiF-1" source="ZvWnaeI2kjY47vPrVuiF-113" target="ZvWnaeI2kjY47vPrVuiF-116" edge="1">
          <mxGeometry relative="1" as="geometry" />
        </mxCell>
        <mxCell id="ZvWnaeI2kjY47vPrVuiF-112" value="sibling" style="edgeLabel;html=1;align=center;verticalAlign=middle;resizable=0;points=[];" parent="ZvWnaeI2kjY47vPrVuiF-111" vertex="1" connectable="0">
          <mxGeometry x="-0.0679" y="1" relative="1" as="geometry">
            <mxPoint as="offset" />
          </mxGeometry>
        </mxCell>
        <mxCell id="ZvWnaeI2kjY47vPrVuiF-113" value="HostText &quot;0&quot;&lt;div&gt;&lt;br&gt;&lt;/div&gt;&lt;div&gt;stateNode = DOM &quot;0&quot;&lt;/div&gt;&lt;div&gt;memoizedProps = &quot;0&quot;&lt;/div&gt;&lt;div&gt;pendingProps = &quot;0&quot;&lt;/div&gt;&lt;div&gt;&lt;span style=&quot;background-color: initial;&quot;&gt;memoizedState =&amp;nbsp; null&lt;/span&gt;&lt;/div&gt;" style="whiteSpace=wrap;html=1;" parent="ZvWnaeI2kjY47vPrVuiF-1" vertex="1">
          <mxGeometry x="2460" y="1710.11" width="160" height="120" as="geometry" />
        </mxCell>
        <mxCell id="ZvWnaeI2kjY47vPrVuiF-114" style="edgeStyle=orthogonalEdgeStyle;rounded=0;orthogonalLoop=1;jettySize=auto;html=1;exitX=0.5;exitY=0;exitDx=0;exitDy=0;entryX=0.5;entryY=1;entryDx=0;entryDy=0;" parent="ZvWnaeI2kjY47vPrVuiF-1" source="ZvWnaeI2kjY47vPrVuiF-116" target="ZvWnaeI2kjY47vPrVuiF-108" edge="1">
          <mxGeometry relative="1" as="geometry" />
        </mxCell>
        <mxCell id="ZvWnaeI2kjY47vPrVuiF-115" value="return" style="edgeLabel;html=1;align=center;verticalAlign=middle;resizable=0;points=[];" parent="ZvWnaeI2kjY47vPrVuiF-114" vertex="1" connectable="0">
          <mxGeometry x="-0.8703" y="1" relative="1" as="geometry">
            <mxPoint as="offset" />
          </mxGeometry>
        </mxCell>
        <mxCell id="ZvWnaeI2kjY47vPrVuiF-116" value="HostText &quot; - even&quot;&lt;div&gt;&lt;br&gt;&lt;/div&gt;&lt;div&gt;stateNode = DOM &quot; - even&quot;&lt;/div&gt;&lt;div&gt;memoizedProps = &quot; - even &quot;&lt;/div&gt;&lt;div&gt;pendingProps = &quot; - even&quot;&lt;/div&gt;&lt;div&gt;&lt;span style=&quot;background-color: initial;&quot;&gt;memoizedState =&amp;nbsp; null&lt;/span&gt;&lt;/div&gt;" style="whiteSpace=wrap;html=1;" parent="ZvWnaeI2kjY47vPrVuiF-1" vertex="1">
          <mxGeometry x="2710" y="1710.11" width="160" height="120" as="geometry" />
        </mxCell>
        <mxCell id="gzDzBu7FxxV0S9XF0m-d-2" style="edgeStyle=orthogonalEdgeStyle;rounded=0;orthogonalLoop=1;jettySize=auto;html=1;exitX=0;exitY=0.5;exitDx=0;exitDy=0;" edge="1" parent="ZvWnaeI2kjY47vPrVuiF-1" source="ZvWnaeI2kjY47vPrVuiF-118">
          <mxGeometry relative="1" as="geometry">
            <mxPoint x="2000" y="660.294117647059" as="targetPoint" />
          </mxGeometry>
        </mxCell>
        <mxCell id="ZvWnaeI2kjY47vPrVuiF-118" value="workInProgress" style="whiteSpace=wrap;html=1;" parent="ZvWnaeI2kjY47vPrVuiF-1" vertex="1">
          <mxGeometry x="2040" y="630" width="120" height="60" as="geometry" />
        </mxCell>
        <mxCell id="ZvWnaeI2kjY47vPrVuiF-119" value="" style="endArrow=none;dashed=1;html=1;dashPattern=1 3;strokeWidth=2;rounded=0;" parent="ZvWnaeI2kjY47vPrVuiF-1" edge="1">
          <mxGeometry width="50" height="50" relative="1" as="geometry">
            <mxPoint x="90" y="1920" as="sourcePoint" />
            <mxPoint x="2310" y="1920" as="targetPoint" />
          </mxGeometry>
        </mxCell>
        <mxCell id="ZvWnaeI2kjY47vPrVuiF-120" style="edgeStyle=orthogonalEdgeStyle;rounded=0;orthogonalLoop=1;jettySize=auto;html=1;exitX=0.5;exitY=1;exitDx=0;exitDy=0;entryX=0.5;entryY=0;entryDx=0;entryDy=0;" parent="ZvWnaeI2kjY47vPrVuiF-1" source="ZvWnaeI2kjY47vPrVuiF-123" target="ZvWnaeI2kjY47vPrVuiF-124" edge="1">
          <mxGeometry relative="1" as="geometry" />
        </mxCell>
        <mxCell id="ZvWnaeI2kjY47vPrVuiF-121" style="edgeStyle=orthogonalEdgeStyle;rounded=0;orthogonalLoop=1;jettySize=auto;html=1;exitX=0.5;exitY=1;exitDx=0;exitDy=0;entryX=0.5;entryY=0;entryDx=0;entryDy=0;" parent="ZvWnaeI2kjY47vPrVuiF-1" source="ZvWnaeI2kjY47vPrVuiF-123" target="ZvWnaeI2kjY47vPrVuiF-125" edge="1">
          <mxGeometry relative="1" as="geometry" />
        </mxCell>
        <mxCell id="ZvWnaeI2kjY47vPrVuiF-122" style="edgeStyle=orthogonalEdgeStyle;rounded=0;orthogonalLoop=1;jettySize=auto;html=1;exitX=0.5;exitY=1;exitDx=0;exitDy=0;entryX=0.5;entryY=0;entryDx=0;entryDy=0;" parent="ZvWnaeI2kjY47vPrVuiF-1" source="ZvWnaeI2kjY47vPrVuiF-123" target="ZvWnaeI2kjY47vPrVuiF-128" edge="1">
          <mxGeometry relative="1" as="geometry" />
        </mxCell>
        <mxCell id="ZvWnaeI2kjY47vPrVuiF-123" value="div" style="whiteSpace=wrap;html=1;" parent="ZvWnaeI2kjY47vPrVuiF-1" vertex="1">
          <mxGeometry x="440" y="2040" width="80" height="40" as="geometry" />
        </mxCell>
        <mxCell id="ZvWnaeI2kjY47vPrVuiF-124" value="button" style="whiteSpace=wrap;html=1;" parent="ZvWnaeI2kjY47vPrVuiF-1" vertex="1">
          <mxGeometry x="440" y="2120" width="80" height="40" as="geometry" />
        </mxCell>
        <mxCell id="ZvWnaeI2kjY47vPrVuiF-125" value="p" style="whiteSpace=wrap;html=1;" parent="ZvWnaeI2kjY47vPrVuiF-1" vertex="1">
          <mxGeometry x="560" y="2120" width="80" height="40" as="geometry" />
        </mxCell>
        <mxCell id="ZvWnaeI2kjY47vPrVuiF-126" style="edgeStyle=orthogonalEdgeStyle;rounded=0;orthogonalLoop=1;jettySize=auto;html=1;exitX=0.5;exitY=1;exitDx=0;exitDy=0;entryX=0.5;entryY=0;entryDx=0;entryDy=0;" parent="ZvWnaeI2kjY47vPrVuiF-1" source="ZvWnaeI2kjY47vPrVuiF-128" target="ZvWnaeI2kjY47vPrVuiF-129" edge="1">
          <mxGeometry relative="1" as="geometry" />
        </mxCell>
        <mxCell id="ZvWnaeI2kjY47vPrVuiF-127" style="edgeStyle=orthogonalEdgeStyle;rounded=0;orthogonalLoop=1;jettySize=auto;html=1;exitX=0.5;exitY=1;exitDx=0;exitDy=0;entryX=0.5;entryY=0;entryDx=0;entryDy=0;" parent="ZvWnaeI2kjY47vPrVuiF-1" source="ZvWnaeI2kjY47vPrVuiF-128" target="ZvWnaeI2kjY47vPrVuiF-130" edge="1">
          <mxGeometry relative="1" as="geometry" />
        </mxCell>
        <mxCell id="ZvWnaeI2kjY47vPrVuiF-128" value="span" style="whiteSpace=wrap;html=1;" parent="ZvWnaeI2kjY47vPrVuiF-1" vertex="1">
          <mxGeometry x="680" y="2120" width="80" height="40" as="geometry" />
        </mxCell>
        <mxCell id="ZvWnaeI2kjY47vPrVuiF-129" value="&quot;0&quot;" style="whiteSpace=wrap;html=1;" parent="ZvWnaeI2kjY47vPrVuiF-1" vertex="1">
          <mxGeometry x="680" y="2200" width="80" height="40" as="geometry" />
        </mxCell>
        <mxCell id="ZvWnaeI2kjY47vPrVuiF-130" value="&quot; - even&quot;" style="whiteSpace=wrap;html=1;" parent="ZvWnaeI2kjY47vPrVuiF-1" vertex="1">
          <mxGeometry x="800" y="2200" width="80" height="40" as="geometry" />
        </mxCell>
        <mxCell id="ZvWnaeI2kjY47vPrVuiF-131" style="edgeStyle=orthogonalEdgeStyle;rounded=0;orthogonalLoop=1;jettySize=auto;html=1;exitX=0.5;exitY=1;exitDx=0;exitDy=0;entryX=0.5;entryY=0;entryDx=0;entryDy=0;" parent="ZvWnaeI2kjY47vPrVuiF-1" source="ZvWnaeI2kjY47vPrVuiF-132" target="ZvWnaeI2kjY47vPrVuiF-123" edge="1">
          <mxGeometry relative="1" as="geometry" />
        </mxCell>
        <mxCell id="ZvWnaeI2kjY47vPrVuiF-132" value="main#root" style="whiteSpace=wrap;html=1;" parent="ZvWnaeI2kjY47vPrVuiF-1" vertex="1">
          <mxGeometry x="440" y="1960" width="80" height="40" as="geometry" />
        </mxCell>
        <mxCell id="gzDzBu7FxxV0S9XF0m-d-0" style="edgeStyle=orthogonalEdgeStyle;rounded=0;orthogonalLoop=1;jettySize=auto;html=1;exitX=0.5;exitY=1;exitDx=0;exitDy=0;" edge="1" parent="ZvWnaeI2kjY47vPrVuiF-1" source="ZvWnaeI2kjY47vPrVuiF-118" target="ZvWnaeI2kjY47vPrVuiF-118">
          <mxGeometry relative="1" as="geometry" />
        </mxCell>
      </root>
    </mxGraphModel>
  </diagram>
</mxfile>
